<svg height="31" viewBox="0 0 180 31" width="180" xmlns="http://www.w3.org/2000/svg" xmlns:xlink="http://www.w3.org/1999/xlink"><mask id="a" fill="#fff"><path d="m0 31h179.97v-31h-179.97z" /></mask><path d="m59.33 18.883c0 1.376-.823 2.198-1.997 2.198-1.207 0-1.895-.788-1.895-2.164v-5.033h-2.03v5.637c0 2.063 1.158 3.406 3.154 3.406 1.376 0 2.198-.722 2.767-1.561v1.376h2.03v-8.858h-2.03v5zm26.4-3.255-1.743-1.744h-1.15v-2.432h-2.03v8.84c0 1.946 1.057 2.601 2.55 2.601.755 0 1.324-.168 1.83-.454v-1.66a2.734 2.734 0 0 1 -1.26.302c-.689 0-1.09-.32-1.09-1.108v-4.345zm-34.15 1.225c0-3.321-2.515-6.055-6.122-6.055s-6.156 2.768-6.156 6.089 2.516 6.056 6.122 6.056a6.19 6.19 0 0 0 3.573-1.107l1.03.918h3.056l-2.694-2.277a6.086 6.086 0 0 0 1.191-3.624zm-2.768 2.248h-2.959l1.618 1.376a3.73 3.73 0 0 1 -2.013.57c-2.332 0-3.993-1.895-3.993-4.194 0-2.297 1.627-4.159 3.96-4.159 2.332 0 3.991 1.895 3.991 4.193 0 .823-.2 1.593-.604 2.214zm27.819-1.594c-1.04-.334-1.997-.603-1.997-1.24v-.034c0-.52.454-.89 1.243-.89.621 0 1.36.229 2.09.61l1.213-1.213c-.939-.62-2.146-1.007-3.252-1.007-1.763 0-3.155 1.024-3.155 2.701v.033c0 1.694 1.46 2.231 2.768 2.601 1.04.32 1.98.552 1.98 1.24v.034c0 .587-.504.957-1.376.957-.82 0-1.749-.305-2.627-.898l-1.18 1.181-.001.002c1.107.872 2.5 1.326 3.757 1.326 1.846 0 3.288-.923 3.288-2.785v-.034c0-1.593-1.459-2.181-2.751-2.584zm-9.456-3.808c-2.533 0-4.329 2.08-4.329 4.63 0 2.752 1.98 4.614 4.548 4.614 1.587 0 2.727-.624 3.561-1.59l-1.127-1.126-.003-.002c-.704.688-1.408 1.057-2.398 1.057-1.308 0-2.315-.805-2.55-2.247h6.51c.015-.202.032-.37.032-.555 0-2.566-1.426-4.78-4.244-4.78zm-2.296 3.883c.215-1.315 1.073-2.221 2.28-2.221 1.303 0 2.066.966 2.232 2.221h-4.511zm27.924-6.128h-3.746v11.249h3.746c3.536 0 5.978-2.458 5.978-5.624v-.033c0-3.166-2.442-5.592-5.978-5.592zm5.11 5.656c0 2.684-1.975 4.822-5.11 4.822h-2.909v-9.707h2.91c3.134 0 5.109 2.186 5.109 4.854zm10.116-2.732c-1.126 0-2.01.29-2.91.707l.29.692c.755-.387 1.574-.66 2.572-.66 1.686 0 2.7.852 2.7 2.508v.353a9.865 9.865 0 0 0 -2.716-.353c-2.122 0-3.584.963-3.584 2.668v.031c0 1.705 1.639 2.572 3.165 2.572 1.559 0 2.572-.772 3.134-1.56v1.367h.772v-5.11c0-2.121-1.319-3.215-3.423-3.215zm2.667 5.256c0 1.494-1.431 2.521-3.101 2.521-1.255 0-2.38-.689-2.38-1.878v-.032c0-1.142.963-1.913 2.701-1.913 1.174 0 2.089.192 2.78.37zm17.85-5.32c-1.495 0-2.41.755-2.957 1.72v-1.527h-.788v8.196h.788v-4.743c0-1.703 1.238-2.924 2.845-2.924 1.655 0 2.604 1.11 2.604 2.796v4.87h.786v-5.014c0-1.96-1.204-3.375-3.278-3.375zm9.337 0c-2.442 0-4.226 1.993-4.226 4.29v.033c0 2.298 1.768 4.259 4.196 4.259 2.441 0 4.225-1.994 4.225-4.292v-.032c0-2.297-1.769-4.258-4.195-4.258zm3.343 4.323c0 1.93-1.398 3.518-3.343 3.518-1.897 0-3.373-1.574-3.373-3.55v-.033c0-1.928 1.396-3.52 3.343-3.52 1.894 0 3.373 1.576 3.373 3.552zm14.056-3.408-.722-.722h-2.14v-2.619h-.789v8.71c0 1.557 1.03 2.25 2.3 2.25a3 3 0 0 0 1.333-.29v-.74c-.465.211-.803.29-1.206.29-.948 0-1.638-.419-1.638-1.59v-5.29h2.862zm-34.123.918c-.675-.966-1.784-1.833-3.424-1.833-1.975 0-3.937 1.526-3.937 3.89v.031c0 2.346 1.962 3.856 3.937 3.856 1.624 0 2.717-.882 3.424-1.895v1.189c0 2.106-1.334 3.182-3.214 3.182-1.164 0-2.252-.377-3.206-1.083l-.568.57a6.18 6.18 0 0 0 3.758 1.25c2.33 0 4.017-1.38 4.017-3.87v-6.927h-.787zm.048 2.072c0 1.864-1.687 3.118-3.391 3.118-1.688 0-3.166-1.286-3.166-3.134v-.032c0-1.913 1.447-3.102 3.166-3.102 1.704 0 3.391 1.222 3.391 3.117zm51.936-.08c-1.172-.339-2.281-.675-2.281-1.591v-.033c0-.82.738-1.43 1.864-1.43.812 0 1.649.284 2.37.727l.568-.567c-.82-.546-1.928-.9-2.907-.9-1.59 0-2.7.949-2.7 2.266v.033c0 1.463 1.48 1.865 2.815 2.25 1.138.322 2.168.675 2.168 1.64v.032c0 .947-.868 1.558-1.977 1.558-1.008 0-1.97-.363-2.846-1.009l-.56.56c.868.707 2.17 1.189 3.358 1.189 1.575 0 2.827-.932 2.827-2.394v-.033c0-1.446-1.381-1.928-2.7-2.299zm-26.309 0c-1.174-.339-2.283-.675-2.283-1.591v-.033c0-.82.74-1.43 1.864-1.43.812 0 1.648.284 2.371.727l.567-.567c-.818-.546-1.926-.9-2.904-.9-1.592 0-2.699.949-2.699 2.266v.033c0 1.463 1.476 1.865 2.81 2.25 1.141.322 2.17.675 2.17 1.64v.032c0 .947-.867 1.558-1.975 1.558-1.01 0-1.973-.363-2.849-1.009l-.56.56c.868.707 2.171 1.189 3.359 1.189 1.575 0 2.828-.932 2.828-2.394v-.033c0-1.446-1.383-1.928-2.699-2.299zm18.07 4.016c-1.881 0-3.376-1.574-3.376-3.55v-.033c0-1.96 1.446-3.52 3.312-3.52 1.215 0 2.018.622 2.724 1.342l.57-.569c-.772-.804-1.737-1.511-3.277-1.511-2.35 0-4.18 1.993-4.18 4.29v.033c0 2.298 1.816 4.259 4.18 4.259 1.49 0 2.478-.66 3.307-1.591l-.514-.513c-.689.769-1.59 1.363-2.745 1.363zm-63.583.548h.788v-8.197h-.788zm-.096-10.27h.982v-.979h-.982v.98zm56.35 0h.98v-.979h-.98v.98zm.096 10.27h.787v-8.197h-.787zm21.774-10.815-.58 1.468-.597-1.468h-.527v2.136h.38v-1.427l.565 1.398.012.03h.294l.568-1.426v1.425h.409v-2.136zm-3.623.352h.616v1.784h.423v-1.784h.615v-.352h-1.654zm-152.331-4.809c1.72 1.72 1.682 4.225 1.505 5.565-.271 2.063-1.2 4.204-2.617 6.106h-6.547l3.276 3.275c-2.302 1.716-4.931 2.703-7.346 2.703-1.251 0-3.018-.277-4.332-1.59-1.72-1.72-1.681-4.225-1.505-5.565.36-2.729 1.866-5.594 4.137-7.864 2.64-2.642 6.059-4.22 9.097-4.22.516 0 2.737-.005 4.332 1.59zm2.188 14.971 2.296 2.297a15.423 15.423 0 0 0 3.026-9.2c0-2.392-.543-4.659-1.512-6.682a.07.07 0 0 0 -.05-.034.065.065 0 0 0 -.07.085c1.02 4.175-.288 9.28-3.69 13.534zm-24.289-.477a.065.065 0 0 0 .086.03.067.067 0 0 0 .035-.078c-1.076-4.73.794-10.605 5.277-15.089 3.656-3.656 8.239-5.576 12.37-5.576.938 0 1.85.101 2.723.3a.068.068 0 0 0 .077-.057c.004-.03-.015-.057-.042-.069a15.446 15.446 0 0 0 -6.416-1.386c-8.56 0-15.5 6.94-15.5 15.5 0 2.291.498 4.467 1.39 6.425zm14.11 9.075a15.43 15.43 0 0 0 9.203-3.027l-2.295-2.296c-3.313 2.65-7.141 4.03-10.646 4.03a12.158 12.158 0 0 1 -2.923-.346.064.064 0 0 0 -.063.065c0 .027.015.05.036.06a15.441 15.441 0 0 0 6.688 1.514z" fill="#fff" fill-rule="evenodd" mask="url(#a)"/></svg>
