<?xml version="1.0" encoding="UTF-8"?>
<svg width="160px" height="30px" viewBox="0 0 160 30" version="1.1" xmlns="http://www.w3.org/2000/svg" xmlns:xlink="http://www.w3.org/1999/xlink">
    <!-- Generator: Sketch 50.2 (55047) - http://www.bohemiancoding.com/sketch -->
    <title>quest-direct-logo</title>
    <desc>Created with Sketch.</desc>
    <defs></defs>
    <g id="Symbols" stroke="none" stroke-width="1" fill="none" fill-rule="evenodd">
        <g id="quest-direct-logo">
            <path d="M14.196,15.77 C14.196,15.232664 14.1830001,14.6563364 14.157,14.041 C14.1309999,13.4256636 14.0573339,12.8146697 13.936,12.208 C13.8146661,11.6013303 13.6240013,11.0206694 13.364,10.466 C13.1039987,9.91133056 12.7486689,9.4173355 12.298,8.984 C11.8126642,8.51599766 11.2493365,8.16066788 10.608,7.918 C9.96666346,7.67533212 9.28200364,7.554 8.554,7.554 C7.82599636,7.554 7.14133654,7.67533212 6.5,7.918 C5.85866346,8.16066788 5.29533576,8.51599766 4.81,8.984 C4.35933108,9.4173355 4.0040013,9.91133056 3.744,10.466 C3.4839987,11.0206694 3.29333394,11.6013303 3.172,12.208 C3.05066606,12.8146697 2.97700013,13.4256636 2.951,14.041 C2.92499987,14.6563364 2.912,15.232664 2.912,15.77 C2.912,16.3246694 2.92499987,16.9053303 2.951,17.512 C2.97700013,18.1186697 3.05066606,18.7253303 3.172,19.332 C3.29333394,19.9386697 3.4839987,20.5236639 3.744,21.087 C4.0040013,21.6503362 4.35933108,22.1486645 4.81,22.582 C5.29533576,23.0500023 5.85866346,23.4053321 6.5,23.648 C7.14133654,23.8906679 7.82599636,24.012 8.554,24.012 C9.71533914,24.012 10.7466622,23.7086697 11.648,23.102 L8.892,19.592 L9.828,18.838 L12.558,22.296 C12.9393352,21.8626645 13.2426655,21.377336 13.468,20.84 C13.6933345,20.302664 13.8579995,19.7436696 13.962,19.163 C14.0660005,18.5823304 14.1309999,18.0016696 14.157,17.421 C14.1830001,16.8403304 14.196,16.2900026 14.196,15.77 Z M15.6,15.77 C15.6,16.42867 15.5783335,17.0959966 15.535,17.772 C15.4916664,18.4480034 15.3920008,19.1196633 15.236,19.787 C15.0799992,20.4543367 14.8546681,21.0913303 14.56,21.698 C14.2653319,22.3046697 13.8753358,22.8593308 13.39,23.362 C13.5113339,23.5180008 13.6239995,23.6609994 13.728,23.791 C13.8320005,23.9210007 13.9489993,24.0683325 14.079,24.233 C14.2090006,24.3976675 14.3563325,24.5883323 14.521,24.805 C14.6856675,25.0216678 14.8893321,25.2859984 15.132,25.598 L14.196,26.352 L12.454,24.142 C11.9339974,24.5060018 11.3490032,24.7963323 10.699,25.013 C10.0489967,25.2296678 9.3340039,25.338 8.554,25.338 C7.54866164,25.338 6.65167061,25.1646684 5.863,24.818 C5.07432939,24.4713316 4.39400286,24.0206694 3.822,23.466 C3.3019974,22.9633308 2.89033485,22.4043364 2.587,21.789 C2.28366515,21.1736636 2.04966749,20.5323367 1.885,19.865 C1.72033251,19.1976633 1.61633355,18.5130035 1.573,17.811 C1.52966645,17.1089965 1.508,16.42867 1.508,15.77 C1.508,15.11133 1.52966645,14.4353368 1.573,13.742 C1.61633355,13.0486632 1.72033251,12.3683367 1.885,11.701 C2.04966749,11.0336633 2.28366515,10.3923364 2.587,9.777 C2.89033485,9.16166359 3.3019974,8.60266918 3.822,8.1 C4.39400286,7.54533056 5.07432939,7.0946684 5.863,6.748 C6.65167061,6.4013316 7.54866164,6.228 8.554,6.228 C9.55933836,6.228 10.4563294,6.4013316 11.245,6.748 C12.0336706,7.0946684 12.7139971,7.54533056 13.286,8.1 C13.8060026,8.60266918 14.2176651,9.16166359 14.521,9.777 C14.8243348,10.3923364 15.0583325,11.0336633 15.223,11.701 C15.3876675,12.3683367 15.4916664,13.0486632 15.535,13.742 C15.5783335,14.4353368 15.6,15.11133 15.6,15.77 Z M28.548,24.974 L28.392,22.608 C28.2013324,23.0240021 27.9543348,23.4009983 27.651,23.739 C27.3476651,24.0770017 27.0010019,24.3629988 26.611,24.597 C26.220998,24.8310012 25.8006689,25.0086661 25.35,25.13 C24.8993311,25.2513339 24.4486689,25.312 23.998,25.312 C22.4899925,25.312 21.3503372,24.8873376 20.579,24.038 C19.8076628,23.1886624 19.422,22.0273407 19.422,20.554 L19.422,11.974 L20.722,11.974 L20.722,20.476 C20.722,21.6200057 20.9819974,22.4996636 21.502,23.115 C22.0220026,23.7303364 22.879994,24.038 24.076,24.038 C24.8733373,24.038 25.5493306,23.8820016 26.104,23.57 C26.6586694,23.2579984 27.1049983,22.8420026 27.443,22.322 C27.7810017,21.8019974 28.0236659,21.2083367 28.171,20.541 C28.3183341,19.8736633 28.392,19.1846702 28.392,18.474 L28.392,11.974 L29.692,11.974 L29.692,24.974 L28.548,24.974 Z M43.654,17.616 C43.6366666,16.9919969 43.5326676,16.3983362 43.342,15.835 C43.1513324,15.2716639 42.8740018,14.7690022 42.51,14.327 C42.1459982,13.8849978 41.7040026,13.5340013 41.184,13.274 C40.6639974,13.0139987 40.07467,12.884 39.416,12.884 C38.7399966,12.884 38.133336,13.0096654 37.596,13.261 C37.058664,13.5123346 36.6036685,13.8546645 36.231,14.288 C35.8583315,14.7213355 35.568001,15.2239971 35.36,15.796 C35.151999,16.3680029 35.048,16.9746635 35.048,17.616 L43.654,17.616 Z M44.98,17.954 C44.98,18.1100008 44.9756667,18.2529994 44.967,18.383 C44.9583333,18.5130007 44.954,18.6559992 44.954,18.812 L35.022,18.812 C35.0393334,19.5746705 35.1649988,20.2896633 35.399,20.957 C35.6330012,21.6243367 35.9579979,22.2093308 36.374,22.712 C36.7380018,23.1453355 37.1756641,23.4833321 37.687,23.726 C38.1983359,23.9686679 38.8093298,24.09 39.52,24.09 C40.6813391,24.09 41.6259964,23.7086705 42.354,22.946 C42.5966679,22.7033321 42.8003325,22.4346681 42.965,22.14 C43.1296675,21.8453319 43.2553329,21.4986687 43.342,21.1 L44.694,21.1 C44.6073329,21.6546694 44.4340013,22.1616644 44.174,22.621 C43.9139987,23.0803356 43.6020018,23.4833316 43.238,23.83 C42.7699977,24.2980023 42.2196698,24.666332 41.587,24.935 C40.9543302,25.203668 40.2653371,25.338 39.52,25.338 C38.5839953,25.338 37.7780034,25.1646684 37.102,24.818 C36.4259966,24.4713316 35.8540023,24.029336 35.386,23.492 C34.848664,22.8679969 34.4370014,22.1356709 34.151,21.295 C33.8649986,20.4543291 33.722,19.5400049 33.722,18.552 C33.722,17.7199958 33.8086658,16.9140039 33.982,16.134 C34.1553342,15.3539961 34.4933308,14.6173368 34.996,13.924 C36.1053389,12.4159925 37.5786575,11.662 39.416,11.662 C40.3000044,11.662 41.0843299,11.8353316 41.769,12.182 C42.4536701,12.5286684 43.0343309,12.9923304 43.511,13.573 C43.987669,14.1536696 44.3516654,14.8253295 44.603,15.588 C44.8543346,16.3506705 44.98,17.1393293 44.98,17.954 Z M58.136,21.386 C58.136,22.3046713 57.8413363,23.1019966 57.252,23.778 C56.7839977,24.2980026 56.1816703,24.6879987 55.445,24.948 C54.7083296,25.2080013 53.906671,25.338 53.04,25.338 C52.1559956,25.338 51.3500036,25.1993347 50.622,24.922 C49.8939964,24.6446653 49.2786692,24.2286694 48.776,23.674 C48.4119982,23.2579979 48.1476675,22.8506687 47.983,22.452 C47.8183325,22.0533313 47.7186668,21.585336 47.684,21.048 L49.01,21.048 C49.0793337,21.8106705 49.3999971,22.4779971 49.972,23.05 C50.3533352,23.4140018 50.8039974,23.6783325 51.324,23.843 C51.8440026,24.0076675 52.4159969,24.09 53.04,24.09 C53.7160034,24.09 54.3139974,24.0120008 54.834,23.856 C55.3540026,23.6999992 55.778665,23.457335 56.108,23.128 C56.3506679,22.8853321 56.5283328,22.6426679 56.641,22.4 C56.7536672,22.1573321 56.81,21.8453352 56.81,21.464 C56.81,20.8746637 56.6063354,20.3590022 56.199,19.917 C55.7916646,19.4749978 55.1980039,19.2020005 54.418,19.098 L51.896,18.76 C51.358664,18.6906663 50.8256693,18.5606676 50.297,18.37 C49.7683307,18.1793324 49.3220018,17.8760021 48.958,17.46 C48.4726642,16.8879971 48.23,16.2033373 48.23,15.406 C48.23,14.8859974 48.3296657,14.4136688 48.529,13.989 C48.7283343,13.5643312 49.0013316,13.1960016 49.348,12.884 C49.8160023,12.4506645 50.3576636,12.1386676 50.973,11.948 C51.5883364,11.7573324 52.2339966,11.662 52.91,11.662 C53.6900039,11.662 54.4266632,11.7876654 55.12,12.039 C55.8133368,12.2903346 56.3853311,12.6759974 56.836,13.196 C57.1306681,13.5426684 57.3646658,13.9239979 57.538,14.34 C57.7113342,14.7560021 57.8066666,15.1719979 57.824,15.588 L56.524,15.588 C56.4893332,15.379999 56.4243338,15.1286681 56.329,14.834 C56.2336662,14.5393319 56.082001,14.2706679 55.874,14.028 C55.5793319,13.6813316 55.1806692,13.404001 54.678,13.196 C54.1753308,12.987999 53.5860034,12.884 52.91,12.884 C51.9046616,12.884 51.1246694,13.0833313 50.57,13.482 C49.8939966,13.9673358 49.556,14.5653298 49.556,15.276 C49.556,15.8306694 49.7293316,16.2986648 50.076,16.68 C50.4226684,17.0613352 51.0899951,17.3213326 52.078,17.46 L54.548,17.798 C55.1546697,17.8846671 55.6833311,18.0449988 56.134,18.279 C56.5846689,18.5130012 56.9573319,18.794665 57.252,19.124 C57.5466681,19.453335 57.7676659,19.8129981 57.915,20.203 C58.0623341,20.593002 58.136,20.9873313 58.136,21.386 Z M68.328,24.87 C67.9639982,24.9566671 67.6043351,25.030333 67.249,25.091 C66.8936649,25.151667 66.5340018,25.182 66.17,25.182 C64.9566606,25.182 64.0943359,24.8310035 63.583,24.129 C63.0716641,23.4269965 62.816,22.5126723 62.816,21.386 L62.816,13.196 L60.216,13.196 L60.216,12 L62.816,12 L62.816,8.412 L64.116,8.1 L64.116,12 L68.146,12 L68.146,13.196 L64.116,13.196 L64.116,21.334 C64.116,21.7153352 64.146333,22.0663317 64.207,22.387 C64.267667,22.7076683 64.3803325,22.9849988 64.545,23.219 C64.7096675,23.4530012 64.9306653,23.6349994 65.208,23.765 C65.4853347,23.8950007 65.8406645,23.96 66.274,23.96 C66.6206684,23.96 66.9629983,23.9383336 67.301,23.895 C67.6390017,23.8516665 67.9813316,23.7953337 68.328,23.726 L68.328,24.87 Z M85.878,15.77 C85.878,18.318 85.618,21.074 83.72,23.024 C82.498,24.298 80.652,25 78.546,25 L71.37,25 L71.37,6.566 L78.546,6.566 C80.652,6.566 82.498,7.268 83.72,8.542 C85.618,10.492 85.878,13.222 85.878,15.77 Z M82.472,15.77 C82.472,14.08 82.446,11.922 81.146,10.622 C80.522,9.998 79.612,9.582 78.546,9.582 L74.724,9.582 L74.724,21.984 L78.546,21.984 C79.612,21.984 80.522,21.568 81.146,20.944 C82.446,19.644 82.472,17.46 82.472,15.77 Z M92.456,9.608 L88.972,9.608 L88.972,6.254 L92.456,6.254 L92.456,9.608 Z M92.378,25 L89.076,25 L89.076,11.48 L92.378,11.48 L92.378,25 Z M104.338,14.496 C103.974,14.418 103.584,14.366 103.22,14.366 C100.932,14.366 99.736,16.004 99.736,18.188 L99.736,25 L96.46,25 L96.46,11.48 L99.216,11.48 L99.502,13.508 C100.126,11.948 101.738,11.298 103.324,11.298 C103.662,11.298 104,11.324 104.338,11.376 L104.338,14.496 Z M118.17,18.344 C118.17,18.344 118.144,18.968 118.144,19.254 L109.096,19.254 C109.07,20.294 109.434,21.282 110.084,21.906 C110.552,22.348 111.202,22.738 112.086,22.738 C113.022,22.738 113.594,22.556 114.062,22.088 C114.348,21.802 114.582,21.438 114.712,20.944 L117.832,20.944 C117.754,21.75 117.208,22.816 116.688,23.44 C115.544,24.792 113.854,25.338 112.138,25.338 C110.292,25.338 108.94,24.688 107.874,23.674 C106.522,22.374 105.794,20.476 105.794,18.266 C105.794,16.108 106.444,14.184 107.744,12.858 C108.758,11.818 110.214,11.142 112.06,11.142 C114.062,11.142 115.882,11.948 117,13.638 C117.988,15.12 118.222,16.654 118.17,18.344 Z M114.92,16.888 C114.894,15.874 114.608,15.094 114.088,14.522 C113.646,14.054 112.97,13.742 112.034,13.742 C111.046,13.742 110.24,14.158 109.772,14.782 C109.304,15.38 109.096,16.004 109.07,16.888 L114.92,16.888 Z M132.132,20.216 C132.08,21.282 131.716,22.348 131.092,23.154 C130.156,24.324 128.518,25.286 126.464,25.286 C124.41,25.286 122.694,24.298 121.758,23.154 C120.744,21.88 120.276,20.19 120.276,18.214 C120.276,16.238 120.744,14.548 121.758,13.274 C122.694,12.13 124.41,11.142 126.464,11.142 C128.518,11.142 130.156,12.104 131.092,13.274 C131.716,14.08 132.08,15.146 132.132,16.212 L128.934,16.212 C128.908,15.718 128.752,15.302 128.544,14.964 C128.154,14.366 127.452,13.95 126.464,13.95 C125.58,13.95 124.93,14.314 124.488,14.782 C123.708,15.64 123.578,16.94 123.578,18.214 C123.578,19.488 123.708,20.762 124.488,21.62 C124.93,22.088 125.58,22.478 126.464,22.478 C127.452,22.478 128.154,22.062 128.544,21.464 C128.752,21.126 128.908,20.71 128.934,20.216 L132.132,20.216 Z M142.662,24.818 C141.752,25.052 140.842,25.182 139.88,25.182 C137.15,25.182 135.798,23.622 135.798,21.022 L135.798,14.158 L133.328,14.158 L133.328,11.48 L135.798,11.48 L135.798,8.048 L139.048,7.242 L139.048,11.48 L142.454,11.48 L142.454,14.158 L139.048,14.158 L139.048,20.736 C139.048,21.776 139.516,22.218 140.556,22.218 C141.232,22.218 141.778,22.192 142.662,22.088 L142.662,24.818 Z" id="QuestDirect" fill="#35792A"></path>
            <path d="M158.668,13.548 L157.716,13.548 L157.716,9.068 L156.232,13.408 L155.546,13.408 L154.062,9.082 L154.062,13.548 L153.11,13.548 L153.11,8.074 L154.608,8.074 L155.91,12.022 L157.212,8.074 L158.668,8.074 L158.668,13.548 Z M152.34,8.942 L150.786,8.942 L150.786,13.548 L149.834,13.548 L149.834,8.942 L148.28,8.942 L148.28,8.074 L152.34,8.074 L152.34,8.942 Z" id="™" fill="#35792A"></path>
            <rect id="Rectangle-6" x="0" y="2" width="160" height="30"></rect>
        </g>
    </g>
</svg>