<svg xmlns="http://www.w3.org/2000/svg" xmlns:xlink="http://www.w3.org/1999/xlink" viewBox="0 0 634.49 748.61"><defs><style>.cls-1{fill:url(#linear-gradient);}.cls-2{fill:url(#linear-gradient-2);}.cls-3{fill:url(#linear-gradient-3);}.cls-4{fill:url(#linear-gradient-4);}.cls-5{fill:#007d22;}.cls-6{fill:#c4020b;}</style><linearGradient id="linear-gradient" x1="575.51" y1="253.02" x2="374.08" y2="-10.55" gradientUnits="userSpaceOnUse"><stop offset="0" stop-color="#eb0004"/><stop offset="0.21" stop-color="#e70004"/><stop offset="0.43" stop-color="#db0003"/><stop offset="0.65" stop-color="#c60002"/><stop offset="0.86" stop-color="#aa0001"/><stop offset="1" stop-color="#940000"/></linearGradient><linearGradient id="linear-gradient-2" x1="397.83" y1="140.94" x2="397.83" y2="317.43" gradientUnits="userSpaceOnUse"><stop offset="0" stop-color="#e60004"/><stop offset="0.2" stop-color="#d50003"/><stop offset="0.73" stop-color="#ac0001"/><stop offset="1" stop-color="#9c0000"/></linearGradient><linearGradient id="linear-gradient-3" x1="233.92" y1="140.94" x2="233.92" y2="317.43" xlink:href="#linear-gradient-2"/><linearGradient id="linear-gradient-4" x1="17.32" y1="247.29" x2="325.68" y2="41.23" gradientUnits="userSpaceOnUse"><stop offset="0" stop-color="#eb0004"/><stop offset="0.19" stop-color="#e50004"/><stop offset="0.43" stop-color="#d50003"/><stop offset="0.7" stop-color="#ba0002"/><stop offset="1" stop-color="#940000"/><stop offset="1" stop-color="#940000"/></linearGradient></defs><title>Asset 2</title><g id="Layer_2" data-name="Layer 2"><g id="Layer_1-2" data-name="Layer 1"><path class="cls-1" d="M634.47,251.92c-.57-9.43-2.9-18.55-5.36-27.59a192.43,192.43,0,0,0-10.65-29.47,219,219,0,0,0-17.62-31.4,241.41,241.41,0,0,0-28.66-34.54,271.69,271.69,0,0,0-32.91-28.4,304.09,304.09,0,0,0-32.44-20.76c-9.58-5.3-19.33-10.26-29.37-14.6a372.62,372.62,0,0,0-35.35-13.4c-11.12-3.51-22.38-6.5-33.73-9.13-8.22-1.91-16.48-3.58-24.85-4.74-5.51-.76-11-1.84-16.52-2.37s-11.38-1-17.07-1.46c-6.84-.59-13.65-1.55-20.55-.92,3.7-.06,7.33.76,11,1.26A87.23,87.23,0,0,1,360.9,40c7.93,3.21,15.83,6.41,23.12,11,2.3,1.43,4.6,2.91,6.91,4.32,2.51,1.53,5.42,2.66,7.41,4.84,3.49,3.79,7.86,6.46,11.72,9.77,9.95,8.53,18,18.72,26.3,28.71a96.27,96.27,0,0,1,10,15.11c1.85,3.34,4.44,6.14,6.15,9.58,5.32,10.76,10,21.82,15,32.71,2.69,5.83,4.2,12.12,6,18.28,1.59,5.57,3.49,11.06,4.65,16.78,1,5,1.65,10.08,2.92,15a78.43,78.43,0,0,1,2.14,14.43c.24,3.31.76,6.61,1,9.93.46,6.75,1.91,13.41,1.63,20.22-.12,2.77,0,5.56,0,8.34l.72.27c.17-.31.31-.62.49-.92,5.64-9.18,13.61-15.84,22.87-21.07,15.4-8.71,32.18-12.1,49.64-12.78,3.8-.15,7.6.34,11.39.5a101.64,101.64,0,0,1,27.62,5.29c11.91,3.92,22.66,9.88,31.61,18.83,1.39,1.4,2.38,3.2,4.32,4.54C634.48,252.84,634.5,252.38,634.47,251.92Z"/><path class="cls-2" d="M471.48,229.42c-.83-9.11-1.35-18.25-3.68-27.15-1.42-5.4-2.1-11-3.78-16.33-1.73-5.53-3.69-11-5-16.69a46.53,46.53,0,0,0-4.14-11.35c-3-5.82-5.45-11.87-8.08-17.83a114.88,114.88,0,0,0-10.77-19.27c-1.78-2.56-2.9-5.44-4.74-8-5.11-7-10.76-13.51-16.21-20.21a102,102,0,0,0-15.36-15.11c-5.15-4.13-9.94-8.84-15.81-12-4.7-2.54-8.8-6.11-13.87-8a15.88,15.88,0,0,1-3.57-2.33c-2.4-1.71-4.47-4-7.3-5a23.5,23.5,0,0,1-4.77-2.35c-3.43-2.14-6.75-4.58-10.59-5.91-6.07-2.1-12.24-3.9-18.38-5.82a4.19,4.19,0,0,0-3.33-.08V260.32a85.53,85.53,0,0,1,8.59-10.81c9.32-9.71,20.85-15.75,33.51-19.68a114.51,114.51,0,0,1,41.55-4.89,111.48,111.48,0,0,1,32.74,6.64c12.9,4.89,24.39,11.87,32.85,23.13.44.59.61,1.61,1.93,1.51a69.17,69.17,0,0,0-.16-12.38C472.59,239,471.92,234.23,471.48,229.42Z"/><path class="cls-3" d="M306.69,36c-7.59,1.11-14.07,5-20.73,8.37-5.19,2.66-10.13,5.75-15.22,8.55-6,3.32-12.19,6.38-18.22,9.74-7.87,4.38-14.6,10.17-21.45,15.85-2,1.63-4,3.33-5.89,5.08a115.87,115.87,0,0,0-7.9,8.56c-4.48,5-8.68,10.32-13,15.51-2.37,2.85-4,6.16-5.92,9.3-3.33,5.45-7.26,10.53-10,16.38-1.15,2.48-2.47,4.87-3.75,7.28a158.51,158.51,0,0,0-11.46,27.64c-1.5,4.87-3.17,9.71-4.44,14.64-1,3.91-2.44,7.68-3.19,11.69-1.62,8.64-3.24,17.28-4.55,26-.83,5.51-1.48,11-2,16.58-.52,6.16-.33,12.38-.41,18.57,0,.84-.24,1.8.47,2.58a4.09,4.09,0,0,0,.67-.58c8.92-13.54,21.84-21.66,36.78-26.94A114.8,114.8,0,0,1,245.83,225a107.19,107.19,0,0,1,31.81,7.56c12.07,5,22.74,12,30.54,22.77a.66.66,0,0,0,1.05.23V36.31A3.17,3.17,0,0,0,306.69,36Z"/><path class="cls-4" d="M176.27,129.73c3.14-5.87,6.13-11.81,10-17.23,3-4.14,5-8.89,8.22-12.92,1.78-2.22,3.89-4.12,5.58-6.44a163.07,163.07,0,0,1,11.81-13.66,100.23,100.23,0,0,1,9.76-9.22C228,65,234.13,59.44,241.23,55a187.51,187.51,0,0,1,26.49-13.87c3.39-1.43,6.76-3.09,10.31-3.94,6.83-1.63,13.78-2.76,20.68-4.1a8.91,8.91,0,0,0-2.85-.22c-6.6.61-13.18,1.53-19.79,1.8-9.29.39-18.41,2-27.53,3.48a396.55,396.55,0,0,0-58.48,14.31,364,364,0,0,0-41.45,16.35c-9.69,4.5-19.1,9.62-28.33,15.07a289.74,289.74,0,0,0-48,35.1,240.24,240.24,0,0,0-31.22,33.71,226.14,226.14,0,0,0-25.75,43.11A196,196,0,0,0,1,243.52c-.4,2.45-1.43,5-.68,7.61,1.14-.08,1.51-1,2-1.53a66.78,66.78,0,0,1,20.81-14.87c18.31-8.6,37.58-11.49,57.7-9.81a114.93,114.93,0,0,1,24.85,4.7c10.91,3.41,21,8.42,29.67,16a72.33,72.33,0,0,1,10.29,11.12c.26-10.9,1.09-21.65,2.37-32.38.57-4.71,1.19-9.44,1.87-14.12.91-6.2,2.24-12.39,3.67-18.52a306.47,306.47,0,0,1,10.26-34.38A204.6,204.6,0,0,1,176.27,129.73Z"/><path class="cls-5" d="M309.29,356.16q0-40.07,0-80.11a44.37,44.37,0,0,1,.73-7.46,6,6,0,0,1,2.75-4.35c3.76-2.43,7.83-.94,8.75,3.6a61.77,61.77,0,0,1,1.05,12.45q0,35.22,0,70.45,0,44,0,88a8.48,8.48,0,0,0,1.48,5.37c2.8,3.82,3.54,8.29,3.55,12.87.05,15.74.29,31.48-.09,47.21a62.76,62.76,0,0,1-7.37,27.73c-5,9.51-13.07,15.36-22,20.53-7.15,4.15-14.92,5.7-22.95,5.71-6.17,0-12.64-.56-18.21-3.09-7.08-3.23-14.12-6.93-19.7-12.71-1.75-1.82-2.94-4-4.46-6A51.14,51.14,0,0,1,223,512.47c-.57-3.77-.26-7.26,2.53-10.33,3.32-3.63,7.35-4.36,11.74-3.18,4.21,1.12,6.84,4.21,8,8.35.86,3,1.31,6.06,2.16,9A25.67,25.67,0,0,0,263,533.85a32.27,32.27,0,0,0,11.21,1.95c9.54.3,17.8-2.63,23.82-10.56a22.89,22.89,0,0,0,3.7-7.67,46,46,0,0,0,1.8-12.69q-.06-23.42,0-46.85c0-2.14.05-4.29.16-6.43a9.78,9.78,0,0,1,2.51-6.53c2.36-2.48,3.1-5.38,3.08-8.81-.09-26.7-.05-53.4-.05-80.1Z"/><path class="cls-5" d="M333.05,29.7H298.67C304,19.65,309.85,10.26,315.6,0,321.78,10,327.16,19.73,333.05,29.7Z"/><path class="cls-6" d="M190.3,588.24c-5.82,13.5-11.58,27-17.45,40.4S161.32,655.7,154.71,669c-10-26.9-19.21-53.94-28.32-80.94-3.13-.16-5.83-.41-8.31.1a2.75,2.75,0,0,0-1,2.19c-2.07,28.79-3.91,57.59-6.58,86.33a4.54,4.54,0,0,0,.33,1.23,14.92,14.92,0,0,0,6.4-.09c1-26,3.28-51.85,5.48-77.9,9.94,25.88,18.68,52.15,27.9,78.09h7.57c.39-.74.79-1.36,1.07-2q9.45-22.29,18.88-44.59,6.06-14.29,12.24-28.53c.49-1.12.71-2.63,2.54-3.28.56,13.3-.84,26.27-.51,39.26s-1,25.92-.68,38.87a15.54,15.54,0,0,0,7,.2,5.38,5.38,0,0,0,.48-3.19c-.66-10.54-.53-21.1-.44-31.64.13-16.88.46-33.76.67-50.64,0-1.43.39-3-.66-4.48C196,588,193.17,587.62,190.3,588.24Z"/><path class="cls-6" d="M590.79,632.92c-5.11-14.92-10.18-29.86-15.24-44.68a22.7,22.7,0,0,0-7.71,0c-13.75,28.16-27.4,56.09-41.05,84-14.07.3-27.83.52-41.84.15.65-28.29,2.33-56.08,3.05-83.93a10.56,10.56,0,0,0-6.91.13c-.52,29.7-1.31,59.48-3.23,89.46h53.46L550.85,636h34.47q7.42,21,14,42a15.17,15.17,0,0,0,6.91-.25C601.23,662.63,595.89,647.82,590.79,632.92Zm-36.51-3.23c.64-3.34,2.61-5.86,3.84-8.69s2.65-5.54,4-8.3,2.76-5.76,4.25-8.58c1.41-2.67,2.26-5.69,4.81-8.73l12.05,34.3Z"/><path class="cls-6" d="M262.38,632.27a4.81,4.81,0,0,1-2.36-1.55c.52-.38.88-.7,1.28-.94,9.12-5.48,13-13.65,11.85-24.56-.84-7.74-5.78-14-13-16a48.24,48.24,0,0,0-14.89-1.47c-7,.23-14.07.34-21.1,0a4.31,4.31,0,0,0-3.54.91c-.6,29.44-1.23,59.26-3.21,89.29a24.18,24.18,0,0,0,2.41.27c9.42,0,18.84-.05,28.25-.07a35.45,35.45,0,0,0,6.74-.88c11-2.19,20.71-10.93,19.93-25.79C274.29,642.42,270.36,636,262.38,632.27ZM227.5,593.92c.58-.28.79-.46,1-.46,8.91,0,17.82-.52,26.73.43a13.72,13.72,0,0,1,11.86,13.43c.2,11-5.81,19.77-17.79,20.86-7.32.66-14.74.15-22.11.14-.2,0-.4-.21-.73-.4C226.37,616.64,227,605.32,227.5,593.92Zm41.07,60.54c-1.17,11.32-8.12,16.79-17.88,17.78-8.18.84-16.43.29-24.65.36a7.39,7.39,0,0,1-1.45-.41c.64-12.56.37-25,1.48-37.22a1.68,1.68,0,0,1,1.64-.68c8.57.17,17.14-.4,25.7.51C263.08,635.83,269.61,644.32,268.57,654.46Z"/><path class="cls-6" d="M316.1,635A26,26,0,0,0,329,631.13c9.74-5.89,14.16-16.63,11.74-28.39-1.59-7.71-6.37-12.94-14.28-14.22a54.39,54.39,0,0,0-11.39-.83,188.06,188.06,0,0,1-19.29,0c-1.28-.07-2.63-.28-4.12,1.09-.56,29.47-1.52,59.26-3.12,89.07a16.42,16.42,0,0,0,7.22-.14c.55-28.09,1.08-56.16,2.56-84.35,5.84,0,11.19.07,16.54,0a65.06,65.06,0,0,1,9.26.72,11.59,11.59,0,0,1,10,7.95c3.18,9,0,19.34-7.9,24a28.6,28.6,0,0,1-18.28,3.54c-2.08-.23-4.15-.88-6.79,0,10.83,16.5,22.1,32.24,32.3,48.55a33,33,0,0,0,7-.16c.25-1.9-.89-2.82-1.61-3.87q-12.1-17.73-24.28-35.4c-.67-1-1.74-1.81-1.23-3.27A4.8,4.8,0,0,1,316.1,635Z"/><path class="cls-6" d="M89.51,588.27a3.42,3.42,0,0,0-.69,2.57c0,15-1,30-1.6,45a148.53,148.53,0,0,1-1.47,17.76C84.4,662.19,80,668.48,72,671.48a42.63,42.63,0,0,1-28.09.66c-7.88-2.45-13-8-14.35-16.83a42.59,42.59,0,0,1-.4-6.67c0-12.91,1.29-25.75,1.73-38.64.21-5.94.74-11.87,1-17.81.07-1.31.44-2.74-.66-4a11.72,11.72,0,0,0-5.62,0,2.69,2.69,0,0,0-.67,2c-.47,12-1,24-1.36,36.06-.26,8.43-1.09,16.83-.77,25.28.4,10.29,4.19,18.41,13.26,23.37a36.72,36.72,0,0,0,13.9,4.4c9.74,1,19.28.38,28.25-4.2a23.88,23.88,0,0,0,13.19-17c1.58-7.3,1.9-14.72,2.15-22.15.27-8.05.7-16.1,1.09-24.15.32-6.68.71-13.37,1-20.06.06-1.19.37-2.5-.87-3.71A13.74,13.74,0,0,0,89.51,588.27Z"/><path class="cls-6" d="M401,587.71c-13.35.3-26.69.4-40,0-1.52,0-3.09-.21-4.64,1.08.16,29.65-1.49,59.32-2.89,89.18H403a8.17,8.17,0,0,0,.11-5.67c-14.18.18-28.4.49-42.55,0-.54-6,.57-34.62,1.49-37.39,6.43,0,13,.07,19.51,0s13.27.41,19.83-.18a8.84,8.84,0,0,0,.1-5.48c-13.1-.18-26.26.15-39.78-.19.38-12,.74-23.46,1.12-35.77,14.8.14,29-.48,43.14.61a6.92,6.92,0,0,0,.39-5.6C404.53,587.28,402.7,587.67,401,587.71Z"/><path class="cls-6" d="M427.39,672.35c.46-28.2,2.06-56,3.11-83.8a12.18,12.18,0,0,0-6.82-.25c-.71,15.14-.93,30-1.43,44.87s-1.32,29.84-2,44.91h48a6.57,6.57,0,0,0,.29-5.73C454.85,672.36,441.21,672.83,427.39,672.35Z"/><path class="cls-6" d="M126.69,709.88c-.62-.89-2-.45-2.13-1.78,2.42-1.34,8.54-1.36,11,0,0,1.57-1.76.86-2.53,2.25v9c0,6.65,0,13.29,0,19.94,0,4.29,1.23,5.54,5.42,5.66,1.85.06,3.71,0,5.57,0,3.63-.06,4.92-1.22,5.64-5,.18-.9-.05-1.92.61-2.73,1.74,1.31,2,3.67,1.19,10.35-6,.89-12.06.27-18.13.39s-12,0-18.43,0c.93-3-.11-5.23-1.08-7.52-1.13-2.64-2.17-5.33-3.08-8.07a3.23,3.23,0,0,0-3.65-2.54c-2.3.12-4.61,0-7.23,0C98,735.71,94.72,741,94.1,747.51c-2.88.72-29.78.63-32.33-.22a1.06,1.06,0,0,1,.71-1.41c1.37-.52,1.55-1.66,1.55-2.92,0-10.15-.05-20.31,0-30.46a3.83,3.83,0,0,0-2.53-3.91c.07-1.32.82-1.39,1.51-1.39q11,0,21.93,0a5.56,5.56,0,0,1,1.2.34,12.55,12.55,0,0,1-.06,6.12c-1.34.36-1.54-.46-1.75-1.33-.44-1.85-1.65-2.44-3.39-2.34-3.56.2-7.14-.26-10.93.32v15.54c4.67-.06,9.21,1,13.85-.86.75,1.45.39,3,.32,4.72-4.73-1.51-9.36-.71-13.9-.82-1,4.81-.68,12,.51,15.34,1.09.92,2.41.57,3.66.61,1.62.06,3.25,0,4.87,0,5.41,0,5.41,0,8.32-3.63,1.68.83.08,3.11,1.76,4.09,1.81-.46,2.07-2.32,2.63-3.78,3-7.72,5.88-15.49,8.81-23.23,1.24-3.26,2.48-6.52,3.77-9.75.29-.75.43-1.67,1.53-2.06,1.48.22,1.58,1.78,2,2.9,3.16,8,6.26,16.11,9.38,24.17,1.21,3.14,2.33,6.31,3.65,9.4,1.24,2.89,1.9,3.11,5.48,2.35Zm-22,7.52a56.24,56.24,0,0,0-3.57,9.5,13.37,13.37,0,0,0,7.1-.08C107.64,723.55,106.32,720.82,104.68,717.4Z"/><path class="cls-6" d="M541.67,707.77c2.91-1,5.55-.65,8.51-.31l12.2,29.26c1.47-.69,1.72-1.91,2.16-3q4.77-11.46,9.51-22.93c1.57-3.8,1.55-3.82,5.66-3.67a16,16,0,0,1,2.38.32c.16,0,.26.36.55.79-3.57,1.53-2.75,4.69-2.39,7.55,1.12,8.85,2.35,17.69,3.56,26.52.24,1.8.69,3.51,2.61,4.64-3.29,1.32-6.31,1-10.21.61,2.27-2.38,1.86-4.53,1.51-6.8-.9-5.83-1.6-11.7-2.36-17.56a7.14,7.14,0,0,0-1-3.57c-1.13.42-1.26,1.6-1.63,2.49-3.2,7.63-6.33,15.29-9.54,22.92-.39.93-.46,2.2-2.25,2.69-1.84-2.68-2.74-6-4.12-9.12s-2.58-6.2-3.88-9.3-2.69-6.33-4-9.43c-1.41.24-1.36,1.18-1.46,2-.92,6.92-1.78,13.84-2.76,20.74a4.69,4.69,0,0,0,1.14,4.07,1.29,1.29,0,0,1-1.36,1.18q-15.13,0-30.28,0a5.07,5.07,0,0,1-1.27-.34c0-.34-.16-.73-.08-.78,2.14-1.32,2.46-3.32,2.43-5.75-.12-9.06,0-18.12-.05-27.19,0-2.26.37-4.78-2.62-5.14.07-1.22.63-1.44,1.21-1.44,7.75,0,15.51,0,23.37,0a10.44,10.44,0,0,1,0,6.65c-2.17-.49-1.38-2.81-2.78-3.61H521.19c-.29,5.14-.09,10.23-.11,15.78,5-.19,9.57.57,14.14-.76.67,1.44.32,2.83.23,4.47-4.76-1.51-9.33-.64-14.36-.93,0,4.81-.28,9.23.24,13.65a2.51,2.51,0,0,0,2.89,2.43c3.36,0,6.73,0,10.09,0,1.82,0,3.22-.43,3.49-2.62.08-.7.52-1,1.52-.86,1.06.92-.11,2.89,1.24,4.29,1.61-3.29,1.48-6.68,2-9.88,1-5.82,1.65-11.69,2.44-17.54.19-1.44.35-2.87.5-4.31.25-2.43-.31-4.32-2.93-4.94C542.33,709,542.19,708.53,541.67,707.77Z"/><path class="cls-6" d="M356.17,744.38c.39,1.07-.4,1.5-1.07,2-4.52,3-11.29,3.1-15.12-1.91-3-3.88-5.73-7.88-8.3-12-2.25-3.67-2.33-3.7-7.08-2.59,0,4.72.07,9.53,0,14.32,0,1.68,2.11,1.49,2.05,3-2.32,1-16.87,1.23-21.42.33.81-2.14.11-4.07-.72-6.05-1.57-3.73-3-7.54-4.47-11.32a51.14,51.14,0,0,0-9.48-.1c-3,4.81-6.23,14.48-5.74,17.56-2.12.67-4.19.4-7.18,0,5.21-3.91,5.8-9.52,7.75-14.37,3.28-8.12,6.27-16.36,9.41-24.55.28-.74.46-1.64,1.38-2,1.56,0,1.65,1.42,2.06,2.45q6.23,15.93,12.4,31.88.31.84.66,1.68c1.6,3.79,3.08,4.38,7,2.64v-35.4c-.1-.86-2-.31-1.94-1.9.44-1.07,1.5-.75,2.36-.76,4.4,0,8.81,0,13.22,0h.35c3.67.3,7,1.58,8.49,5.29A10.84,10.84,0,0,1,339,723.72a24.84,24.84,0,0,1-3,2.86,4,4,0,0,0,.91,3.17,100.94,100.94,0,0,0,8.37,12c2.5,3,5.4,4,9,2.47C354.92,744,355.57,743.61,356.17,744.38Zm-31.44-18.19c4.76,1,8.73-.15,10.21-3.07,1.71-3.4,1.18-6.79-.83-9.92s-4.79-3.82-9.38-2.65ZM295,717.37a38.24,38.24,0,0,0-3.62,9.44,12.63,12.63,0,0,0,7.08.09C297.91,723.65,296.52,720.94,295,717.37Z"/><path class="cls-6" d="M221.47,747.1a22.34,22.34,0,0,1-10.75.23c3.24-1.94,2.48-5,2.49-7.7,0-3.6,0-7.21,0-11.06H194.45V745c.37,1,1.81.73,1.94,2-.32,1.28-6.88,1.48-10.66,0,2.7-1.52,2.45-4,2.44-6.48,0-8.94,0-17.88,0-26.82V710l-3.07-1.77c-1.23.93-.9,3-2.39,3.74-2.48-2.22-5.06-2.6-10.65-1.59-.71.81-.48,1.81-.48,2.75q0,14.15,0,28.27c0,2.17-.42,4.57,2.92,4.89-2.17,1.93-8.25,2.14-11.69.59,3.76-1.5,3-4.7,3-7.56q0-12.51,0-25c0-1.29.31-2.65-.56-4.07-2.63-.45-5.39-.17-8.15-.23-1.35,0-1.3,1.56-2.58,2.09-1.44-1.66-1.87-3.72-2.62-6.69,3.67,2.34,6.9,1.66,10,1.7,5.92.06,11.83,0,17.75,0,1.6,0,3.32.4,4.41-1.69a4,4,0,0,0,3.92,1.76c2.2-.08,4.41,0,6.61,0,.77,0,1.68-.19,2,.87-.1,1.45-1.86.87-2.3,2.36v14.4c2.48.92,12.85,1.17,18.36.48.94-1.12.48-2.51.52-3.79.07-2.29,0-4.59,0-6.88s.54-5.09-2.45-6.47c2.77-1.31,7.57-1.38,10.94-.15-3.13,1.81-2.36,4.76-2.37,7.46,0,8.82,0,17.64,0,26.46C219.3,743.93,219.31,745.8,221.47,747.1Z"/><path class="cls-6" d="M58.57,707.93c-2.22,1.34-2.38,3.23-2.37,5.32,0,9.55,0,19.09,0,28.63,0,2,0,4.1,2.62,5.17a26.87,26.87,0,0,1-10.64.66c-.47-1.37.25-1.65.87-1.94a2,2,0,0,0,1.14-2c0-4.94,0-9.88,0-14.72-2.73-.87-15-1-18.87-.15,0,5,0,10.21,0,15.36,0,1.64,1.8,1.4,2.1,2.6-1.9,1.48-7.86,1.61-10.52.23,0-1.42,1.75-1,2.21-2.23v-34.2c-.34-1.67-2.14-1-2.33-2.36.24-1.39,7-1.66,10.64-.41.34,1.65-1.61,1.11-2,2.67v14.86H50V710.23c-.38-1.24-2.12-.74-2.23-2.64A25.35,25.35,0,0,1,58.57,707.93Z"/><path class="cls-6" d="M384.35,747.42c-5.2,1-24.42.7-27.11-.53,3.56-1.48,2.78-4.54,2.79-7.29,0-7.61.05-15.23,0-22.84,0-3.15,1-6.7-2.84-8.69,2.71-1.07,20.29-1.31,24.93-.45a11.53,11.53,0,0,1-.16,6.13c-2.08-.35-1.57-2.46-3.28-3.55-1.51-.39-3.73-.11-5.91-.13a27.41,27.41,0,0,0-6.21.22c-1,2.51-1.14,11.25-.26,15.63,4.47,0,9,.74,13.63-.75a5.3,5.3,0,0,1,0,4.41c-4.56-1.25-9-.51-14-.74-.12,4.78-.45,9.3.21,13.83a2.25,2.25,0,0,0,2.34,2.19c3.83,0,7.66,0,11.49,0a2.36,2.36,0,0,0,2.5-2c.16-.7.23-1.48,1.44-1.55C385.08,743.13,384.43,745.21,384.35,747.42Z"/><path class="cls-6" d="M278.26,740.94c-.11,3.37-1.64,5.4-4.2,6.08a45,45,0,0,1-16.2,1.37c-6.49-.66-12.1-3-15.68-9.23-6.48-11.18-1.1-26.69,10.8-31.09a24.09,24.09,0,0,1,18.31.42c2.63,1.1,3.25,2.41,2.87,5.92-1.41.33-2-.94-2.93-1.6-5.7-4.16-11.78-4.77-18.11-1.9s-9.64,9.89-8.24,17c1.55,7.88,4.82,14.62,12.76,17,6.43,1.93,12.86,1.31,18.6-2.86.47-.34.91-.73,1.38-1.07C277.69,740.89,277.84,740.94,278.26,740.94Z"/><path class="cls-6" d="M400.65,747.79c-1.3-4.87-1-11,.67-12.74,1.05,1.17.85,2.73,1.08,4a6.44,6.44,0,0,0,5.59,5.64,17.91,17.91,0,0,0,6.92-.05,7.3,7.3,0,0,0,5.7-6.09c.36-2.68-.94-5.05-4-6.53s-6.07-2.41-9-3.84a11.23,11.23,0,0,1-5.51-14.58,11,11,0,0,1,9.71-7.12,15.41,15.41,0,0,1,5.51.55c3.37.91,4.51,2.62,4.26,6.86-1.63,0-2.25-1.55-3.31-2.39-3.71-2.92-8.56-2.9-11.44.14-3.3,3.48-2.7,8,1.53,10.11a90.39,90.39,0,0,0,8.44,3.36,12.44,12.44,0,0,1,4.06,2.72c3.56,3.31,4.07,7.52,2.84,11.93s-4.18,7.18-8.69,7.75A80.4,80.4,0,0,1,400.65,747.79Z"/><path class="cls-6" d="M455.68,747.79c-1.24-4.81-.9-11,.69-12.75.94,1.21,1,2.68,1.14,4.05a5.75,5.75,0,0,0,4.22,5.19,14.71,14.71,0,0,0,9.54-.07,6.68,6.68,0,0,0,4.42-6c.3-2.9-1.41-4.68-3.66-6-2.53-1.52-5.39-2.17-8.06-3.34s-4.94-2.67-6.31-5.39a11.55,11.55,0,0,1,8.81-16.94,18.57,18.57,0,0,1,7.22.8c2.05.59,3.15,3.19,2.92,6.55-1.53.14-2.08-1.34-3-2.08-2.77-2.18-5.7-3.12-9.1-1.84a7,7,0,0,0-4.67,6.13A5.89,5.89,0,0,0,463.7,722c2.87,1.28,5.9,2.19,8.74,3.54a11.88,11.88,0,0,1,2.38,20.15,6,6,0,0,1-2.07,1.27C467.06,748.43,461.31,747.93,455.68,747.79Z"/><path class="cls-6" d="M588.05,747.79c-1.24-4.81-.9-11,.69-12.75.94,1.21,1,2.68,1.14,4.05a5.75,5.75,0,0,0,4.22,5.19,14.71,14.71,0,0,0,9.54-.07,6.68,6.68,0,0,0,4.42-6c.29-2.9-1.41-4.68-3.66-6-2.53-1.52-5.4-2.17-8.06-3.34s-4.94-2.67-6.31-5.39a11.55,11.55,0,0,1,8.81-16.94,18.57,18.57,0,0,1,7.22.8c2.05.59,3.15,3.19,2.92,6.55-1.54.14-2.08-1.34-3-2.08-2.77-2.18-5.7-3.12-9.1-1.84a7,7,0,0,0-4.67,6.13,5.89,5.89,0,0,0,3.88,5.86c2.88,1.28,5.91,2.19,8.75,3.54a11.87,11.87,0,0,1,2.37,20.15,5.88,5.88,0,0,1-2.06,1.27C599.43,748.43,593.68,747.93,588.05,747.79Z"/><path class="cls-6" d="M498.81,744.89c.6,1.17,2.27.72,2.27,2.22-2.46,1.1-8.05,1.16-10.93.13-.26-1.76,1.81-1.2,2.2-2.44V710.45c-2.82-.82-5.59-.24-8.32-.42-1.47-.1-1.18,1.64-2.38,2.1-1.83-1.42-2.16-3.54-2.43-5.8,9.64,1.71,19.16.42,28.64.85,1.35.06,2.38-.69,3.54-1.52,1.17,2.88-.73,4.45-1.63,6.82-3.07-4.21-7-1.78-10.41-2.5C498.49,712.91,498.19,734.78,498.81,744.89Z"/><path class="cls-6" d="M445.36,747c-4,1.22-7.55.92-11.06.81-.3-2.28,1.71-1.7,2.42-3.39,0-5,0-10.68,0-16.33a6.69,6.69,0,0,0-1.32-3.3c-2.3-4-4.69-8-6.93-12.12a17.2,17.2,0,0,0-4.23-4.73c3.36-1.07,6.67-.73,10.38-.62-1.06,2.47-.18,4.21.9,5.94,1.72,2.79,3.38,5.63,5.42,9,2.67-4.27,5-8,7.31-11.66.64-1-.59-2.1.09-3.1,4-.69,4.47-.64,6.63.83-4.1,2.37-5.41,7-8.18,10.43a19.08,19.08,0,0,0-4.28,14.69,73.85,73.85,0,0,1,.05,7.59C442.56,743.36,442,745.9,445.36,747Z"/></g></g></svg>