<svg width="100%" height="100%" viewBox="0 0 500 200" xmlns="http://www.w3.org/2000/svg">
  <!-- Define Colors from the Root Variables -->
  <defs>
    <linearGradient id="grad1" x1="0%" y1="0%" x2="100%" y2="100%">
      <stop offset="0%" style="stop-color: #2964bc; stop-opacity: 1" />
      <stop offset="100%" style="stop-color: #35B518; stop-opacity: 1" />
    </linearGradient>
  </defs>
  
  <!-- Gradient Background -->
  <rect width="100%" height="100%" fill="url(#grad1)" />

  <!-- Medical Cross -->
  <rect x="50" y="40" width="50" height="50" fill="#C80919"/>
  <rect x="65" y="25" width="50" height="50" fill="#C80919"/>
  
  <!-- Medical Kit -->
  <rect x="120" y="30" width="60" height="40" rx="5" fill="#082755" />
  <rect x="135" y="40" width="30" height="10" fill="#35B518" />
  <rect x="140" y="45" width="20" height="20" fill="#fff" />

  <!-- Pills -->
  <circle cx="200" cy="120" r="15" fill="#fff" />
  <circle cx="215" cy="120" r="7" fill="#2964bc" />
  <circle cx="205" cy="120" r="7" fill="#C80919" />

  <!-- Stethoscope -->
  <path d="M250,120 Q270,130 290,120 Q310,110 310,140 Q310,160 290,160 Q270,160 250,140 Q230,130 250,120 Z" fill="none" stroke="#35B518" stroke-width="5"/>
  <path d="M250,140 Q240,170 220,170 Q200,170 200,160 Q200,150 220,150 Q230,150 250,140 Z" fill="#35B518"/>

  <!-- Syringe -->
  <rect x="320" y="40" width="10" height="60" fill="#082755" />
  <rect x="325" y="40" width="5" height="10" fill="#C80919" />
  <circle cx="330" cy="100" r="7" fill="#35B518" />
  
  <!-- Additional Pill -->
  <circle cx="400" cy="60" r="12" fill="#2964bc" />
  <circle cx="400" cy="60" r="6" fill="#C80919" />

</svg>
