<svg width="27" height="25" viewBox="0 0 27 25" fill="none" xmlns="http://www.w3.org/2000/svg">
<path d="M25.3247 8.21032C25.6219 8.21032 25.8614 8.32867 26.0431 8.56537C26.2248 8.80207 26.2991 9.07259 26.2661 9.37692L23.8878 23.8834C23.7887 24.4244 23.4749 24.6949 22.9463 24.6949H4.21712C3.68861 24.6949 3.3748 24.4244 3.27571 23.8834L0.897393 9.37692C0.864361 9.07259 0.938683 8.80207 1.12036 8.56537C1.30204 8.32867 1.54152 8.21032 1.83881 8.21032H4.21712L9.37014 1.05852C9.5353 0.821819 9.75 0.686562 10.0143 0.652746C10.2785 0.618933 10.5097 0.678108 10.7079 0.830275C10.9061 0.982439 11.03 1.19378 11.0795 1.4643C11.1291 1.73482 11.0713 1.97152 10.9061 2.1744L6.54589 8.21032H20.3203L16.0096 2.1744C15.8444 1.97152 15.7866 1.73482 15.8362 1.4643C15.8857 1.19378 16.0096 0.982439 16.2078 0.830275C16.406 0.678108 16.6372 0.618933 16.9015 0.652746C17.1657 0.686562 17.3804 0.821819 17.5456 1.05852L22.6986 8.21032H25.3247ZM22.1536 22.7675L24.185 10.1885H2.97842L5.00989 22.7675H22.1536ZM12.9128 12.6992C12.9128 12.6992 12.9583 12.6527 13.0491 12.5597C13.1399 12.4667 13.3175 12.4202 13.5817 12.4202C13.846 12.4202 14.069 12.5132 14.2506 12.6992C14.4323 12.8852 14.5231 13.1134 14.5231 13.384V19.7749C14.5231 19.944 14.4819 20.1046 14.3993 20.2568C14.3167 20.4089 14.2011 20.5273 14.0524 20.6118C13.9038 20.6964 13.7469 20.7386 13.5817 20.7386C13.3175 20.7386 13.0945 20.6456 12.9128 20.4597C12.7312 20.2737 12.6403 20.0454 12.6403 19.7749V13.384C12.6403 13.1134 12.7312 12.8852 12.9128 12.6992ZM17.8181 12.6992C17.8181 12.6992 17.8635 12.6527 17.9544 12.5597C18.0452 12.4667 18.2227 12.4202 18.487 12.4202C18.7513 12.4202 18.9742 12.5132 19.1559 12.6992C19.3376 12.8852 19.4284 13.1134 19.4284 13.384V19.7749C19.4284 20.0454 19.3376 20.2737 19.1559 20.4597C18.9742 20.6456 18.7513 20.7386 18.487 20.7386C18.2227 20.7386 17.9998 20.6456 17.8181 20.4597C17.6364 20.2737 17.5456 20.0454 17.5456 19.7749V13.384C17.5456 13.1134 17.6364 12.8852 17.8181 12.6992ZM8.67646 12.4202C8.80859 12.4202 8.93246 12.4456 9.04807 12.4963C9.16368 12.547 9.26278 12.6147 9.34536 12.6992C9.42794 12.7837 9.49401 12.8852 9.54355 13.0035C9.5931 13.1219 9.61788 13.2487 9.61788 13.384V19.7749C9.61788 20.0454 9.52704 20.2737 9.34536 20.4597C9.16368 20.6456 8.94072 20.7386 8.67646 20.7386C8.4122 20.7386 8.18924 20.6456 8.00756 20.4597C7.82588 20.2737 7.73504 20.0454 7.73504 19.7749V13.384C7.73504 13.1134 7.82588 12.8852 8.00756 12.6992C8.18924 12.5132 8.4122 12.4202 8.67646 12.4202Z" fill="#1C1C1C"/>
</svg>
