<svg width="207" height="412" viewBox="0 0 207 412" fill="none" xmlns="http://www.w3.org/2000/svg">
<path d="M99.0116 0.602295H92.8625V232.121H99.0116V0.602295Z" fill="#0333DE"/>
<path d="M119.591 240.36L94.1257 227.824C85.9621 223.805 76.095 227.182 72.0868 235.368L53.0836 274.175C49.0754 282.361 52.4441 292.254 60.6077 296.273L86.073 308.809C94.2367 312.828 104.104 309.45 108.112 301.265L127.115 262.457C131.123 254.272 127.755 244.378 119.591 240.36Z" fill="#0333DE"/>
<path d="M79.3669 278.129C81.4384 273.9 85.0316 270.566 90.1465 268.129C91.257 267.645 92.3911 267.217 93.5444 266.846C94.9479 266.386 96.3207 265.836 97.6547 265.201C99.0108 264.5 100.114 263.282 100.964 261.548C102.093 259.24 102.382 257.159 101.831 255.305C101.279 253.45 99.9513 252.004 97.8469 250.965C96.0222 250.068 94.217 250.015 92.4313 250.808C90.6456 251.6 89.1513 253.167 87.9484 255.507L78.5209 250.866C80.9955 245.937 84.5106 242.683 89.0662 241.104C93.6218 239.525 98.2257 239.88 102.878 242.17C107.579 244.486 110.735 247.889 112.345 252.382C113.956 256.874 113.644 261.406 111.408 265.977C110.983 266.861 110.492 267.712 109.939 268.521C109.45 269.234 108.876 269.884 108.23 270.457C107.606 271.014 107.059 271.461 106.59 271.799C105.979 272.213 105.319 272.55 104.626 272.802C103.78 273.131 103.171 273.371 102.803 273.507C102.435 273.644 101.73 273.874 100.694 274.17C99.6583 274.466 98.9928 274.661 98.7092 274.76C96.1799 275.543 94.1014 276.505 92.4735 277.645C90.8456 278.785 89.4771 280.425 88.3679 282.565L79.3669 278.129ZM72.5125 292.126L77.2461 282.457L86.2424 286.886L81.5087 296.555L72.5125 292.126Z" fill="white"/>
<path d="M177.069 0.602295H170.92V289.506H177.069V0.602295Z" fill="#0333DE"/>
<path d="M165.852 284.953L139.693 294.064C131.054 297.073 126.483 306.535 129.484 315.197L143.372 355.284C146.373 363.947 155.81 368.53 164.45 365.521L190.608 356.41C199.248 353.401 203.819 343.939 200.817 335.277L186.929 295.19C183.928 286.527 174.491 281.944 165.852 284.953Z" fill="#0333DE"/>
<path d="M164.73 337.233C163.215 332.847 163.385 328.006 165.241 322.71C165.436 322.139 165.924 321.042 166.706 319.421C167.359 318.116 167.928 316.77 168.409 315.391C168.861 313.949 168.776 312.328 168.156 310.53C167.33 308.13 166.08 306.481 164.407 305.582C162.733 304.683 160.799 304.613 158.602 305.373C156.709 306.027 155.417 307.258 154.728 309.064C154.039 310.87 154.093 313.005 154.89 315.469L145.099 318.864C143.381 313.695 143.549 308.967 145.603 304.68C147.658 300.392 151.104 297.408 155.942 295.725C160.824 294.03 165.394 294.179 169.651 296.172C173.908 298.164 176.856 301.532 178.493 306.275C178.815 307.188 179.068 308.124 179.25 309.076C179.408 309.913 179.463 310.767 179.416 311.618C179.367 312.447 179.299 313.141 179.215 313.702C179.08 314.419 178.856 315.116 178.549 315.777L177.783 317.553C177.627 317.915 177.292 318.563 176.78 319.496C176.267 320.43 175.945 321.031 175.812 321.301C174.603 323.621 173.83 325.748 173.494 327.682C173.158 329.617 173.354 331.717 174.08 333.982L164.73 337.233ZM169.745 351.77L166.281 341.731L175.622 338.49L179.088 348.53L169.745 351.77Z" fill="white"/>
<path d="M24.1393 0.602295H17.9902V335.239H24.1393V0.602295Z" fill="#0333DE"/>
<path d="M54.8581 334.022L26.7467 330.196C17.7349 328.969 9.43768 335.3 8.21442 344.336L2.41477 387.176C1.19151 396.212 7.50542 404.531 16.5173 405.757L44.6286 409.583C53.6405 410.81 61.9377 404.479 63.1609 395.443L68.9606 352.603C70.1838 343.567 63.8699 335.248 54.8581 334.022Z" fill="#0333DE"/>
<path d="M28.564 382.372C29.1889 377.7 31.5518 373.398 35.6528 369.466C36.5511 368.655 37.4896 367.889 38.4648 367.173C39.6519 366.291 40.7814 365.333 41.8464 364.306C42.9134 363.21 43.5758 361.705 43.8336 359.793C44.1804 357.242 43.8 355.176 42.6923 353.592C41.5847 352.008 39.8662 351.058 37.5369 350.742C35.5231 350.466 33.7937 350.988 32.3486 352.307C30.9035 353.626 29.9779 355.584 29.5717 358.181L19.167 356.771C19.9591 351.31 22.2665 347.109 26.0894 344.168C29.9122 341.226 34.3928 340.106 39.5311 340.808C44.7209 341.513 48.7875 343.742 51.7308 347.497C54.6741 351.252 55.8044 355.651 55.1217 360.695C54.9949 361.668 54.7968 362.631 54.5288 363.575C54.2895 364.405 53.9503 365.203 53.5188 365.951C53.0947 366.679 52.7197 367.276 52.387 367.744C51.9374 368.33 51.4171 368.859 50.838 369.318L49.3335 370.573C49.0211 370.829 48.4227 371.262 47.5385 371.87C46.6542 372.477 46.0887 372.874 45.8418 373.059C43.6906 374.605 42.0213 376.176 40.834 377.772C39.6467 379.368 38.8656 381.357 38.4906 383.737L28.564 382.372ZM26.4713 397.823L27.9172 387.151L37.8462 388.502L36.4003 399.174L26.4713 397.823Z" fill="white"/>
</svg>
