<svg xmlns="http://www.w3.org/2000/svg" version="1.1" xmlns:xlink="http://www.w3.org/1999/xlink" xmlns:svgjs="http://svgjs.dev/svgjs" width="1440" height="560" preserveAspectRatio="none" viewBox="0 0 1440 560"><g mask="url(&quot;#SvgjsMask1008&quot;)" fill="none"><path d="M271.97 395.95L271.97 399.67L305.02 399.67L305.02 395.95zM298.42 397.81 a6.6 6.6 0 1 0 13.2 0 a6.6 6.6 0 1 0 -13.2 0zM267.27 423.32L265.84 426.77L287.84 435.88L289.27 432.43zM281.95 434.16 a6.6 6.6 0 1 0 13.2 0 a6.6 6.6 0 1 0 -13.2 0zM252.45 446.82L249.81 449.45L271.12 470.76L273.75 468.12zM265.83 469.44 a6.6 6.6 0 1 0 13.2 0 a6.6 6.6 0 1 0 -13.2 0zM229.76 462.85L226.32 464.27L236.86 489.72L240.3 488.29zM231.98 489 a6.6 6.6 0 1 0 13.2 0 a6.6 6.6 0 1 0 -13.2 0zM202.67 468.98L198.94 468.98L198.94 500.69L202.67 500.69zM194.21 500.69 a6.6 6.6 0 1 0 13.2 0 a6.6 6.6 0 1 0 -13.2 0zM175.29 464.27L171.85 462.85L166.81 475.01L170.26 476.43zM161.93 475.72 a6.6 6.6 0 1 0 13.2 0 a6.6 6.6 0 1 0 -13.2 0zM151.8 449.45L149.16 446.82L130.62 465.36L133.26 467.99zM125.34 466.67 a6.6 6.6 0 1 0 13.2 0 a6.6 6.6 0 1 0 -13.2 0zM135.77 426.77L134.34 423.32L120.73 428.96L122.16 432.4zM114.84 430.68 a6.6 6.6 0 1 0 13.2 0 a6.6 6.6 0 1 0 -13.2 0zM129.64 399.67L129.64 395.95L116.27 395.95L116.27 399.67zM109.67 397.81 a6.6 6.6 0 1 0 13.2 0 a6.6 6.6 0 1 0 -13.2 0zM134.34 372.3L135.77 368.85L113 359.42L111.58 362.87zM105.69 361.14 a6.6 6.6 0 1 0 13.2 0 a6.6 6.6 0 1 0 -13.2 0zM149.16 348.8L151.8 346.17L133.82 328.19L131.18 330.82zM125.9 329.5 a6.6 6.6 0 1 0 13.2 0 a6.6 6.6 0 1 0 -13.2 0zM171.85 332.77L175.29 331.34L162.67 300.87L159.22 302.29zM154.35 301.58 a6.6 6.6 0 1 0 13.2 0 a6.6 6.6 0 1 0 -13.2 0zM198.94 326.64L202.67 326.64L202.67 305.57L198.94 305.57zM194.21 305.57 a6.6 6.6 0 1 0 13.2 0 a6.6 6.6 0 1 0 -13.2 0zM226.32 331.34L229.76 332.77L234.4 321.57L230.96 320.15zM226.08 320.86 a6.6 6.6 0 1 0 13.2 0 a6.6 6.6 0 1 0 -13.2 0zM249.81 346.17L252.45 348.8L271.25 330L268.61 327.37zM263.33 328.68 a6.6 6.6 0 1 0 13.2 0 a6.6 6.6 0 1 0 -13.2 0zM265.84 368.85L267.27 372.3L298.77 359.25L297.35 355.8zM291.46 357.52 a6.6 6.6 0 1 0 13.2 0 a6.6 6.6 0 1 0 -13.2 0zM129.62 397.81 a71.19 71.19 0 1 0 142.38 0 a71.19 71.19 0 1 0 -142.38 0z" fill="rgba(195, 195, 195, 1)"></path><path d="M149.13 446.78 A70.1936 70.1936 0 0 1 184.09 328.61M184.09 328.61 A142.3872 142.3872 0 0 0 149.13 446.78" fill="#9c9c9c" fill-rule="nonzero"></path><path d="M174.84 393.89 a14.24 14.24 0 1 0 28.48 0 a14.24 14.24 0 1 0 -28.48 0zM216.2 404.08 a3.56 3.56 0 1 0 7.12 0 a3.56 3.56 0 1 0 -7.12 0zM141.36 362.98 a12.81 12.81 0 1 0 25.62 0 a12.81 12.81 0 1 0 -25.62 0zM213.45 377.31 a3.56 3.56 0 1 0 7.12 0 a3.56 3.56 0 1 0 -7.12 0zM225.19 459.95 a2.85 2.85 0 1 0 5.7 0 a2.85 2.85 0 1 0 -5.7 0zM153.19 445.01 a12.1 12.1 0 1 0 24.2 0 a12.1 12.1 0 1 0 -24.2 0zM233 423.61 a14.24 14.24 0 1 0 28.48 0 a14.24 14.24 0 1 0 -28.48 0zM233.67 368.04 a9.97 9.97 0 1 0 19.94 0 a9.97 9.97 0 1 0 -19.94 0zM178.62 347.3 a11.39 11.39 0 1 0 22.78 0 a11.39 11.39 0 1 0 -22.78 0zM205.86 443.57 a5.7 5.7 0 1 0 11.4 0 a5.7 5.7 0 1 0 -11.4 0z" fill="#9c9c9c" fill-rule="nonzero"></path><path d="M822.91 306.5L822.91 310.23L834.37 310.23L834.37 306.5zM827.77 308.36 a6.6 6.6 0 1 0 13.2 0 a6.6 6.6 0 1 0 -13.2 0zM818.21 333.88L816.78 337.32L827.91 341.93L829.33 338.49zM822.02 340.21 a6.6 6.6 0 1 0 13.2 0 a6.6 6.6 0 1 0 -13.2 0zM803.39 357.37L800.75 360.01L810.12 369.38L812.75 366.74zM804.84 368.06 a6.6 6.6 0 1 0 13.2 0 a6.6 6.6 0 1 0 -13.2 0zM780.7 373.4L777.26 374.83L787.9 400.52L791.34 399.1zM783.02 399.81 a6.6 6.6 0 1 0 13.2 0 a6.6 6.6 0 1 0 -13.2 0zM753.61 379.53L749.88 379.53L749.88 391.77L753.61 391.77zM745.14 391.77 a6.6 6.6 0 1 0 13.2 0 a6.6 6.6 0 1 0 -13.2 0zM726.23 374.83L722.79 373.4L716.54 388.47L719.99 389.9zM711.67 389.18 a6.6 6.6 0 1 0 13.2 0 a6.6 6.6 0 1 0 -13.2 0zM702.74 360.01L700.1 357.37L680.02 377.45L682.66 380.09zM674.74 378.77 a6.6 6.6 0 1 0 13.2 0 a6.6 6.6 0 1 0 -13.2 0zM686.7 337.32L685.28 333.88L676.19 337.64L677.61 341.09zM670.3 339.36 a6.6 6.6 0 1 0 13.2 0 a6.6 6.6 0 1 0 -13.2 0zM680.57 310.23L680.57 306.5L657.97 306.5L657.97 310.23zM651.37 308.36 a6.6 6.6 0 1 0 13.2 0 a6.6 6.6 0 1 0 -13.2 0zM685.28 282.85L686.7 279.41L674.65 274.41L673.22 277.86zM667.34 276.13 a6.6 6.6 0 1 0 13.2 0 a6.6 6.6 0 1 0 -13.2 0zM700.1 259.36L702.74 256.72L688.57 242.56L685.94 245.19zM680.66 243.88 a6.6 6.6 0 1 0 13.2 0 a6.6 6.6 0 1 0 -13.2 0zM722.79 243.33L726.23 241.9L719.61 225.91L716.16 227.33zM711.28 226.62 a6.6 6.6 0 1 0 13.2 0 a6.6 6.6 0 1 0 -13.2 0zM749.88 237.19L753.61 237.19L753.61 218.91L749.88 218.91zM745.14 218.91 a6.6 6.6 0 1 0 13.2 0 a6.6 6.6 0 1 0 -13.2 0zM777.26 241.9L780.7 243.33L790.14 220.54L786.69 219.12zM781.82 219.83 a6.6 6.6 0 1 0 13.2 0 a6.6 6.6 0 1 0 -13.2 0zM800.75 256.72L803.39 259.36L821.73 241.02L819.09 238.38zM813.81 239.7 a6.6 6.6 0 1 0 13.2 0 a6.6 6.6 0 1 0 -13.2 0zM816.78 279.41L818.21 282.85L833.31 276.59L831.89 273.15zM826 274.87 a6.6 6.6 0 1 0 13.2 0 a6.6 6.6 0 1 0 -13.2 0zM680.55 308.36 a71.19 71.19 0 1 0 142.38 0 a71.19 71.19 0 1 0 -142.38 0z" fill="rgba(195, 195, 195, 1)"></path><path d="M795.83 364.27 A70.1936 70.1936 0 0 1 681.31 318.74M681.31 318.74 A142.3872 142.3872 0 0 0 795.83 364.27" fill="#9c9c9c" fill-rule="nonzero"></path><path d="M811.44 319.08 a4.98 4.98 0 1 0 9.96 0 a4.98 4.98 0 1 0 -9.96 0zM681.17 308.93 a13.53 13.53 0 1 0 27.06 0 a13.53 13.53 0 1 0 -27.06 0zM747.83 265.2 a14.24 14.24 0 1 0 28.48 0 a14.24 14.24 0 1 0 -28.48 0zM741.41 309.16 a14.24 14.24 0 1 0 28.48 0 a14.24 14.24 0 1 0 -28.48 0zM783.33 300.9 a7.83 7.83 0 1 0 15.66 0 a7.83 7.83 0 1 0 -15.66 0zM729.23 335.63 a4.98 4.98 0 1 0 9.96 0 a4.98 4.98 0 1 0 -9.96 0zM801.63 344.87 a4.98 4.98 0 1 0 9.96 0 a4.98 4.98 0 1 0 -9.96 0zM697.23 267.12 a10.68 10.68 0 1 0 21.36 0 a10.68 10.68 0 1 0 -21.36 0zM747.27 356.71 a14.24 14.24 0 1 0 28.48 0 a14.24 14.24 0 1 0 -28.48 0zM798.24 277.82 a2.85 2.85 0 1 0 5.7 0 a2.85 2.85 0 1 0 -5.7 0z" fill="#9c9c9c" fill-rule="nonzero"></path><path d="M1326.65 465.24L1326.65 468.03L1335.63 468.03L1335.63 465.24zM1330.68 466.64 a4.95 4.95 0 1 0 9.9 0 a4.95 4.95 0 1 0 -9.9 0zM1323.12 485.77L1322.05 488.35L1343.02 497.04L1344.09 494.46zM1338.61 495.75 a4.95 4.95 0 1 0 9.9 0 a4.95 4.95 0 1 0 -9.9 0zM1312 503.39L1310.03 505.37L1314.83 510.17L1316.81 508.19zM1310.87 509.18 a4.95 4.95 0 1 0 9.9 0 a4.95 4.95 0 1 0 -9.9 0zM1294.99 515.42L1292.41 516.49L1299.55 533.73L1302.13 532.66zM1295.89 533.19 a4.95 4.95 0 1 0 9.9 0 a4.95 4.95 0 1 0 -9.9 0zM1274.67 520.01L1271.87 520.01L1271.87 529.35L1274.67 529.35zM1268.32 529.35 a4.95 4.95 0 1 0 9.9 0 a4.95 4.95 0 1 0 -9.9 0zM1254.14 516.49L1251.55 515.42L1241.87 538.79L1244.46 539.86zM1238.21 539.33 a4.95 4.95 0 1 0 9.9 0 a4.95 4.95 0 1 0 -9.9 0zM1236.52 505.37L1234.54 503.39L1228.74 509.2L1230.71 511.17zM1224.77 510.19 a4.95 4.95 0 1 0 9.9 0 a4.95 4.95 0 1 0 -9.9 0zM1224.49 488.35L1223.42 485.77L1204.96 493.42L1206.03 496zM1200.54 494.71 a4.95 4.95 0 1 0 9.9 0 a4.95 4.95 0 1 0 -9.9 0zM1219.9 468.03L1219.9 465.24L1198.48 465.24L1198.48 468.03zM1193.53 466.64 a4.95 4.95 0 1 0 9.9 0 a4.95 4.95 0 1 0 -9.9 0zM1223.42 447.5L1224.49 444.92L1208.95 438.48L1207.88 441.07zM1203.47 439.77 a4.95 4.95 0 1 0 9.9 0 a4.95 4.95 0 1 0 -9.9 0zM1234.54 429.88L1236.52 427.91L1224.12 415.5L1222.14 417.48zM1218.18 416.49 a4.95 4.95 0 1 0 9.9 0 a4.95 4.95 0 1 0 -9.9 0zM1251.55 417.86L1254.14 416.79L1244.54 393.61L1241.95 394.68zM1238.29 394.14 a4.95 4.95 0 1 0 9.9 0 a4.95 4.95 0 1 0 -9.9 0zM1271.87 413.26L1274.67 413.26L1274.67 400.72L1271.87 400.72zM1268.32 400.72 a4.95 4.95 0 1 0 9.9 0 a4.95 4.95 0 1 0 -9.9 0zM1292.41 416.79L1294.99 417.86L1302.79 399.04L1300.2 397.97zM1296.54 398.5 a4.95 4.95 0 1 0 9.9 0 a4.95 4.95 0 1 0 -9.9 0zM1310.03 427.91L1312 429.88L1323.88 418.01L1321.9 416.03zM1317.94 417.02 a4.95 4.95 0 1 0 9.9 0 a4.95 4.95 0 1 0 -9.9 0zM1322.05 444.92L1323.12 447.5L1338.26 441.23L1337.19 438.65zM1332.78 439.94 a4.95 4.95 0 1 0 9.9 0 a4.95 4.95 0 1 0 -9.9 0zM1219.87 466.64 a53.4 53.4 0 1 0 106.8 0 a53.4 53.4 0 1 0 -106.8 0z" fill="rgba(195, 195, 195, 1)"></path><path d="M1295.19 515.33 A52.3952 52.3952 0 0 1 1220.14 461.38M1220.14 461.38 A106.7904 106.7904 0 0 0 1295.19 515.33" fill="#9c9c9c" fill-rule="nonzero"></path><path d="M1261.09 469.01 a10.68 10.68 0 1 0 21.36 0 a10.68 10.68 0 1 0 -21.36 0zM1221 460.25 a10.68 10.68 0 1 0 21.36 0 a10.68 10.68 0 1 0 -21.36 0zM1285.97 495.69 a10.68 10.68 0 1 0 21.36 0 a10.68 10.68 0 1 0 -21.36 0zM1236.31 485.68 a5.87 5.87 0 1 0 11.74 0 a5.87 5.87 0 1 0 -11.74 0zM1245.07 504.71 a3.2 3.2 0 1 0 6.4 0 a3.2 3.2 0 1 0 -6.4 0zM1245.83 440.34 a9.08 9.08 0 1 0 18.16 0 a9.08 9.08 0 1 0 -18.16 0zM1274.22 431.73 a10.68 10.68 0 1 0 21.36 0 a10.68 10.68 0 1 0 -21.36 0zM1290.47 457.72 a2.67 2.67 0 1 0 5.34 0 a2.67 2.67 0 1 0 -5.34 0zM1269.13 516.3 a3.2 3.2 0 1 0 6.4 0 a3.2 3.2 0 1 0 -6.4 0zM1260.45 496.39 a4.27 4.27 0 1 0 8.54 0 a4.27 4.27 0 1 0 -8.54 0z" fill="#9c9c9c" fill-rule="nonzero"></path><path d="M229.16 133.6L229.16 135.92L240.35 135.92L240.35 133.6zM236.22 134.76 a4.13 4.13 0 1 0 8.26 0 a4.13 4.13 0 1 0 -8.26 0zM226.21 150.71L225.32 152.86L242.41 159.93L243.3 157.78zM238.72 158.86 a4.13 4.13 0 1 0 8.26 0 a4.13 4.13 0 1 0 -8.26 0zM216.95 165.39L215.3 167.04L222.49 174.23L224.14 172.58zM219.19 173.4 a4.13 4.13 0 1 0 8.26 0 a4.13 4.13 0 1 0 -8.26 0zM202.77 175.41L200.62 176.3L206.85 191.33L209 190.44zM203.79 190.89 a4.13 4.13 0 1 0 8.26 0 a4.13 4.13 0 1 0 -8.26 0zM185.84 179.24L183.51 179.24L183.51 195.28L185.84 195.28zM180.54 195.28 a4.13 4.13 0 1 0 8.26 0 a4.13 4.13 0 1 0 -8.26 0zM168.73 176.3L166.58 175.41L160.09 191.08L162.24 191.97zM157.03 191.52 a4.13 4.13 0 1 0 8.26 0 a4.13 4.13 0 1 0 -8.26 0zM154.05 167.04L152.4 165.39L145.9 171.89L147.55 173.53zM142.59 172.71 a4.13 4.13 0 1 0 8.26 0 a4.13 4.13 0 1 0 -8.26 0zM144.03 152.86L143.13 150.71L133.2 154.82L134.09 156.97zM129.52 155.9 a4.13 4.13 0 1 0 8.26 0 a4.13 4.13 0 1 0 -8.26 0zM140.19 135.92L140.19 133.6L121.88 133.6L121.88 135.92zM117.75 134.76 a4.13 4.13 0 1 0 8.26 0 a4.13 4.13 0 1 0 -8.26 0zM143.13 118.81L144.03 116.66L136.94 113.73L136.05 115.88zM132.36 114.8 a4.13 4.13 0 1 0 8.26 0 a4.13 4.13 0 1 0 -8.26 0zM152.4 104.13L154.05 102.48L141.52 89.96L139.88 91.61zM136.57 90.78 a4.13 4.13 0 1 0 8.26 0 a4.13 4.13 0 1 0 -8.26 0zM166.58 94.11L168.73 93.22L161.97 76.9L159.82 77.8zM156.76 77.35 a4.13 4.13 0 1 0 8.26 0 a4.13 4.13 0 1 0 -8.26 0zM183.51 90.28L185.84 90.28L185.84 75.05L183.51 75.05zM180.54 75.05 a4.13 4.13 0 1 0 8.26 0 a4.13 4.13 0 1 0 -8.26 0zM200.62 93.22L202.77 94.11L208.9 79.32L206.75 78.43zM203.69 78.87 a4.13 4.13 0 1 0 8.26 0 a4.13 4.13 0 1 0 -8.26 0zM215.3 102.48L216.95 104.13L222.72 98.36L221.07 96.71zM217.77 97.54 a4.13 4.13 0 1 0 8.26 0 a4.13 4.13 0 1 0 -8.26 0zM225.32 116.66L226.21 118.81L231.9 116.46L231.01 114.31zM227.32 115.38 a4.13 4.13 0 1 0 8.26 0 a4.13 4.13 0 1 0 -8.26 0zM140.17 134.76 a44.5 44.5 0 1 0 89 0 a44.5 44.5 0 1 0 -89 0z" fill="rgba(195, 195, 195, 1)"></path><path d="M183.14 179.23 A43.496 43.496 0 0 1 146.88 111.28M146.88 111.28 A88.992 88.992 0 0 0 183.14 179.23" fill="#9c9c9c" fill-rule="nonzero"></path><path d="M193.31 171.09 a5.34 5.34 0 1 0 10.68 0 a5.34 5.34 0 1 0 -10.68 0zM184.97 132.43 a8.9 8.9 0 1 0 17.8 0 a8.9 8.9 0 1 0 -17.8 0zM154.24 104.97 a5.78 5.78 0 1 0 11.56 0 a5.78 5.78 0 1 0 -11.56 0zM170.73 152.71 a7.56 7.56 0 1 0 15.12 0 a7.56 7.56 0 1 0 -15.12 0zM220.65 119.86 a2.67 2.67 0 1 0 5.34 0 a2.67 2.67 0 1 0 -5.34 0zM174.47 100.21 a5.34 5.34 0 1 0 10.68 0 a5.34 5.34 0 1 0 -10.68 0zM201.26 106.19 a7.12 7.12 0 1 0 14.24 0 a7.12 7.12 0 1 0 -14.24 0zM157.42 131.02 a8.45 8.45 0 1 0 16.9 0 a8.45 8.45 0 1 0 -16.9 0zM208.14 145.55 a8.01 8.01 0 1 0 16.02 0 a8.01 8.01 0 1 0 -16.02 0zM174.45 173.06 a3.56 3.56 0 1 0 7.12 0 a3.56 3.56 0 1 0 -7.12 0z" fill="#9c9c9c" fill-rule="nonzero"></path><path d="M1066.74 466.16L1066.74 468.95L1087.19 468.95L1087.19 466.16zM1082.24 467.56 a4.95 4.95 0 1 0 9.9 0 a4.95 4.95 0 1 0 -9.9 0zM1063.21 486.69L1062.14 489.27L1073.77 494.09L1074.84 491.51zM1069.36 492.8 a4.95 4.95 0 1 0 9.9 0 a4.95 4.95 0 1 0 -9.9 0zM1052.09 504.31L1050.12 506.29L1066.88 523.05L1068.86 521.08zM1062.92 522.07 a4.95 4.95 0 1 0 9.9 0 a4.95 4.95 0 1 0 -9.9 0zM1035.08 516.34L1032.5 517.41L1039.13 533.42L1041.71 532.35zM1035.47 532.88 a4.95 4.95 0 1 0 9.9 0 a4.95 4.95 0 1 0 -9.9 0zM1014.76 520.93L1011.97 520.93L1011.97 533.53L1014.76 533.53zM1008.41 533.53 a4.95 4.95 0 1 0 9.9 0 a4.95 4.95 0 1 0 -9.9 0zM994.23 517.41L991.65 516.34L984.1 534.55L986.69 535.61zM980.44 535.08 a4.95 4.95 0 1 0 9.9 0 a4.95 4.95 0 1 0 -9.9 0zM976.61 506.29L974.63 504.31L960.9 518.04L962.88 520.02zM956.94 519.03 a4.95 4.95 0 1 0 9.9 0 a4.95 4.95 0 1 0 -9.9 0zM964.58 489.27L963.51 486.69L944.54 494.55L945.61 497.13zM940.12 495.84 a4.95 4.95 0 1 0 9.9 0 a4.95 4.95 0 1 0 -9.9 0zM959.99 468.95L959.99 466.16L950.53 466.16L950.53 468.95zM945.58 467.56 a4.95 4.95 0 1 0 9.9 0 a4.95 4.95 0 1 0 -9.9 0zM963.51 448.42L964.58 445.84L948.91 439.34L947.84 441.93zM943.42 440.64 a4.95 4.95 0 1 0 9.9 0 a4.95 4.95 0 1 0 -9.9 0zM974.63 430.8L976.61 428.82L958.27 410.48L956.29 412.46zM952.33 411.47 a4.95 4.95 0 1 0 9.9 0 a4.95 4.95 0 1 0 -9.9 0zM991.65 418.78L994.23 417.71L991.6 411.37L989.02 412.44zM985.36 411.9 a4.95 4.95 0 1 0 9.9 0 a4.95 4.95 0 1 0 -9.9 0zM1011.97 414.18L1014.76 414.18L1014.76 406.79L1011.97 406.79zM1008.41 406.79 a4.95 4.95 0 1 0 9.9 0 a4.95 4.95 0 1 0 -9.9 0zM1032.5 417.71L1035.08 418.78L1041.24 403.9L1038.66 402.83zM1035 403.37 a4.95 4.95 0 1 0 9.9 0 a4.95 4.95 0 1 0 -9.9 0zM1050.12 428.82L1052.09 430.8L1070.62 412.28L1068.64 410.3zM1064.68 411.29 a4.95 4.95 0 1 0 9.9 0 a4.95 4.95 0 1 0 -9.9 0zM1062.14 445.84L1063.21 448.42L1069.95 445.63L1068.88 443.05zM1064.46 444.34 a4.95 4.95 0 1 0 9.9 0 a4.95 4.95 0 1 0 -9.9 0zM959.96 467.56 a53.4 53.4 0 1 0 106.8 0 a53.4 53.4 0 1 0 -106.8 0z" fill="rgba(195, 195, 195, 1)"></path><path d="M1055.04 434.18 A52.3952 52.3952 0 0 1 1021.54 520.32M1021.54 520.32 A106.7904 106.7904 0 0 0 1055.04 434.18" fill="#9c9c9c" fill-rule="nonzero"></path><path d="M965.16 479.5 a10.68 10.68 0 1 0 21.36 0 a10.68 10.68 0 1 0 -21.36 0zM993.95 493.75 a10.68 10.68 0 1 0 21.36 0 a10.68 10.68 0 1 0 -21.36 0zM1007.63 422.97 a8.54 8.54 0 1 0 17.08 0 a8.54 8.54 0 1 0 -17.08 0zM1060.93 455.18 a2.14 2.14 0 1 0 4.28 0 a2.14 2.14 0 1 0 -4.28 0zM1058.78 474.02 a3.74 3.74 0 1 0 7.48 0 a3.74 3.74 0 1 0 -7.48 0zM1024.5 484.32 a9.08 9.08 0 1 0 18.16 0 a9.08 9.08 0 1 0 -18.16 0zM1001.86 444.34 a4.27 4.27 0 1 0 8.54 0 a4.27 4.27 0 1 0 -8.54 0zM983.55 440.7 a3.74 3.74 0 1 0 7.48 0 a3.74 3.74 0 1 0 -7.48 0zM967.55 442.37 a2.67 2.67 0 1 0 5.34 0 a2.67 2.67 0 1 0 -5.34 0zM993.94 466.74 a4.81 4.81 0 1 0 9.62 0 a4.81 4.81 0 1 0 -9.62 0z" fill="#9c9c9c" fill-rule="nonzero"></path><path d="M511.08 353.06L511.08 355.39L527.46 355.39L527.46 353.06zM523.33 354.23 a4.13 4.13 0 1 0 8.26 0 a4.13 4.13 0 1 0 -8.26 0zM508.14 370.17L507.24 372.33L515.89 375.91L516.78 373.76zM512.21 374.83 a4.13 4.13 0 1 0 8.26 0 a4.13 4.13 0 1 0 -8.26 0zM498.87 384.86L497.22 386.5L504.4 393.68L506.05 392.03zM501.1 392.86 a4.13 4.13 0 1 0 8.26 0 a4.13 4.13 0 1 0 -8.26 0zM484.69 394.88L482.54 395.77L484.95 401.59L487.1 400.7zM481.9 401.14 a4.13 4.13 0 1 0 8.26 0 a4.13 4.13 0 1 0 -8.26 0zM467.76 398.71L465.43 398.71L465.43 410.78L467.76 410.78zM462.47 410.78 a4.13 4.13 0 1 0 8.26 0 a4.13 4.13 0 1 0 -8.26 0zM450.65 395.77L448.5 394.88L446.3 400.19L448.45 401.08zM443.24 400.63 a4.13 4.13 0 1 0 8.26 0 a4.13 4.13 0 1 0 -8.26 0zM435.97 386.5L434.32 384.86L424.89 394.29L426.53 395.94zM421.58 395.11 a4.13 4.13 0 1 0 8.26 0 a4.13 4.13 0 1 0 -8.26 0zM425.95 372.33L425.06 370.17L410.24 376.31L411.13 378.46zM406.55 377.39 a4.13 4.13 0 1 0 8.26 0 a4.13 4.13 0 1 0 -8.26 0zM422.11 355.39L422.11 353.06L400.95 353.06L400.95 355.39zM396.82 354.23 a4.13 4.13 0 1 0 8.26 0 a4.13 4.13 0 1 0 -8.26 0zM425.06 338.28L425.95 336.13L419.63 333.51L418.74 335.66zM415.05 334.59 a4.13 4.13 0 1 0 8.26 0 a4.13 4.13 0 1 0 -8.26 0zM434.32 323.6L435.97 321.95L420.55 306.54L418.9 308.18zM415.6 307.36 a4.13 4.13 0 1 0 8.26 0 a4.13 4.13 0 1 0 -8.26 0zM448.5 313.58L450.65 312.69L446.51 302.7L444.36 303.59zM441.31 303.15 a4.13 4.13 0 1 0 8.26 0 a4.13 4.13 0 1 0 -8.26 0zM465.43 309.75L467.76 309.75L467.76 300.62L465.43 300.62zM462.47 300.62 a4.13 4.13 0 1 0 8.26 0 a4.13 4.13 0 1 0 -8.26 0zM482.54 312.69L484.69 313.58L489.65 301.61L487.5 300.72zM484.44 301.17 a4.13 4.13 0 1 0 8.26 0 a4.13 4.13 0 1 0 -8.26 0zM497.22 321.95L498.87 323.6L511.74 310.73L510.09 309.08zM506.79 309.91 a4.13 4.13 0 1 0 8.26 0 a4.13 4.13 0 1 0 -8.26 0zM507.24 336.13L508.14 338.28L514.89 335.48L514 333.33zM510.31 334.41 a4.13 4.13 0 1 0 8.26 0 a4.13 4.13 0 1 0 -8.26 0zM422.1 354.23 a44.5 44.5 0 1 0 89 0 a44.5 44.5 0 1 0 -89 0z" fill="rgba(195, 195, 195, 1)"></path><path d="M450.13 395.56 A43.496 43.496 0 0 1 438.96 319.36M438.96 319.36 A88.992 88.992 0 0 0 450.13 395.56" fill="#9c9c9c" fill-rule="nonzero"></path><path d="M484.15 339.17 a8.9 8.9 0 1 0 17.8 0 a8.9 8.9 0 1 0 -17.8 0zM503.83 363.12 a3.11 3.11 0 1 0 6.22 0 a3.11 3.11 0 1 0 -6.22 0zM436.92 323.22 a3.56 3.56 0 1 0 7.12 0 a3.56 3.56 0 1 0 -7.12 0zM470.98 366.16 a8.9 8.9 0 1 0 17.8 0 a8.9 8.9 0 1 0 -17.8 0zM454.19 337.46 a8.9 8.9 0 1 0 17.8 0 a8.9 8.9 0 1 0 -17.8 0zM441.82 387.95 a5.78 5.78 0 1 0 11.56 0 a5.78 5.78 0 1 0 -11.56 0zM475.73 386.03 a1.78 1.78 0 1 0 3.56 0 a1.78 1.78 0 1 0 -3.56 0zM478.73 322.97 a2.22 2.22 0 1 0 4.44 0 a2.22 2.22 0 1 0 -4.44 0zM436.7 356.93 a8.45 8.45 0 1 0 16.9 0 a8.45 8.45 0 1 0 -16.9 0zM422.45 349.35 a2.67 2.67 0 1 0 5.34 0 a2.67 2.67 0 1 0 -5.34 0z" fill="#9c9c9c" fill-rule="nonzero"></path><path d="M482.13 117.05L482.13 119.84L492.8 119.84L492.8 117.05zM487.85 118.45 a4.95 4.95 0 1 0 9.9 0 a4.95 4.95 0 1 0 -9.9 0zM478.6 137.58L477.53 140.16L493.91 146.95L494.98 144.37zM489.49 145.66 a4.95 4.95 0 1 0 9.9 0 a4.95 4.95 0 1 0 -9.9 0zM467.48 155.2L465.5 157.18L481.05 172.72L483.02 170.74zM477.08 171.73 a4.95 4.95 0 1 0 9.9 0 a4.95 4.95 0 1 0 -9.9 0zM450.47 167.22L447.88 168.29L453.84 182.67L456.42 181.6zM450.18 182.13 a4.95 4.95 0 1 0 9.9 0 a4.95 4.95 0 1 0 -9.9 0zM430.15 171.82L427.35 171.82L427.35 193.32L430.15 193.32zM423.8 193.32 a4.95 4.95 0 1 0 9.9 0 a4.95 4.95 0 1 0 -9.9 0zM409.61 168.29L407.03 167.22L399.94 184.33L402.53 185.4zM396.29 184.87 a4.95 4.95 0 1 0 9.9 0 a4.95 4.95 0 1 0 -9.9 0zM391.99 157.18L390.02 155.2L385.15 160.07L387.12 162.05zM381.18 161.06 a4.95 4.95 0 1 0 9.9 0 a4.95 4.95 0 1 0 -9.9 0zM379.97 140.16L378.9 137.58L357.16 146.58L358.23 149.17zM352.75 147.88 a4.95 4.95 0 1 0 9.9 0 a4.95 4.95 0 1 0 -9.9 0zM375.37 119.84L375.37 117.05L352.45 117.05L352.45 119.84zM347.5 118.45 a4.95 4.95 0 1 0 9.9 0 a4.95 4.95 0 1 0 -9.9 0zM378.9 99.31L379.97 96.73L362.1 89.33L361.03 91.91zM356.62 90.62 a4.95 4.95 0 1 0 9.9 0 a4.95 4.95 0 1 0 -9.9 0zM390.02 81.69L391.99 79.71L374.22 61.94L372.25 63.92zM368.29 62.93 a4.95 4.95 0 1 0 9.9 0 a4.95 4.95 0 1 0 -9.9 0zM407.03 69.67L409.61 68.6L400.08 45.58L397.5 46.65zM393.84 46.12 a4.95 4.95 0 1 0 9.9 0 a4.95 4.95 0 1 0 -9.9 0zM427.35 65.07L430.15 65.07L430.15 48.89L427.35 48.89zM423.8 48.89 a4.95 4.95 0 1 0 9.9 0 a4.95 4.95 0 1 0 -9.9 0zM447.88 68.6L450.47 69.67L459.87 46.97L457.29 45.9zM453.63 46.43 a4.95 4.95 0 1 0 9.9 0 a4.95 4.95 0 1 0 -9.9 0zM465.5 79.71L467.48 81.69L478.7 70.47L476.73 68.49zM472.76 69.48 a4.95 4.95 0 1 0 9.9 0 a4.95 4.95 0 1 0 -9.9 0zM477.53 96.73L478.6 99.31L498.18 91.2L497.11 88.61zM492.7 89.91 a4.95 4.95 0 1 0 9.9 0 a4.95 4.95 0 1 0 -9.9 0zM375.35 118.45 a53.4 53.4 0 1 0 106.8 0 a53.4 53.4 0 1 0 -106.8 0z" fill="rgba(195, 195, 195, 1)"></path><path d="M463.37 159.1 A52.3952 52.3952 0 0 1 376.26 128.21M376.26 128.21 A106.7904 106.7904 0 0 0 463.37 159.1" fill="#9c9c9c" fill-rule="nonzero"></path><path d="M376.8 119.05 a10.68 10.68 0 1 0 21.36 0 a10.68 10.68 0 1 0 -21.36 0zM433.93 107.93 a10.68 10.68 0 1 0 21.36 0 a10.68 10.68 0 1 0 -21.36 0zM457 128.5 a5.34 5.34 0 1 0 10.68 0 a5.34 5.34 0 1 0 -10.68 0zM405.32 95.31 a10.15 10.15 0 1 0 20.3 0 a10.15 10.15 0 1 0 -20.3 0zM385.98 148.49 a3.2 3.2 0 1 0 6.4 0 a3.2 3.2 0 1 0 -6.4 0zM439.12 157.11 a9.61 9.61 0 1 0 19.22 0 a9.61 9.61 0 1 0 -19.22 0zM409.85 119.65 a3.2 3.2 0 1 0 6.4 0 a3.2 3.2 0 1 0 -6.4 0zM445.29 75.74 a5.34 5.34 0 1 0 10.68 0 a5.34 5.34 0 1 0 -10.68 0zM465.97 107.87 a5.34 5.34 0 1 0 10.68 0 a5.34 5.34 0 1 0 -10.68 0zM464.14 85.95 a2.14 2.14 0 1 0 4.28 0 a2.14 2.14 0 1 0 -4.28 0z" fill="#9c9c9c" fill-rule="nonzero"></path><path d="M1192.93 60.86L1192.93 62.72L1204.55 62.72L1204.55 60.86zM1201.25 61.79 a3.3 3.3 0 1 0 6.6 0 a3.3 3.3 0 1 0 -6.6 0zM1190.57 74.55L1189.86 76.27L1199.94 80.44L1200.65 78.72zM1197 79.58 a3.3 3.3 0 1 0 6.6 0 a3.3 3.3 0 1 0 -6.6 0zM1183.16 86.29L1181.84 87.61L1188.87 94.63L1190.18 93.32zM1186.22 93.97 a3.3 3.3 0 1 0 6.6 0 a3.3 3.3 0 1 0 -6.6 0zM1171.82 94.31L1170.1 95.02L1174.64 105.99L1176.36 105.28zM1172.2 105.63 a3.3 3.3 0 1 0 6.6 0 a3.3 3.3 0 1 0 -6.6 0zM1158.27 97.38L1156.41 97.38L1156.41 113.06L1158.27 113.06zM1154.04 113.06 a3.3 3.3 0 1 0 6.6 0 a3.3 3.3 0 1 0 -6.6 0zM1144.58 95.02L1142.86 94.31L1138.81 104.09L1140.53 104.81zM1136.37 104.45 a3.3 3.3 0 1 0 6.6 0 a3.3 3.3 0 1 0 -6.6 0zM1132.84 87.61L1131.52 86.29L1123.37 94.45L1124.68 95.76zM1120.73 95.11 a3.3 3.3 0 1 0 6.6 0 a3.3 3.3 0 1 0 -6.6 0zM1124.82 76.27L1124.11 74.55L1109.1 80.76L1109.82 82.48zM1106.16 81.62 a3.3 3.3 0 1 0 6.6 0 a3.3 3.3 0 1 0 -6.6 0zM1121.76 62.72L1121.76 60.86L1109.75 60.86L1109.75 62.72zM1106.45 61.79 a3.3 3.3 0 1 0 6.6 0 a3.3 3.3 0 1 0 -6.6 0zM1124.11 49.03L1124.82 47.31L1111.75 41.9L1111.04 43.62zM1108.09 42.76 a3.3 3.3 0 1 0 6.6 0 a3.3 3.3 0 1 0 -6.6 0zM1131.52 37.29L1132.84 35.97L1121.12 24.25L1119.8 25.57zM1117.16 24.91 a3.3 3.3 0 1 0 6.6 0 a3.3 3.3 0 1 0 -6.6 0zM1142.86 29.27L1144.58 28.56L1142.32 23.09L1140.6 23.8zM1138.16 23.45 a3.3 3.3 0 1 0 6.6 0 a3.3 3.3 0 1 0 -6.6 0zM1156.41 26.21L1158.27 26.21L1158.27 19.66L1156.41 19.66zM1154.04 19.66 a3.3 3.3 0 1 0 6.6 0 a3.3 3.3 0 1 0 -6.6 0zM1170.1 28.56L1171.82 29.27L1174.77 22.16L1173.04 21.44zM1170.61 21.8 a3.3 3.3 0 1 0 6.6 0 a3.3 3.3 0 1 0 -6.6 0zM1181.84 35.97L1183.16 37.29L1190.12 30.33L1188.8 29.01zM1186.16 29.67 a3.3 3.3 0 1 0 6.6 0 a3.3 3.3 0 1 0 -6.6 0zM1189.86 47.31L1190.57 49.03L1201.58 44.48L1200.86 42.75zM1197.92 43.62 a3.3 3.3 0 1 0 6.6 0 a3.3 3.3 0 1 0 -6.6 0zM1121.74 61.79 a35.6 35.6 0 1 0 71.2 0 a35.6 35.6 0 1 0 -71.2 0z" fill="rgba(195, 195, 195, 1)"></path><path d="M1129.59 39.5 A34.5968 34.5968 0 0 1 1190.5 48.84M1190.5 48.84 A71.1936 71.1936 0 0 0 1129.59 39.5" fill="#9c9c9c" fill-rule="nonzero"></path><path d="M1164.89 46.36 a7.12 7.12 0 1 0 14.24 0 a7.12 7.12 0 1 0 -14.24 0zM1147.29 93.07 a3.56 3.56 0 1 0 7.12 0 a3.56 3.56 0 1 0 -7.12 0zM1124.96 62.92 a7.12 7.12 0 1 0 14.24 0 a7.12 7.12 0 1 0 -14.24 0zM1180.96 71.68 a4.98 4.98 0 1 0 9.96 0 a4.98 4.98 0 1 0 -9.96 0zM1138.7 76.84 a2.14 2.14 0 1 0 4.28 0 a2.14 2.14 0 1 0 -4.28 0zM1142.83 30.67 a1.78 1.78 0 1 0 3.56 0 a1.78 1.78 0 1 0 -3.56 0zM1148.76 62.19 a7.12 7.12 0 1 0 14.24 0 a7.12 7.12 0 1 0 -14.24 0zM1161.61 92.81 a3.56 3.56 0 1 0 7.12 0 a3.56 3.56 0 1 0 -7.12 0zM1157.21 78.42 a2.14 2.14 0 1 0 4.28 0 a2.14 2.14 0 1 0 -4.28 0zM1128.05 42.44 a1.78 1.78 0 1 0 3.56 0 a1.78 1.78 0 1 0 -3.56 0z" fill="#9c9c9c" fill-rule="nonzero"></path><path d="M1386.54 216.77L1386.54 219.57L1403.73 219.57L1403.73 216.77zM1398.78 218.17 a4.95 4.95 0 1 0 9.9 0 a4.95 4.95 0 1 0 -9.9 0zM1383.01 237.3L1381.94 239.89L1388.18 242.47L1389.25 239.89zM1383.77 241.18 a4.95 4.95 0 1 0 9.9 0 a4.95 4.95 0 1 0 -9.9 0zM1371.89 254.92L1369.92 256.9L1385.05 272.03L1387.02 270.06zM1381.09 271.04 a4.95 4.95 0 1 0 9.9 0 a4.95 4.95 0 1 0 -9.9 0zM1354.88 266.95L1352.3 268.02L1355.86 276.62L1358.44 275.55zM1352.2 276.08 a4.95 4.95 0 1 0 9.9 0 a4.95 4.95 0 1 0 -9.9 0zM1334.56 271.55L1331.76 271.55L1331.76 297.63L1334.56 297.63zM1328.21 297.63 a4.95 4.95 0 1 0 9.9 0 a4.95 4.95 0 1 0 -9.9 0zM1314.03 268.02L1311.44 266.95L1305.66 280.92L1308.24 281.99zM1302 281.45 a4.95 4.95 0 1 0 9.9 0 a4.95 4.95 0 1 0 -9.9 0zM1296.41 256.9L1294.43 254.92L1284.82 264.53L1286.8 266.51zM1280.86 265.52 a4.95 4.95 0 1 0 9.9 0 a4.95 4.95 0 1 0 -9.9 0zM1284.38 239.89L1283.31 237.3L1260.56 246.73L1261.63 249.31zM1256.14 248.02 a4.95 4.95 0 1 0 9.9 0 a4.95 4.95 0 1 0 -9.9 0zM1279.78 219.57L1279.78 216.77L1271.92 216.77L1271.92 219.57zM1266.97 218.17 a4.95 4.95 0 1 0 9.9 0 a4.95 4.95 0 1 0 -9.9 0zM1283.31 199.03L1284.38 196.45L1271.17 190.98L1270.1 193.56zM1265.69 192.27 a4.95 4.95 0 1 0 9.9 0 a4.95 4.95 0 1 0 -9.9 0zM1294.43 181.41L1296.41 179.44L1290.47 173.5L1288.5 175.48zM1284.53 174.49 a4.95 4.95 0 1 0 9.9 0 a4.95 4.95 0 1 0 -9.9 0zM1311.44 169.39L1314.03 168.32L1309.36 157.06L1306.78 158.13zM1303.12 157.59 a4.95 4.95 0 1 0 9.9 0 a4.95 4.95 0 1 0 -9.9 0zM1331.76 164.79L1334.56 164.79L1334.56 157.91L1331.76 157.91zM1328.21 157.91 a4.95 4.95 0 1 0 9.9 0 a4.95 4.95 0 1 0 -9.9 0zM1352.3 168.32L1354.88 169.39L1357.51 163.04L1354.92 161.97zM1351.27 162.51 a4.95 4.95 0 1 0 9.9 0 a4.95 4.95 0 1 0 -9.9 0zM1369.92 179.44L1371.89 181.41L1378.77 174.53L1376.8 172.56zM1372.83 173.54 a4.95 4.95 0 1 0 9.9 0 a4.95 4.95 0 1 0 -9.9 0zM1381.94 196.45L1383.01 199.03L1397.34 193.1L1396.27 190.52zM1391.85 191.81 a4.95 4.95 0 1 0 9.9 0 a4.95 4.95 0 1 0 -9.9 0zM1279.76 218.17 a53.4 53.4 0 1 0 106.8 0 a53.4 53.4 0 1 0 -106.8 0z" fill="rgba(195, 195, 195, 1)"></path><path d="M1282.59 201.04 A52.3952 52.3952 0 0 1 1373.21 182.85M1373.21 182.85 A106.7904 106.7904 0 0 0 1282.59 201.04" fill="#9c9c9c" fill-rule="nonzero"></path><path d="M1338.03 193.53 a10.68 10.68 0 1 0 21.36 0 a10.68 10.68 0 1 0 -21.36 0zM1300.64 180.46 a8.01 8.01 0 1 0 16.02 0 a8.01 8.01 0 1 0 -16.02 0zM1323.78 240.57 a10.68 10.68 0 1 0 21.36 0 a10.68 10.68 0 1 0 -21.36 0zM1308.4 246.34 a2.67 2.67 0 1 0 5.34 0 a2.67 2.67 0 1 0 -5.34 0zM1312.06 261.97 a2.14 2.14 0 1 0 4.28 0 a2.14 2.14 0 1 0 -4.28 0zM1377.9 203.9 a3.2 3.2 0 1 0 6.4 0 a3.2 3.2 0 1 0 -6.4 0zM1313.67 216.28 a6.41 6.41 0 1 0 12.82 0 a6.41 6.41 0 1 0 -12.82 0zM1289.02 217.96 a6.94 6.94 0 1 0 13.88 0 a6.94 6.94 0 1 0 -13.88 0zM1365.71 238.24 a8.01 8.01 0 1 0 16.02 0 a8.01 8.01 0 1 0 -16.02 0zM1338.5 264.87 a4.27 4.27 0 1 0 8.54 0 a4.27 4.27 0 1 0 -8.54 0z" fill="#9c9c9c" fill-rule="nonzero"></path><path d="M874.1 69.31L874.1 71.17L881.49 71.17L881.49 69.31zM878.19 70.24 a3.3 3.3 0 1 0 6.6 0 a3.3 3.3 0 1 0 -6.6 0zM871.75 83L871.04 84.72L885.39 90.66L886.1 88.94zM882.44 89.8 a3.3 3.3 0 1 0 6.6 0 a3.3 3.3 0 1 0 -6.6 0zM864.34 94.74L863.02 96.06L866.74 99.77L868.05 98.45zM864.09 99.11 a3.3 3.3 0 1 0 6.6 0 a3.3 3.3 0 1 0 -6.6 0zM853 102.76L851.28 103.47L853.49 108.8L855.21 108.09zM851.05 108.44 a3.3 3.3 0 1 0 6.6 0 a3.3 3.3 0 1 0 -6.6 0zM839.45 105.82L837.59 105.82L837.59 115.88L839.45 115.88zM835.22 115.88 a3.3 3.3 0 1 0 6.6 0 a3.3 3.3 0 1 0 -6.6 0zM825.76 103.47L824.04 102.76L820.83 110.51L822.55 111.22zM818.39 110.87 a3.3 3.3 0 1 0 6.6 0 a3.3 3.3 0 1 0 -6.6 0zM814.02 96.06L812.7 94.74L800.51 106.93L801.83 108.25zM797.87 107.59 a3.3 3.3 0 1 0 6.6 0 a3.3 3.3 0 1 0 -6.6 0zM806 84.72L805.29 83L795.37 87.11L796.08 88.83zM792.42 87.97 a3.3 3.3 0 1 0 6.6 0 a3.3 3.3 0 1 0 -6.6 0zM802.94 71.17L802.94 69.31L792.68 69.31L792.68 71.17zM789.38 70.24 a3.3 3.3 0 1 0 6.6 0 a3.3 3.3 0 1 0 -6.6 0zM805.29 57.48L806 55.76L798.56 52.68L797.85 54.4zM794.91 53.54 a3.3 3.3 0 1 0 6.6 0 a3.3 3.3 0 1 0 -6.6 0zM812.7 45.74L814.02 44.42L806.49 36.89L805.18 38.21zM802.53 37.55 a3.3 3.3 0 1 0 6.6 0 a3.3 3.3 0 1 0 -6.6 0zM824.04 37.72L825.76 37.01L820.88 25.23L819.16 25.94zM816.72 25.58 a3.3 3.3 0 1 0 6.6 0 a3.3 3.3 0 1 0 -6.6 0zM837.59 34.65L839.45 34.65L839.45 24.12L837.59 24.12zM835.22 24.12 a3.3 3.3 0 1 0 6.6 0 a3.3 3.3 0 1 0 -6.6 0zM851.28 37.01L853 37.72L855.25 32.28L853.53 31.56zM851.09 31.92 a3.3 3.3 0 1 0 6.6 0 a3.3 3.3 0 1 0 -6.6 0zM863.02 44.42L864.34 45.74L869.84 40.23L868.52 38.92zM865.88 39.57 a3.3 3.3 0 1 0 6.6 0 a3.3 3.3 0 1 0 -6.6 0zM871.04 55.76L871.75 57.48L887.34 51.03L886.63 49.3zM883.68 50.16 a3.3 3.3 0 1 0 6.6 0 a3.3 3.3 0 1 0 -6.6 0zM802.92 70.24 a35.6 35.6 0 1 0 71.2 0 a35.6 35.6 0 1 0 -71.2 0z" fill="rgba(195, 195, 195, 1)"></path><path d="M870.86 85.11 A34.5968 34.5968 0 0 1 809.51 90.87M809.51 90.87 A71.1936 71.1936 0 0 0 870.86 85.11" fill="#9c9c9c" fill-rule="nonzero"></path><path d="M851.88 82.25 a7.12 7.12 0 1 0 14.24 0 a7.12 7.12 0 1 0 -14.24 0zM853.37 54.7 a7.12 7.12 0 1 0 14.24 0 a7.12 7.12 0 1 0 -14.24 0zM830.35 101.72 a3.56 3.56 0 1 0 7.12 0 a3.56 3.56 0 1 0 -7.12 0zM827.52 65.55 a7.12 7.12 0 1 0 14.24 0 a7.12 7.12 0 1 0 -14.24 0zM806.98 85.95 a2.49 2.49 0 1 0 4.98 0 a2.49 2.49 0 1 0 -4.98 0zM841.37 52.11 a1.42 1.42 0 1 0 2.84 0 a1.42 1.42 0 1 0 -2.84 0zM835.77 82.48 a3.2 3.2 0 1 0 6.4 0 a3.2 3.2 0 1 0 -6.4 0zM843.85 92.74 a1.42 1.42 0 1 0 2.84 0 a1.42 1.42 0 1 0 -2.84 0zM816.14 94.73 a3.56 3.56 0 1 0 7.12 0 a3.56 3.56 0 1 0 -7.12 0zM817.19 71.71 a2.14 2.14 0 1 0 4.28 0 a2.14 2.14 0 1 0 -4.28 0z" fill="#9c9c9c" fill-rule="nonzero"></path></g><defs><mask id="SvgjsMask1008"><rect width="1440" height="560" fill="#ffffff"></rect></mask></defs></svg>