<svg xmlns="http://www.w3.org/2000/svg" width="48" height="48" viewBox="0 0 48 48"><path d="m42 13-2 1v4l-1 1v2l-1 2v2a10 10 0 0 1-1 3 9 9 0 0 1-1 2 9 9 0 0 1-3 3 7 7 0 0 1-2 1l-2 1a12 12 0 0 1-2 0h-8a10 10 0 0 1-5-4h-1a9 9 0 0 1-1-4h-1a11 11 0 0 1 0-2l2-3 2-3 1-2 1-1v-2l-1-2v-2l-2-2V6h18a10 10 0 0 1 10 7z" fill="#304ffe"/><path d="m42 16-1 1-1 1h-1l-2 1-2 1-2 1-1 1v1l-2 2-2 1c-4 1-8 0-11-2l-1-1a3 3 0 0 1 0-1v-8l-4-1-3-1-2-1 1-1a10 10 0 0 1 8-4h11a34 34 0 0 1 14 6l1 1v3z" fill="#4928f4"/><path d="M42 16v5l-1 2-1 3v1l-1 1v3l-1 1a23 23 0 0 1 0 2 7 7 0 0 1 0 2 2 2 0 0 1-2 1l-2 1h-6l-2-1H14l-2-1-1-2V15H9l-3-1a14 14 0 0 1 1-3l1-1a33 33 0 0 1 13-2 32 32 0 0 1 21 8z" fill="#6200ea"/><path d="M42 18v5l-1 1-1 2v1l-1 1v1a16 16 0 0 1 0 3 7 7 0 0 1-1 2 4 4 0 0 1-1 1l-1 1h-6l-2 1H14a6 6 0 0 1-3-3v-1a9 9 0 0 1-1-3v-4l-1-2-1-2-1-2-1-2v-2a10 10 0 0 1 0-3 27 27 0 0 1 10-3 30 30 0 0 1 26 8z" fill="#673ab7"/><path d="M42 21v5l-1 2-1 2v1l-1 2-1 1h-3a81 81 0 0 0-3 0h-6l-3 1h-7l-3-1-1-1-1-2v-3l-1-2-1-2H8v-2l-1-1-1-1v-4a25 25 0 0 1 6-3 27 27 0 0 1 9-1c7 0 13 2 18 6v1l3 2z" fill="#8e24aa"/><path d="M42 25v7a10 10 0 0 0-2-1 16 16 0 0 0-2-1 25 25 0 0 0-3 0l-2-1h-7l-7 1h-5c-1 1-1 0-1-1v-2h-1l-1-1v-1l-2-1H8l-1-1-1-1v-4a26 26 0 0 1 35 5v1l1 1z" fill="#c2185b"/><path d="M42 29v3a10 10 0 0 1-1 5h-1l-2-1-1-1-2-1-2-1h-3l-5-2-3-1h-1l-7 1-1-2v-1l-1-1h-1l-1-1H9l-2-1H6v-4h1v-1a23 23 0 0 1 14-4 23 23 0 0 1 19 10l1 2 1 1z" fill="#d81b60"/><path d="M42 34a10 10 0 0 1-2 4h-2l-1-1a18 18 0 0 0-3-1h-2l-3-1h-3v-1l-7-1-2-1h-1l-2-1h-3v-1H8l-1-1-1-1v-4l1-1 1-1a20 20 0 0 1 3-2 20 20 0 0 1 5-2h5a22 22 0 0 1 17 8 20 20 0 0 1 3 5l1 3z" fill="#f50057"/><path d="M40 38a10 10 0 0 1-2 2l-1 1h-1l-2-1-2-2h-2l-2-1h-6l-5-1h-2l-2-1-2-1-2-1-2-1-1-1v-4a21 21 0 0 1 3-3 17 17 0 0 1 4-2l3-1 5-1a19 19 0 0 1 17 10l1 1a25 25 0 0 1 0 2 19 19 0 0 1 1 5z" fill="#ff1744"/><path d="M38 39v1l-1 1h-1a18 18 0 0 0-4-1h-4l-2-1h-1l-7-1h-2a19 19 0 0 1-4-1h-2a75 75 0 0 1-3-1l-1-2a9 9 0 0 1 0-2v-2l1-1a17 17 0 0 1 3-3l1-1a17 17 0 0 1 5-2 18 18 0 0 1 22 12v4z" fill="#ff5722"/><path d="M36 39v2a10 10 0 0 1-2 1h-1a20 20 0 0 1-3-2l-1-1H17a23 23 0 0 1-3 0h-2a82 82 0 0 1-4 0v-2a9 9 0 0 1-1-1l-1-2a14 14 0 0 1 4-6h1v-1h1a15 15 0 0 1 5-3 16 16 0 0 1 11 2 15 15 0 0 1 7 8 20 20 0 0 1 1 3v2z" fill="#ff6f00"/><path d="M34 39v3h-4l-2-1h-2l-5-2h-4a66 66 0 0 1-5 2h-1a10 10 0 0 1-3-4v-1a13 13 0 0 1 3-5l1-2h1a13 13 0 0 1 17 0 13 13 0 0 1 3 4v1l1 2a13 13 0 0 1 0 3z" fill="#ff9800"/><path d="M32 39v1a18 18 0 0 1 0 2h-7l-4-1h-5l-2 1a9 9 0 0 1-4-2v-1a11 11 0 0 1 1-5v-1h1l1-2h1v-1a11 11 0 0 1 7-2l5 1a11 11 0 0 1 5 5l1 2v3z" fill="#ffc107"/><path d="M30 39v1a10 10 0 0 1 0 2h-5l-4-1-5 1h-2l-2-1v-2a9 9 0 0 1 1-5 9 9 0 0 1 3-2 9 9 0 0 1 5-2h1l3 1a9 9 0 0 1 5 5v3z" fill="#ffd54f"/><path d="M28 40a7 7 0 0 1 0 2h-5l-2-1-2 1h-5a7 7 0 0 1 0-2v-3l1-1a7 7 0 0 1 2-2l2-1 2-1 5 2v1h1a7 7 0 0 1 1 2v1a6 6 0 0 1 0 2z" fill="#ffe082"/><path d="M26 40v1l-1 1h-9v-5l1-1 2-1a5 5 0 0 1 4 0 5 5 0 0 1 3 2 5 5 0 0 1 0 3z" fill="#ffecb3"/><path d="M30 11H18c-4 0-7 3-7 7v12c0 4 3 7 7 7h12c4 0 7-3 7-7V18c0-4-3-7-7-7z" fill="none" stroke="#fff" stroke-linecap="round" stroke-linejoin="round" stroke-miterlimit="10" stroke-width="2"/><circle fill="#fff" cx="31" cy="16" r="1"/><circle fill="none" cx="24" cy="24" r="6" stroke="#fff" stroke-linecap="round" stroke-linejoin="round" stroke-miterlimit="10" stroke-width="2"/></svg>