<svg xmlns="http://www.w3.org/2000/svg" xmlns:xlink="http://www.w3.org/1999/xlink" viewBox="0 0 634 749"><defs><linearGradient id="b" x1="576" x2="374" y1="253" y2="-11" gradientUnits="userSpaceOnUse"><stop offset="0" stop-color="#eb0004"/><stop offset="0" stop-color="#e70004"/><stop offset="0" stop-color="#db0003"/><stop offset="1" stop-color="#c60002"/><stop offset="1" stop-color="#aa0001"/><stop offset="1" stop-color="#940000"/></linearGradient><linearGradient id="a" x1="398" x2="398" y1="141" y2="317" gradientUnits="userSpaceOnUse"><stop offset="0" stop-color="#e60004"/><stop offset="0" stop-color="#d50003"/><stop offset="1" stop-color="#ac0001"/><stop offset="1" stop-color="#9c0000"/></linearGradient><linearGradient xlink:href="#a" id="c" x1="234" x2="234" y1="141" y2="317"/><linearGradient id="d" x1="17" x2="326" y1="247" y2="41" gradientUnits="userSpaceOnUse"><stop offset="0" stop-color="#eb0004"/><stop offset="0" stop-color="#e50004"/><stop offset="0" stop-color="#d50003"/><stop offset="1" stop-color="#ba0002"/><stop offset="1" stop-color="#940000"/><stop offset="1" stop-color="#940000"/></linearGradient></defs><g data-name="Layer 2"><g data-name="Layer 1"><path d="M634 252c0-10-2-19-5-28a192 192 0 0 0-11-29 219 219 0 0 0-17-32 241 241 0 0 0-29-34 272 272 0 0 0-33-28 304 304 0 0 0-32-21c-10-6-19-11-30-15a373 373 0 0 0-35-13 448 448 0 0 0-58-14l-17-2-17-2-21-1 11 1a87 87 0 0 1 21 6c8 3 16 6 23 11l7 4 7 5 12 10c10 8 18 19 26 29a96 96 0 0 1 10 15l7 9 15 33 6 18 4 17 3 15a78 78 0 0 1 2 15l1 9 2 21v8h1v-1c6-9 14-15 23-21 15-8 32-12 50-12h11a102 102 0 0 1 28 5c11 4 22 10 31 19l5 5-1-2Z" fill="url(#b)"/><path d="m471 229-3-27-4-16-5-17a47 47 0 0 0-4-11l-8-18a115 115 0 0 0-11-19l-5-8-16-20a102 102 0 0 0-15-16l-16-12-14-8a16 16 0 0 1-4-2l-7-5a24 24 0 0 1-5-2c-3-2-6-5-10-6l-19-6a4 4 0 0 0-3 0v224a86 86 0 0 1 9-10c9-10 21-16 33-20a115 115 0 0 1 42-5 111 111 0 0 1 32 7c13 4 25 11 33 23l2 1a69 69 0 0 0 0-12l-2-15Z" fill="url(#a)"/><path d="M307 36c-8 1-14 5-21 8l-15 9-18 10c-8 4-15 10-22 16l-6 5a116 116 0 0 0-8 8l-13 16-6 9-10 16-3 8a159 159 0 0 0-12 27l-4 15-3 12a728 728 0 0 0-7 42v21a4 4 0 0 0 1 0c9-14 22-22 36-27a115 115 0 0 1 50-6 107 107 0 0 1 32 8c12 5 22 12 30 22a1 1 0 0 0 1 1V36a3 3 0 0 0-2 0Z" fill="url(#c)"/><path d="m176 130 10-18 8-12 6-7a163 163 0 0 1 12-14 100 100 0 0 1 10-9c6-5 12-11 19-15a188 188 0 0 1 27-14l10-4 21-4a9 9 0 0 0-3 0l-20 2-27 3a397 397 0 0 0-59 14 364 364 0 0 0-41 17c-10 4-19 9-29 15a290 290 0 0 0-48 35 240 240 0 0 0-31 34 226 226 0 0 0-26 43 196 196 0 0 0-14 48l-1 7 2-1a67 67 0 0 1 21-15c18-9 38-12 58-10a115 115 0 0 1 25 5c11 3 21 8 29 16a72 72 0 0 1 11 11 341 341 0 0 1 8-65 306 306 0 0 1 10-35 205 205 0 0 1 12-27Z" fill="url(#d)"/><path d="M309 356v-80a44 44 0 0 1 1-7 6 6 0 0 1 3-5c4-2 8-1 9 4a62 62 0 0 1 1 12v159a8 8 0 0 0 1 5c3 4 4 8 4 13v47a63 63 0 0 1-8 28c-5 9-13 15-22 20-7 5-15 6-23 6-6 0-12 0-18-3-7-3-14-7-20-13l-4-6a51 51 0 0 1-10-24c-1-3 0-7 3-10s7-4 11-3 7 4 8 8l2 9a26 26 0 0 0 16 18 32 32 0 0 0 11 2c10 0 18-3 24-11a23 23 0 0 0 4-7 46 46 0 0 0 2-13v-53a10 10 0 0 1 2-7c3-2 3-5 3-9v-80Zm24-326h-34l17-30 17 30Z" fill="#007d22"/><path d="m190 588-17 41-18 40-29-81h-8a3 3 0 0 0-1 2l-6 87a5 5 0 0 0 0 1 15 15 0 0 0 6 0l6-78 28 78h7l1-2 19-45 12-28c1-1 1-3 3-3l-1 39v39a16 16 0 0 0 7 0 5 5 0 0 0 0-3v-87h-9Zm401 45-15-45a23 23 0 0 0-8 0l-41 84h-42l3-84a11 11 0 0 0-7 1l-3 89h53l20-42h34l14 42a15 15 0 0 0 7 0l-15-45Zm-37-3 4-9 4-8 4-9 5-9 12 35Zm-292 2a5 5 0 0 1-2-1l1-1c9-6 13-14 12-25-1-8-6-14-13-16a48 48 0 0 0-15-1h-21a4 4 0 0 0-3 1l-4 89a24 24 0 0 0 3 0h28a35 35 0 0 0 7-1c11-2 21-11 20-26-1-9-5-15-13-19Zm-34-38 1-1 26 1a14 14 0 0 1 12 13c0 11-6 20-18 21h-23l2-34Zm41 60c-2 12-9 17-18 18l-25 1a7 7 0 0 1-1-1l1-37a2 2 0 0 1 2-1l25 1c10 1 17 9 16 19Zm47-19a26 26 0 0 0 13-4c10-6 14-17 12-28-2-8-7-13-15-14a54 54 0 0 0-11-1 188 188 0 0 1-19 0c-1 0-3-1-4 1l-3 89a16 16 0 0 0 7 0l2-85h17a65 65 0 0 1 9 1 12 12 0 0 1 10 8c3 9 0 19-8 24a29 29 0 0 1-18 4h-7l32 48a33 33 0 0 0 7 0c1-2 0-3-1-4l-24-35-2-4a5 5 0 0 1 3 0ZM90 588a3 3 0 0 0-1 3l-2 45a149 149 0 0 1-1 18c-2 8-6 14-14 17a43 43 0 0 1-28 1c-8-2-13-8-14-17a43 43 0 0 1-1-6l2-39 1-18-1-4a12 12 0 0 0-5 0 3 3 0 0 0-1 2l-1 36c-1 9-2 17-1 26 0 10 4 18 13 23a37 37 0 0 0 14 4c10 1 19 1 28-4a24 24 0 0 0 13-17c2-7 2-15 3-22l1-24 1-20-1-4a14 14 0 0 0-5 0Zm311 0h-40l-5 1c1 29-1 59-3 89h50a8 8 0 0 0 0-6h-42c-1-6 0-34 1-37h39a9 9 0 0 0 0-6h-39l1-36 43 1a7 7 0 0 0 0-6h-5Zm26 84 3-83a12 12 0 0 0-6-1l-2 45-2 45h48a7 7 0 0 0 1-6h-42Zm-300 38-2-2h11c0 2-2 1-3 2v29c0 5 1 6 5 6h6c4 0 5-1 6-5v-3c2 2 2 4 1 11h-36c1-3 0-5-1-8l-3-8a3 3 0 0 0-4-2h-7c-2 6-5 11-6 18l-32-1a1 1 0 0 1 0-1c2-1 2-2 2-3v-30a4 4 0 0 0-2-4l1-2h22a6 6 0 0 1 1 1 13 13 0 0 1 0 6l-2-2c0-2-1-2-3-2H70v16c5 0 9 1 14-1v5c-5-2-9-1-14-1-1 5 0 12 1 15l3 1h5c6 0 6 0 9-4l1 4c2 0 2-2 3-3l9-24 4-9 1-3c2 1 2 2 2 3l10 25 3 9c1 3 2 3 6 2Zm-22 7a56 56 0 0 0-4 10 13 13 0 0 0 7 0l-3-10Zm437-9 8-1 12 30 3-3 9-23c2-4 2-4 6-4a16 16 0 0 1 2 0l1 1c-4 2-3 5-3 8l4 26c0 2 0 4 2 5l-10 1c2-3 2-5 2-7l-3-18a7 7 0 0 0-1-3l-1 2-10 23c0 1 0 2-2 3l-4-9-4-10-4-9-2 2-2 21a5 5 0 0 0 1 4 1 1 0 0 1-2 1h-30a5 5 0 0 1-1 0v-1c2-2 2-4 2-6v-27c0-2 1-5-2-5l1-2h23a10 10 0 0 1 0 7l-3-4h-13v16c5 0 10 1 14-1v5c-4-2-9-1-14-1v13a3 3 0 0 0 3 3h10c2 0 4-1 4-3l1-1c1 1 0 3 2 5l2-10 2-18 1-4c0-2-1-4-3-5l-1-1Zm-186 36c1 1 0 2-1 2-4 3-11 3-15-2-3-3-6-7-8-12-3-3-3-3-7-2v14c0 2 2 2 2 3l-22 1v-7l-5-11a51 51 0 0 0-9 0c-3 5-7 15-6 18h-7c5-4 5-10 7-15l10-24 1-2c2 0 2 1 2 2l13 32v2c2 4 3 4 7 2v-35c0-1-2 0-2-2l3-1h13c4 1 7 2 9 6a11 11 0 0 1-2 11 25 25 0 0 1-3 3 4 4 0 0 0 1 3 101 101 0 0 0 8 12c3 3 6 4 9 2h2Zm-31-18c4 1 8 0 10-3s1-7-1-10-5-4-9-2Zm-30-9a38 38 0 0 0-4 10 13 13 0 0 0 7 0l-3-10Zm-74 30a22 22 0 0 1-10 0c3-2 2-5 2-7v-11h-19v16l2 2h-10c2-2 2-4 2-6v-31l-3-2-2 4c-3-2-5-3-11-2v31c0 3-1 5 3 5-3 2-9 2-12 1 4-2 3-5 3-8v-25l-1-4h-8l-2 2c-2-2-2-4-3-7 4 3 7 2 10 2h18c1 0 3 1 4-2a4 4 0 0 0 4 2h7l2 1c-1 2-2 1-3 2v15h19v-10c0-2 1-5-2-7h11c-3 2-3 5-3 7v27c0 2 0 4 2 5ZM59 708c-3 1-3 3-3 5v29c0 2 0 4 3 5a27 27 0 0 1-11 1l1-2a2 2 0 0 0 1-2v-15H31v15c0 2 2 2 2 3H23l2-2v-34c0-2-2-1-2-3h10c1 2-1 1-2 3v14h19v-15l-2-2a25 25 0 0 1 11 0Zm325 39h-27c4-2 3-5 3-7v-23c0-3 1-7-3-9h25a12 12 0 0 1 0 6l-3-4h-6a27 27 0 0 0-6 0c-1 3-2 12-1 16 5 0 9 1 14-1a5 5 0 0 1 0 5c-5-2-9-1-14-1v14a2 2 0 0 0 2 2h12a2 2 0 0 0 2-2l2-2v6Zm-106-6c0 3-1 5-4 6a45 45 0 0 1-16 1c-7 0-12-3-16-9-6-11-1-27 11-31a24 24 0 0 1 18 0c3 2 4 3 3 6-1 1-2-1-3-1-5-4-12-5-18-2s-10 10-8 17c1 8 5 15 13 17 6 2 12 1 18-3l2-1Zm123 7c-2-5-1-11 0-13l1 4a6 6 0 0 0 6 6 18 18 0 0 0 7 0 7 7 0 0 0 6-6c0-3-1-6-4-7l-9-4a11 11 0 0 1-6-14 11 11 0 0 1 10-8 15 15 0 0 1 5 1c4 1 5 3 5 7-2 0-3-2-4-3-3-2-8-2-11 1s-3 8 1 10a90 90 0 0 0 9 3 12 12 0 0 1 4 3c3 3 4 7 3 12s-4 7-9 8a80 80 0 0 1-14 0Zm55 0c-2-5-1-11 0-13l2 4a6 6 0 0 0 4 5 15 15 0 0 0 9 0 7 7 0 0 0 5-6c0-3-2-4-4-6l-8-3c-3-1-5-3-6-6a12 12 0 0 1 8-16 19 19 0 0 1 8 0c2 1 3 4 3 7-2 0-2-1-3-2-3-2-6-3-9-2a7 7 0 0 0-5 6 6 6 0 0 0 4 6l8 4a12 12 0 0 1 3 20 6 6 0 0 1-2 1l-17 1Zm132 0c-1-5-1-11 1-13l1 4a6 6 0 0 0 4 5 15 15 0 0 0 10 0 7 7 0 0 0 4-6c0-3-1-4-4-6l-8-3c-3-1-5-3-6-6a12 12 0 0 1 9-16 19 19 0 0 1 7 0c2 1 3 4 3 7-2 0-2-1-3-2-3-2-6-3-9-2a7 7 0 0 0-5 6 6 6 0 0 0 4 6l9 3a12 12 0 0 1 2 21 6 6 0 0 1-2 1l-17 1Zm-89-3 2 2h-11c0-2 2-1 2-2v-35h-8l-2 2c-2-1-3-3-3-6 10 2 19 1 29 1l3-1c2 3 0 4-1 6-3-4-7-1-11-2v35Zm-54 2-11 1c0-2 2-2 3-4v-16a7 7 0 0 0-2-3l-7-12a17 17 0 0 0-4-5l11-1c-1 3-1 5 1 6l5 9 7-11v-3h7c-4 3-5 7-8 11a19 19 0 0 0-4 14 74 74 0 0 1 0 8c0 2-1 5 2 6Z" fill="#c4020b"/></g></g></svg>