<svg xmlns="http://www.w3.org/2000/svg" width="2531" height="557" version="1.1" viewBox="0 0 2531 557"><g fill="none" fill-rule="nonzero" stroke="none" stroke-width="1"><path d="M726 458v-6h-31v-22h30v-5h-30v-21h31v-6h-38v60h38Zm24 1 8-2 5-6v7h6v-26c0-6-1-10-4-12s-6-4-11-4a30 30 0 0 0-17 5l2 5c5-3 10-5 15-5 3 0 5 1 6 3 2 1 3 4 3 7v3h-2l-15 1c-4 1-7 2-8 4-2 2-3 4-3 7l2 6c2 2 3 4 6 5l7 2Zm1-6-6-2c-2-1-3-3-3-5l2-5 6-2 11-1h2v3c0 3-1 6-4 9-2 2-5 3-8 3Zm45 6c5 0 9-1 12-4 3-2 4-5 4-8s-1-6-3-7c-1-2-4-4-8-5l-7-1-5-3-1-4c0-1 0-3 2-4l7-2c4 0 8 2 12 5l2-5c-1-2-3-3-6-4l-8-1c-5 0-9 1-12 3s-4 5-4 9c0 3 1 5 3 7 1 2 4 3 8 4l7 2 5 2 2 4c0 2-1 3-3 4l-7 2-8-1-6-4-3 5c4 4 10 6 17 6Zm38 14 24-56h-6l-14 34-14-34h-8l18 40-7 16h7Zm56-15 6-15h32l6 15h7l-26-60h-6l-26 60h7Zm35-21h-26l13-31 13 31Zm33 21v-36h12v-5h-12v-3l2-8 8-3h4l-1-5h-3c-6 0-10 2-13 5-2 3-4 7-4 12v2h-8v5h8v36h7Zm28 0v-36h12v-5h-12v-3l2-8 8-3h4l-1-5h-3c-6 0-10 2-13 5s-4 7-4 12v2h-8v5h8v36h7Zm35 1c4 0 8-1 11-3s5-4 7-8l2-11-2-11c-2-4-4-6-7-8s-7-2-11-2-7 0-10 2-5 4-7 8l-2 11 2 11c2 4 4 6 7 8s6 3 10 3Zm0-6c-4 0-7-1-9-4s-3-7-3-12 1-9 3-12c2-2 5-4 9-4s7 2 10 4c2 3 3 7 3 12s-1 9-3 12-6 4-10 4Zm37 5v-24c0-3 1-6 3-8s5-4 9-4h5l-1-6h-2c-7 0-12 3-14 8v-7h-7v41h7Zm38 1c4 0 6-1 9-3 2-1 4-3 5-6v8h7v-60h-7v26c-1-3-3-5-5-6-3-2-5-2-9-2-3 0-6 0-9 2s-5 4-7 8l-2 11 2 11c2 4 4 6 7 8l9 3Zm2-6c-4 0-7-2-10-4-2-3-3-7-3-12s1-9 3-12c3-2 6-4 10-4s7 2 9 4c2 3 3 7 3 12s-1 9-3 12-5 4-9 4Zm45 6 8-2 5-6v7h6v-26c0-6-1-10-3-12s-7-4-12-4a30 30 0 0 0-17 5l3 5c4-3 9-5 14-5 3 0 5 1 7 3l2 7v3h-2l-15 1c-4 1-7 2-8 4-2 2-2 4-2 7l1 6 6 5 7 2Zm1-6-6-2c-2-1-2-3-2-5l1-5 6-2 11-1h2v3c0 3-1 6-4 9-2 2-5 3-8 3Zm52 6a17 17 0 0 0 16-11l2-11-2-11c-2-4-4-6-7-8-2-2-6-2-9-2s-6 0-9 2c-2 1-4 3-5 6v-26h-7v60h7v-8c1 3 3 5 5 6l9 3Zm-2-6c-4 0-7-1-9-4s-3-7-3-12 1-9 3-12a13 13 0 0 1 19 0c2 3 3 7 3 12s-1 9-3 12c-2 2-5 4-10 4Zm37 5v-60h-7v60h7Zm32 1a26 26 0 0 0 8-2l7-4-2-5c-4 3-9 5-13 5-5 0-8-1-10-4-3-2-4-6-4-11h30v-2c0-6-2-11-5-15s-7-5-13-5c-4 0-7 0-10 2l-7 8-2 11c0 7 2 12 5 16 4 4 9 6 16 6Zm10-25h-24c0-4 1-7 4-10 2-2 5-3 8-3 4 0 7 1 9 3 2 3 3 6 3 10Zm45 24v-46l20 36h5l19-36v46h7v-60h-6l-23 44-22-44h-6v60h6Zm83 1a26 26 0 0 0 8-2c3-1 6-2 7-4l-2-5c-4 3-8 5-13 5-4 0-8-1-10-4-3-2-4-6-4-11h30v-2c0-6-1-11-5-15-3-4-7-5-12-5-4 0-8 0-11 2l-7 8-2 11c0 7 2 12 6 16 3 4 8 6 15 6Zm10-25h-24c0-4 2-7 4-10 2-2 5-3 9-3 3 0 6 1 8 3 2 3 3 6 3 10Zm32 25 9-3c2-1 4-3 5-6v8h7v-60h-7v26c-1-3-3-5-5-6-3-2-6-2-9-2-4 0-7 0-9 2-3 2-5 4-7 8l-2 11 2 11c2 4 4 6 7 8 2 2 5 3 9 3Zm1-6c-4 0-7-2-9-4-2-3-3-7-3-12s1-9 3-12c2-2 5-4 9-4s8 2 10 4c2 3 3 7 3 12s-1 9-3 12-6 4-10 4Zm40-47v-7h-8v7h8Zm0 52v-41h-7v41h7Zm30 1a24 24 0 0 0 8-2l7-4-3-5c-3 3-7 5-11 5-5 0-8-1-10-4-3-3-4-7-4-12s1-9 4-11c2-3 5-5 10-5 4 0 8 2 11 5l3-5-7-4a23 23 0 0 0-8-1c-4 0-7 0-10 2-4 2-6 5-8 8l-2 11 2 12 7 7c3 2 7 3 11 3Zm36 0 8-2 5-6v7h7v-26c0-6-2-10-4-12-3-3-7-4-12-4a30 30 0 0 0-17 5l3 5c4-3 9-5 14-5 3 0 5 1 7 3l2 7v3h-2l-15 1-8 4c-2 2-2 4-2 7 0 2 0 5 2 6l5 5 7 2Zm1-6-6-2-2-5 1-5 6-2 11-1h2v3l-3 9c-3 2-5 3-9 3Zm38 5v-60h-7v60h7Zm43 0v-60h-7v60h7Zm20 0v-24c0-4 1-7 3-9s5-4 9-4c3 0 5 1 6 3l2 8v26h7v-24c0-4 1-7 3-9s5-4 8-4 5 1 7 3l2 8v26h6v-26c0-11-4-16-13-16-3 0-6 0-9 2-2 1-4 3-5 6-2-6-6-8-13-8-3 0-5 0-7 2l-6 5v-6h-6v41h6Zm79 1 8-2 5-6v7h6v-26c0-6-1-10-3-12s-7-4-12-4a30 30 0 0 0-17 5l3 5c4-3 9-5 14-5 3 0 5 1 7 3l2 7v3h-2l-15 1-8 4c-2 2-2 4-2 7 0 2 0 5 2 6l5 5 7 2Zm1-6-6-2c-2-1-2-3-2-5l1-5 6-2 11-1h2v3c0 3-1 6-4 9-2 2-4 3-8 3Zm49 21c6 0 11-2 14-5 4-3 5-8 5-14v-38h-7v7c-1-3-3-5-5-6-3-2-6-2-9-2-4 0-7 0-10 2-2 2-5 4-6 7-2 3-2 7-2 11l2 11a17 17 0 0 0 16 10l9-2 5-7v8c0 4-1 7-3 9s-5 3-9 3a26 26 0 0 1-16-5l-2 5c5 4 11 6 18 6Zm-1-23c-4 0-7-1-9-4s-3-6-3-11c0-4 1-8 3-11 2-2 5-4 9-4s8 2 10 4c2 3 3 7 3 11 0 5-1 8-3 11s-6 4-10 4Zm41-45v-7h-9v7h9Zm-1 52v-41h-7v41h7Zm19 0v-24c0-4 2-7 4-9s5-4 9-4c3 0 6 1 7 3 2 2 2 5 2 8v26h7v-26c0-11-5-16-15-16-3 0-5 0-8 2l-6 5v-6h-6v41h6Zm60 16c6 0 11-2 14-5s5-8 5-14v-38h-7v7c-1-3-3-5-5-6-3-2-6-2-9-2-4 0-7 0-10 2s-5 4-6 7a24 24 0 0 0 0 22 17 17 0 0 0 16 10l9-2 5-7v8c0 4-1 7-3 9s-5 3-9 3a26 26 0 0 1-16-5l-2 5c5 4 11 6 18 6Zm-1-23c-4 0-7-1-9-4s-4-6-4-11c0-4 2-8 4-11 2-2 5-4 9-4s7 2 10 4c2 3 3 7 3 11 0 5-1 8-3 11s-6 4-10 4Z" fill="#005295"/><path d="M2219 144a67 67 0 1 1-134 0 67 67 0 0 1 134 0Zm-67-53a53 53 0 1 0 0 105 53 53 0 0 0 0-105Z" fill="#49A942"/><path d="M2192 144a40 40 0 1 1-79 0 40 40 0 0 1 79 0Zm-40-27a27 27 0 1 0 0 54 27 27 0 0 0 0-54ZM849 349c0 1 0 2-2 3l-15 10a74 74 0 0 1-16 7 115 115 0 0 1-21 5 229 229 0 0 1-29 2 122 122 0 0 1-43-7 83 83 0 0 1-31-20 87 87 0 0 1-19-33 136 136 0 0 1-7-43 121 121 0 0 1 8-45 92 92 0 0 1 22-33 94 94 0 0 1 32-20 120 120 0 0 1 42-7 95 95 0 0 1 27 4 167 167 0 0 1 24 9 40 40 0 0 0 10 3c3 0 5-1 6-5a3 3 0 0 1 2-2 9 9 0 0 1 3 0 6 6 0 0 1 3 0 2 2 0 0 1 1 2 91 91 0 0 0-2 26l2 28a3 3 0 0 1-1 3 6 6 0 0 1-3 1 6 6 0 0 1-4 0 3 3 0 0 1-2-3 60 60 0 0 0-22-39 73 73 0 0 0-46-14 54 54 0 0 0-29 8 66 66 0 0 0-20 20 94 94 0 0 0-12 28 137 137 0 0 0-4 31 167 167 0 0 0 5 39 91 91 0 0 0 12 30 60 60 0 0 0 21 20 56 56 0 0 0 28 7 121 121 0 0 0 21-2 46 46 0 0 0 16-6 27 27 0 0 0 10-11 41 41 0 0 0 4-19 70 70 0 0 0-1-14 14 14 0 0 0-5-7 19 19 0 0 0-9-4l-14-2a3 3 0 0 1-3-1 6 6 0 0 1-1-3 6 6 0 0 1 1-4 3 3 0 0 1 2-1l22 1 19 1h8l8-1h18a3 3 0 0 1 3 1v4a6 6 0 0 1 0 2 4 4 0 0 1-3 2 35 35 0 0 0-10 2 11 11 0 0 0-5 4 14 14 0 0 0-2 7v10l1 26Z" fill="#49A942"/><path d="M921 336v13a16 16 0 0 0 3 8 18 18 0 0 0 9 5 85 85 0 0 0 16 3 4 4 0 0 1 3 1v4a6 6 0 0 1 0 2 3 3 0 0 1-3 2l-23-1a172 172 0 0 0-18-1 165 165 0 0 0-19 1 165 165 0 0 1-19 1 3 3 0 0 1-2-2 5 5 0 0 1-1-2 5 5 0 0 1 1-4 4 4 0 0 1 3-1 59 59 0 0 0 12-3 13 13 0 0 0 7-5 16 16 0 0 0 3-7v-78a38 38 0 0 0-3-13 12 12 0 0 0-7-6 53 53 0 0 0-13-2 2 2 0 0 1-2-2 7 7 0 0 1-1-3 6 6 0 0 1 1-3 3 3 0 0 1 2-1l16-2a116 116 0 0 0 22-3 11 11 0 0 1 7 0c1 0 2 2 2 5l-1 19h1a59 59 0 0 1 16-20 37 37 0 0 1 24-7 24 24 0 0 1 18 6 22 22 0 0 1 6 16 14 14 0 0 1-4 9 14 14 0 0 1-11 4 12 12 0 0 1-9-3 11 11 0 0 1-3-8 12 12 0 0 0-2-6 8 8 0 0 0-7-2 16 16 0 0 0-10 3 41 41 0 0 0-8 9 48 48 0 0 0-4 11 28 28 0 0 0-2 8v55Zm90-39-2 1a15 15 0 0 0 0 2 85 85 0 0 0 4 26 45 45 0 0 0 9 18 34 34 0 0 0 14 10 55 55 0 0 0 19 3l19-2a34 34 0 0 0 16-7 4 4 0 0 1 3-1 5 5 0 0 1 3 2 6 6 0 0 1 2 2 3 3 0 0 1-1 3 51 51 0 0 1-21 17 79 79 0 0 1-30 5 81 81 0 0 1-30-6 57 57 0 0 1-22-15 63 63 0 0 1-12-23 96 96 0 0 1-4-28 78 78 0 0 1 5-27 66 66 0 0 1 34-38 63 63 0 0 1 27-5 58 58 0 0 1 23 4 50 50 0 0 1 17 12 55 55 0 0 1 11 18 64 64 0 0 1 4 23c0 4-1 6-4 6h-84Zm54-10c2 0 4-1 5-3v-7a40 40 0 0 0-2-12 36 36 0 0 0-5-11 27 27 0 0 0-9-7 24 24 0 0 0-11-2 32 32 0 0 0-14 2 29 29 0 0 0-10 8 33 33 0 0 0-6 11 68 68 0 0 0-3 13 24 24 0 0 0 0 5l1 3h54Zm78 10-2 1a15 15 0 0 0 0 2 85 85 0 0 0 4 26 45 45 0 0 0 9 18 34 34 0 0 0 15 10 55 55 0 0 0 18 3l19-2a34 34 0 0 0 16-7 4 4 0 0 1 4-1 4 4 0 0 1 2 2 5 5 0 0 1 2 2 3 3 0 0 1-1 3 51 51 0 0 1-21 17 79 79 0 0 1-30 5 81 81 0 0 1-30-6 57 57 0 0 1-21-15 63 63 0 0 1-13-22 96 96 0 0 1-4-28 78 78 0 0 1 5-28 66 66 0 0 1 35-37 63 63 0 0 1 27-6 58 58 0 0 1 22 5 51 51 0 0 1 18 11 55 55 0 0 1 10 18 64 64 0 0 1 4 23c0 4-1 6-4 6h-84Zm54-10c3 0 4-1 5-3v-7a40 40 0 0 0-2-12 36 36 0 0 0-5-11 27 27 0 0 0-9-7 24 24 0 0 0-11-2l-14 2a29 29 0 0 0-10 8 33 33 0 0 0-6 11 68 68 0 0 0-3 13 25 25 0 0 0 0 5l1 3h54Zm90 49v13a26 26 0 0 0 2 8 10 10 0 0 0 4 5 28 28 0 0 0 9 3 4 4 0 0 1 2 1l1 4a5 5 0 0 1-1 2 3 3 0 0 1-2 2 100 100 0 0 1-11-1 130 130 0 0 0-17-1l-19 1a138 138 0 0 1-16 1 3 3 0 0 1-3-2 6 6 0 0 1 0-2 6 6 0 0 1 0-4 4 4 0 0 1 3-1 51 51 0 0 0 11-3 11 11 0 0 0 6-4 16 16 0 0 0 3-8v-73a62 62 0 0 0-2-16 13 13 0 0 0-6-7 21 21 0 0 0-11-3 4 4 0 0 1-3-1 4 4 0 0 1-1-2 4 4 0 0 1 1-3 3 3 0 0 1 3-1 107 107 0 0 0 16-2 184 184 0 0 0 22-5 5 5 0 0 1 7 1 10 10 0 0 1 2 7v12a41 41 0 0 1 6-7 52 52 0 0 1 20-13 41 41 0 0 1 15-3 47 47 0 0 1 35 12 54 54 0 0 1 12 40v64a23 23 0 0 0 2 8 10 10 0 0 0 5 5 33 33 0 0 0 10 2 4 4 0 0 1 3 2v3a6 6 0 0 1 0 3 3 3 0 0 1-3 1 115 115 0 0 1-13-1 144 144 0 0 0-17-1 148 148 0 0 0-18 1l-14 1a3 3 0 0 1-3-1 5 5 0 0 1-1-3 5 5 0 0 1 1-3 4 4 0 0 1 3-2 34 34 0 0 0 10-2 11 11 0 0 0 5-5 18 18 0 0 0 2-8v-57l-1-15a39 39 0 0 0-3-13 25 25 0 0 0-8-10 23 23 0 0 0-13-4 38 38 0 0 0-16 3 34 34 0 0 0-11 7 33 33 0 0 0-7 12 39 39 0 0 0-3 13l2 50Z" fill="#49A942"/><path d="m1486 218-1-16a26 26 0 0 0-4-10 18 18 0 0 0-9-7 47 47 0 0 0-14-3 3 3 0 0 1-3-1 7 7 0 0 1-1-4 6 6 0 0 1 1-3 3 3 0 0 1 3-1l21 1h45l10-1h12a3 3 0 0 1 2 2l1 3a8 8 0 0 1-1 3 3 3 0 0 1-2 2 57 57 0 0 0-15 3 17 17 0 0 0-9 5 24 24 0 0 0-4 11 123 123 0 0 0 0 16v116a74 74 0 0 0 1 15 16 16 0 0 0 4 8 19 19 0 0 0 9 5 109 109 0 0 0 14 2 4 4 0 0 1 3 2 6 6 0 0 1 1 3 5 5 0 0 1-1 3 4 4 0 0 1-3 2l-23-1a217 217 0 0 0-44 0 216 216 0 0 1-22 1 3 3 0 0 1-3-2 6 6 0 0 1-1-3 7 7 0 0 1 1-3 3 3 0 0 1 3-2l15-2a20 20 0 0 0 8-5 16 16 0 0 0 4-8 96 96 0 0 0 1-15l1-116Zm123 118v13a20 20 0 0 0 2 8 12 12 0 0 0 6 5 44 44 0 0 0 11 3 3 3 0 0 1 2 1l1 4a5 5 0 0 1-1 2 3 3 0 0 1-2 2 123 123 0 0 1-15-1 144 144 0 0 0-17-1l-19 1-16 1a3 3 0 0 1-2-2 5 5 0 0 1-1-2 5 5 0 0 1 1-4 4 4 0 0 1 2-1 46 46 0 0 0 12-3 12 12 0 0 0 5-5 18 18 0 0 0 2-7v-78a42 42 0 0 0-2-13 11 11 0 0 0-5-6 32 32 0 0 0-11-2 3 3 0 0 1-2-1 7 7 0 0 1-1-2 4 4 0 0 1 0-3 2 2 0 0 1 2-1l15-3 20-5a7 7 0 0 1 3 0h3a7 7 0 0 1 5 2 7 7 0 0 1 2 6v14h1l5-6a54 54 0 0 1 8-8 57 57 0 0 1 14-7 49 49 0 0 1 18-4 51 51 0 0 1 29 8 47 47 0 0 1 16 22 36 36 0 0 1 5-8 55 55 0 0 1 11-10 68 68 0 0 1 15-8 47 47 0 0 1 18-3 53 53 0 0 1 23 4 34 34 0 0 1 14 12 45 45 0 0 1 7 18 126 126 0 0 1 1 22v59a23 23 0 0 0 2 8 11 11 0 0 0 5 6 32 32 0 0 0 9 2 4 4 0 0 1 3 2l1 3a5 5 0 0 1-1 3 3 3 0 0 1-3 1l-12-1a133 133 0 0 0-17-1l-18 1-16 1a3 3 0 0 1-2-1 5 5 0 0 1-1-3 5 5 0 0 1 1-3 3 3 0 0 1 3-2 39 39 0 0 0 10-2 12 12 0 0 0 6-5 17 17 0 0 0 2-8v-67a59 59 0 0 0-3-15 28 28 0 0 0-8-12 20 20 0 0 0-14-5 32 32 0 0 0-15 4 48 48 0 0 0-13 10 49 49 0 0 0-8 13 32 32 0 0 0-4 14v59a24 24 0 0 0 2 8 9 9 0 0 0 5 4 41 41 0 0 0 10 2 4 4 0 0 1 2 2 6 6 0 0 1 1 3 6 6 0 0 1-1 3 3 3 0 0 1-2 1 102 102 0 0 1-13-1 134 134 0 0 0-17-1 148 148 0 0 0-18 1l-15 1a3 3 0 0 1-2-1 5 5 0 0 1-1-3 5 5 0 0 1 1-3 4 4 0 0 1 3-2 53 53 0 0 0 10-2 9 9 0 0 0 5-4 17 17 0 0 0 2-8v-51l-1-17a59 59 0 0 0-3-15 28 28 0 0 0-8-12 22 22 0 0 0-15-5 37 37 0 0 0-17 4 34 34 0 0 0-12 10 39 39 0 0 0-7 13 48 48 0 0 0-2 14l1 44Zm312 4a37 37 0 0 0 2 15 7 7 0 0 0 8 4 16 16 0 0 0 5-1 35 35 0 0 0 6-3 2 2 0 0 1 2 0 6 6 0 0 1 2 2 4 4 0 0 1 1 2v2a35 35 0 0 1-27 14 24 24 0 0 1-15-4 30 30 0 0 1-9-11h-2a67 67 0 0 1-18 11 64 64 0 0 1-26 4 35 35 0 0 1-25-9 35 35 0 0 1-10-25c0-14 8-27 21-33a117 117 0 0 1 57-12s1 0 1-1v-15a76 76 0 0 0-1-14 37 37 0 0 0-4-11 20 20 0 0 0-8-8 26 26 0 0 0-12-3 33 33 0 0 0-18 5 13 13 0 0 0-7 11 12 12 0 0 0 2 6 11 11 0 0 1 2 6 11 11 0 0 1-4 8 14 14 0 0 1-10 4 14 14 0 0 1-11-4 16 16 0 0 1-4-10 26 26 0 0 1 4-14 38 38 0 0 1 12-12 65 65 0 0 1 16-7 71 71 0 0 1 20-3 58 58 0 0 1 38 11 44 44 0 0 1 13 36l-1 59Zm-27-29a15 15 0 0 0 0-4l-2-1a75 75 0 0 0-36 10 24 24 0 0 0-11 21 24 24 0 0 0 4 15 17 17 0 0 0 15 6 42 42 0 0 0 14-2 41 41 0 0 0 14-8 7 7 0 0 0 2-5v-32Zm174-54a44 44 0 0 1 6 14 61 61 0 0 1 2 14 52 52 0 0 1-5 23 49 49 0 0 1-13 16 58 58 0 0 1-20 10 73 73 0 0 1-23 4h-9l-11 1a29 29 0 0 0-9 3 6 6 0 0 0-4 5 5 5 0 0 0 3 5 27 27 0 0 0 7 3l9 1h7l38 4a109 109 0 0 1 29 7 40 40 0 0 1 17 14 41 41 0 0 1 7 24 56 56 0 0 1-5 23 52 52 0 0 1-15 20 76 76 0 0 1-25 13 113 113 0 0 1-34 4c-10 1-19 0-29-2a72 72 0 0 1-23-9 41 41 0 0 1-15-15 48 48 0 0 1-3-36 38 38 0 0 1 6-10 45 45 0 0 1 8-9 42 42 0 0 1 9-6 46 46 0 0 1-13-7 16 16 0 0 1-5-13 20 20 0 0 1 3-12 24 24 0 0 1 8-8 41 41 0 0 1 11-4 78 78 0 0 1 13-2 56 56 0 0 1-24-16 43 43 0 0 1-8-29 53 53 0 0 1 4-22 46 46 0 0 1 13-16 57 57 0 0 1 19-11 80 80 0 0 1 26-4 59 59 0 0 1 25 4 66 66 0 0 1 17 12 54 54 0 0 1 13-10 38 38 0 0 1 17-3h7a25 25 0 0 1 8 2 16 16 0 0 1 5 5c2 2 3 4 3 7a16 16 0 0 1-3 9 12 12 0 0 1-10 4 9 9 0 0 1-8-3 16 16 0 0 1-2-5 45 45 0 0 0-2-5l-6-2-9 2a16 16 0 0 0-7 6Zm-80 124a27 27 0 0 0-8 12 41 41 0 0 0-3 16 38 38 0 0 0 4 19 42 42 0 0 0 12 13 50 50 0 0 0 17 8 71 71 0 0 0 20 3 48 48 0 0 0 30-11 38 38 0 0 0 10-12 32 32 0 0 0 3-14 21 21 0 0 0-7-17 45 45 0 0 0-18-10 141 141 0 0 0-27-5l-33-2Zm28-54a24 24 0 0 0 22-10 54 54 0 0 0 6-29 136 136 0 0 0-1-18 44 44 0 0 0-3-14 23 23 0 0 0-8-9 24 24 0 0 0-13-3 26 26 0 0 0-15 4 28 28 0 0 0-9 10 44 44 0 0 0-4 15 97 97 0 0 0-2 15 53 53 0 0 0 7 30 22 22 0 0 0 20 9Zm154 9v13a21 21 0 0 0 3 8 13 13 0 0 0 5 5 39 39 0 0 0 10 3 4 4 0 0 1 3 1l1 4a5 5 0 0 1-1 2 3 3 0 0 1-3 2 115 115 0 0 1-14-1 142 142 0 0 0-17-1 157 157 0 0 0-19 1 149 149 0 0 1-17 1 3 3 0 0 1-2-2 5 5 0 0 1-1-2 5 5 0 0 1 1-4 4 4 0 0 1 2-1 51 51 0 0 0 12-3 12 12 0 0 0 6-5 16 16 0 0 0 3-7v-59l-1-21a31 31 0 0 0-3-11 11 11 0 0 0-6-6 48 48 0 0 0-11-2 3 3 0 0 1-3-2 6 6 0 0 1-1-3 5 5 0 0 1 1-3 3 3 0 0 1 3-1l7-1 9-1 10-1 9-1a31 31 0 0 0 5-2 9 9 0 0 1 3 0 5 5 0 0 1 4 2 8 8 0 0 1 1 3l1 95Zm79 0v13l2 8a11 11 0 0 0 4 5 28 28 0 0 0 9 3 3 3 0 0 1 2 1l1 4a5 5 0 0 1-1 2 3 3 0 0 1-2 2 97 97 0 0 1-11-1 132 132 0 0 0-17-1 155 155 0 0 0-19 1l-16 1a3 3 0 0 1-2-2 5 5 0 0 1-1-2 5 5 0 0 1 1-4 4 4 0 0 1 2-1 50 50 0 0 0 12-3 11 11 0 0 0 6-4 18 18 0 0 0 2-8v-73a61 61 0 0 0-2-16 13 13 0 0 0-6-7 22 22 0 0 0-11-3 4 4 0 0 1-3-1 4 4 0 0 1-1-2 4 4 0 0 1 1-3 3 3 0 0 1 3-1 107 107 0 0 0 17-2 188 188 0 0 0 22-5 5 5 0 0 1 6 1 10 10 0 0 1 2 7v12a53 53 0 0 1 6-7 51 51 0 0 1 9-8 51 51 0 0 1 12-5 40 40 0 0 1 14-3 48 48 0 0 1 35 12 54 54 0 0 1 13 40v64c0 3 0 6 2 8a10 10 0 0 0 5 5 33 33 0 0 0 10 2 4 4 0 0 1 2 2l1 3a5 5 0 0 1-1 3 3 3 0 0 1-2 1 112 112 0 0 1-13-1 156 156 0 0 0-35 0l-15 1a3 3 0 0 1-2-1 5 5 0 0 1-1-3 5 5 0 0 1 1-3 4 4 0 0 1 3-2 34 34 0 0 0 10-2 11 11 0 0 0 5-5 20 20 0 0 0 2-8v-57l-1-15a42 42 0 0 0-3-13 27 27 0 0 0-8-10 23 23 0 0 0-14-4 39 39 0 0 0-15 3 34 34 0 0 0-11 7 30 30 0 0 0-7 12 37 37 0 0 0-2 13v50Zm230-79a47 47 0 0 1 6 14 67 67 0 0 1 2 14 52 52 0 0 1-5 23 49 49 0 0 1-13 16 61 61 0 0 1-20 10 73 73 0 0 1-23 4h-9l-11 1-9 3a6 6 0 0 0-4 5 5 5 0 0 0 3 5 25 25 0 0 0 7 3 67 67 0 0 0 9 1h7l38 4a110 110 0 0 1 29 7c15 6 25 21 24 38a56 56 0 0 1-5 23 52 52 0 0 1-15 19 74 74 0 0 1-25 13 114 114 0 0 1-34 5 139 139 0 0 1-29-3 74 74 0 0 1-23-9 41 41 0 0 1-15-15 48 48 0 0 1-3-35 40 40 0 0 1 6-11 53 53 0 0 1 8-9 42 42 0 0 1 9-6 47 47 0 0 1-13-6 16 16 0 0 1-5-14 21 21 0 0 1 3-12 25 25 0 0 1 8-7 41 41 0 0 1 12-5 78 78 0 0 1 12-1 57 57 0 0 1-23-17 44 44 0 0 1-9-28 52 52 0 0 1 5-22 47 47 0 0 1 12-17 59 59 0 0 1 20-11 81 81 0 0 1 25-4 59 59 0 0 1 25 5 68 68 0 0 1 17 11 54 54 0 0 1 13-9 38 38 0 0 1 17-4 49 49 0 0 1 8 1 24 24 0 0 1 7 2 16 16 0 0 1 6 4 11 11 0 0 1 2 7 15 15 0 0 1-3 9 11 11 0 0 1-10 4 9 9 0 0 1-7-2 22 22 0 0 1-3-5 44 44 0 0 0-2-5c-1-2-3-3-6-3a22 22 0 0 0-9 3 17 17 0 0 0-7 6Zm-80 124a27 27 0 0 0-8 12 41 41 0 0 0-3 16 37 37 0 0 0 4 19 42 42 0 0 0 12 13 49 49 0 0 0 17 8 71 71 0 0 0 20 3 46 46 0 0 0 17-3 47 47 0 0 0 13-8 41 41 0 0 0 10-12 32 32 0 0 0 3-14 21 21 0 0 0-7-16 45 45 0 0 0-18-10 141 141 0 0 0-27-5l-33-3Zm28-54c9 1 17-3 22-10a53 53 0 0 0 7-29 136 136 0 0 0-1-18 42 42 0 0 0-4-14 22 22 0 0 0-8-9 23 23 0 0 0-13-3 26 26 0 0 0-15 4 28 28 0 0 0-9 10 47 47 0 0 0-5 14 97 97 0 0 0-1 15 53 53 0 0 0 7 30 22 22 0 0 0 20 10Z" fill="#005295"/><path d="M2167 144a15 15 0 1 1-15-15 14 14 0 0 1 11 4 15 15 0 0 1 4 11Z" fill="#49A942"/><path d="M159 379c-53-55-63-138-26-205l1-1H0v206h159ZM380 53 242 89a173 173 0 0 0-70 37l1-126h207v53Zm0 368a176 176 0 0 1-85 22c-45 0-89-18-121-50v159h206V421Zm122-248-37 139a174 174 0 0 1-35 67h123V173h-51Z" fill="#005295"/><path d="m210 330-33 33a148 148 0 0 1 68-249l230-62a15 15 0 0 1 11 2L334 206l-6-64a10 10 0 0 0-3-5c-4-4-10-4-14 0a10 10 0 0 0-3 8l7 79-34 34-6-64c0-2-1-4-3-5-4-4-10-4-14 0a10 10 0 0 0-3 9l8 79-34 34-6-64a10 10 0 0 0-3-5c-4-4-10-4-14 0a10 10 0 0 0-3 8l7 80Zm15 14-34 34a149 149 0 0 0 250-69l62-229a14 14 0 0 0-2-11L348 221l65 6a10 10 0 0 1 5 3 10 10 0 0 1 0 14 10 10 0 0 1-8 3l-80-7-34 33 64 6a11 11 0 0 1 5 3 10 10 0 0 1 0 14 10 10 0 0 1-8 3l-80-7-34 34 65 6a10 10 0 0 1 5 3 10 10 0 0 1 0 14 10 10 0 0 1-9 3l-79-8Z" fill="#49A942"/></g></svg>