<svg id="Layer_1" data-name="Layer 1" xmlns="http://www.w3.org/2000/svg" xmlns:xlink="http://www.w3.org/1999/xlink" viewBox="0 0 1000 1000"><defs><style>.cls-1{fill:url(#linear-gradient);}.cls-2{fill:url(#linear-gradient-2);}.cls-3{fill:url(#linear-gradient-3);}.cls-4{fill:url(#linear-gradient-4);}.cls-5{fill:#007d22;}.cls-6{fill:#c4020b;}</style><linearGradient id="linear-gradient" x1="758.27" y1="380.92" x2="556.84" y2="117.35" gradientUnits="userSpaceOnUse"><stop offset="0" stop-color="#eb0004"/><stop offset="0.21" stop-color="#e70004"/><stop offset="0.43" stop-color="#db0003"/><stop offset="0.65" stop-color="#c60002"/><stop offset="0.86" stop-color="#aa0001"/><stop offset="1" stop-color="#940000"/></linearGradient><linearGradient id="linear-gradient-2" x1="580.58" y1="268.83" x2="580.58" y2="445.33" gradientUnits="userSpaceOnUse"><stop offset="0" stop-color="#e60004"/><stop offset="0.2" stop-color="#d50003"/><stop offset="0.73" stop-color="#ac0001"/><stop offset="1" stop-color="#9c0000"/></linearGradient><linearGradient id="linear-gradient-3" x1="416.68" y1="268.83" x2="416.68" y2="445.33" xlink:href="#linear-gradient-2"/><linearGradient id="linear-gradient-4" x1="200.08" y1="375.18" x2="508.43" y2="169.12" gradientUnits="userSpaceOnUse"><stop offset="0" stop-color="#eb0004"/><stop offset="0.19" stop-color="#e50004"/><stop offset="0.43" stop-color="#d50003"/><stop offset="0.7" stop-color="#ba0002"/><stop offset="1" stop-color="#940000"/><stop offset="1" stop-color="#940000"/></linearGradient></defs><title>UHCS</title><path class="cls-1" d="M817.23,379.81c-.57-9.43-2.9-18.55-5.36-27.59a192.81,192.81,0,0,0-10.65-29.47,218.61,218.61,0,0,0-17.63-31.4,240,240,0,0,0-28.66-34.53,270.72,270.72,0,0,0-32.9-28.4,304.17,304.17,0,0,0-32.44-20.77c-9.58-5.29-19.33-10.26-29.37-14.6a370,370,0,0,0-35.36-13.39c-11.11-3.51-22.37-6.51-33.72-9.14-8.22-1.9-16.49-3.58-24.85-4.73-5.51-.76-11-1.85-16.52-2.38s-11.38-1-17.07-1.45c-6.85-.59-13.66-1.55-20.56-.93,3.71-.06,7.34.76,11,1.27a86.68,86.68,0,0,1,20.56,5.55c7.92,3.21,15.82,6.42,23.12,11,2.29,1.43,4.6,2.91,6.91,4.32,2.51,1.53,5.41,2.67,7.41,4.84,3.49,3.8,7.86,6.47,11.72,9.78,9.95,8.52,18,18.72,26.3,28.71a97.13,97.13,0,0,1,10,15.1c1.85,3.35,4.44,6.14,6.14,9.58,5.33,10.76,10,21.82,15,32.72,2.69,5.83,4.2,12.12,6,18.27,1.59,5.58,3.49,11.06,4.64,16.78,1,5,1.66,10.09,2.93,15A79.18,79.18,0,0,1,666,348.37c.23,3.32.76,6.62,1,9.93.46,6.75,1.91,13.41,1.62,20.22-.11,2.78,0,5.56,0,8.34l.73.27c.16-.31.31-.62.49-.91,5.63-9.19,13.61-15.85,22.87-21.08,15.39-8.7,32.18-12.09,49.63-12.78,3.81-.15,7.61.35,11.4.51a101.87,101.87,0,0,1,27.61,5.28C793.22,362.07,804,368,812.91,377c1.4,1.4,2.39,3.19,4.32,4.53C817.23,380.73,817.26,380.27,817.23,379.81Z"/><path class="cls-2" d="M654.24,357.31c-.83-9.11-1.35-18.25-3.69-27.15-1.41-5.4-2.09-10.94-3.77-16.32-1.73-5.54-3.7-11-5-16.7a47.68,47.68,0,0,0-4.14-11.35c-3-5.81-5.45-11.87-8.08-17.83a115.28,115.28,0,0,0-10.77-19.27c-1.78-2.55-2.91-5.44-4.74-7.95-5.12-7-10.77-13.5-16.21-20.2a101.54,101.54,0,0,0-15.36-15.11c-5.16-4.13-9.94-8.85-15.82-12-4.69-2.54-8.79-6.1-13.86-8a16.24,16.24,0,0,1-3.57-2.33c-2.4-1.71-4.48-4-7.3-5a24,24,0,0,1-4.77-2.34c-3.44-2.14-6.75-4.59-10.59-5.91-6.07-2.1-12.25-3.91-18.38-5.83a4.2,4.2,0,0,0-3.33-.07V388.21a85.35,85.35,0,0,1,8.59-10.81c9.31-9.71,20.85-15.75,33.5-19.68a114.37,114.37,0,0,1,41.56-4.88,111.55,111.55,0,0,1,32.74,6.64c12.9,4.89,24.39,11.86,32.84,23.12.45.59.61,1.62,1.94,1.52a69.27,69.27,0,0,0-.16-12.39C655.35,366.93,654.68,362.13,654.24,357.31Z"/><path class="cls-3" d="M489.45,163.9c-7.59,1.12-14.07,5-20.73,8.38-5.19,2.65-10.13,5.75-15.23,8.55-6,3.31-12.19,6.38-18.21,9.73-7.88,4.38-14.61,10.18-21.45,15.85-2,1.64-4,3.34-5.89,5.09a111.69,111.69,0,0,0-7.9,8.55c-4.48,5-8.68,10.33-13,15.51-2.37,2.85-4,6.16-5.92,9.3-3.33,5.45-7.27,10.54-10,16.39-1.14,2.47-2.46,4.86-3.74,7.27A158.51,158.51,0,0,0,356,296.16c-1.5,4.88-3.17,9.71-4.45,14.65-1,3.9-2.43,7.67-3.18,11.68-1.63,8.65-3.25,17.29-4.56,26-.83,5.51-1.47,11-1.94,16.58-.53,6.16-.33,12.38-.42,18.57,0,.85-.23,1.8.48,2.58a3.88,3.88,0,0,0,.66-.58c8.92-13.54,21.84-21.65,36.79-26.94a114.73,114.73,0,0,1,49.24-5.8,107.16,107.16,0,0,1,31.82,7.55c12.07,5,22.74,12,30.53,22.77a.66.66,0,0,0,1.05.23V164.2A3.14,3.14,0,0,0,489.45,163.9Z"/><path class="cls-4" d="M359,257.62c3.14-5.86,6.13-11.8,10-17.22,3-4.15,5-8.9,8.23-12.92,1.78-2.23,3.89-4.13,5.58-6.44a161.63,161.63,0,0,1,11.81-13.67,101.27,101.27,0,0,1,9.75-9.22c6.35-5.3,12.45-10.82,19.55-15.23a189.11,189.11,0,0,1,26.49-13.87c3.4-1.43,6.77-3.09,10.32-3.94,6.83-1.63,13.78-2.76,20.68-4.1a9,9,0,0,0-2.86-.21c-6.59.6-13.18,1.52-19.79,1.8-9.29.39-18.41,2-27.52,3.47a396.55,396.55,0,0,0-58.48,14.31,368.7,368.7,0,0,0-41.46,16.35c-9.68,4.5-19.09,9.62-28.32,15.08a288.75,288.75,0,0,0-48,35.1,240.91,240.91,0,0,0-31.23,33.71,226,226,0,0,0-25.74,43.11,195.79,195.79,0,0,0-14.39,47.68c-.4,2.45-1.44,5-.69,7.61,1.14-.08,1.52-1,2-1.53a67,67,0,0,1,20.81-14.87c18.31-8.59,37.57-11.49,57.69-9.81a115.62,115.62,0,0,1,24.86,4.7c10.9,3.41,21,8.43,29.67,16a72.79,72.79,0,0,1,10.29,11.12c.26-10.9,1.08-21.64,2.37-32.37.57-4.72,1.19-9.45,1.87-14.12.9-6.21,2.24-12.4,3.66-18.53a312,312,0,0,1,10.26-34.38A206.48,206.48,0,0,1,359,257.62Z"/><path class="cls-5" d="M492,484.05q0-40.05,0-80.11a44.36,44.36,0,0,1,.72-7.46,6,6,0,0,1,2.76-4.34c3.76-2.43,7.83-.94,8.75,3.6a63.15,63.15,0,0,1,1.05,12.44q0,35.24,0,70.46,0,44,0,88a8.53,8.53,0,0,0,1.48,5.38c2.8,3.82,3.53,8.28,3.55,12.87,0,15.73.28,31.48-.1,47.2a62.59,62.59,0,0,1-7.37,27.73c-5,9.51-13.06,15.36-22,20.54-7.15,4.14-14.92,5.7-22.95,5.7-6.18,0-12.64-.55-18.21-3.09-7.08-3.23-14.13-6.93-19.7-12.71-1.76-1.82-2.95-4-4.46-6a51,51,0,0,1-9.76-23.86c-.58-3.78-.26-7.26,2.53-10.33,3.31-3.64,7.35-4.36,11.73-3.19,4.21,1.13,6.85,4.21,8.05,8.36.86,3,1.31,6,2.16,9a25.64,25.64,0,0,0,15.55,17.5,32.23,32.23,0,0,0,11.21,2c9.54.3,17.8-2.62,23.82-10.55a22.84,22.84,0,0,0,3.7-7.68,45.59,45.59,0,0,0,1.79-12.68q0-23.43,0-46.85c0-2.15.05-4.29.16-6.44a9.82,9.82,0,0,1,2.51-6.53c2.36-2.47,3.09-5.38,3.08-8.8-.1-26.7,0-53.41,0-80.11Z"/><path class="cls-5" d="M515.81,157.59H481.43c5.36-10,11.18-19.44,16.93-29.7C504.53,137.87,509.92,147.62,515.81,157.59Z"/><path class="cls-6" d="M373.06,718.12c-5.83,13-11.58,25.91-17.45,38.79s-11.54,26-18.14,38.79c-10-25.84-19.22-51.79-28.32-77.72-3.13-.16-5.84-.4-8.32.09a2.61,2.61,0,0,0-1,2.11c-2.07,27.64-3.91,55.3-6.58,82.89a3.81,3.81,0,0,0,.33,1.18,15.41,15.41,0,0,0,6.4-.09c1-24.95,3.28-49.78,5.47-74.8,9.95,24.85,18.69,50.08,27.91,75H341c.39-.7.78-1.29,1.07-1.93q9.43-21.4,18.87-42.82,6.07-13.73,12.25-27.39c.49-1.08.71-2.53,2.54-3.15.56,12.77-.85,25.23-.51,37.69s-1,24.9-.68,37.33a16.12,16.12,0,0,0,7,.19,5,5,0,0,0,.48-3.06c-.66-10.12-.53-20.26-.45-30.39.14-16.2.47-32.41.67-48.62,0-1.37.4-2.85-.65-4.3C378.77,717.93,375.93,717.52,373.06,718.12Z"/><path class="cls-6" d="M773.55,761c-5.11-14.33-10.19-28.67-15.24-42.9a23.48,23.48,0,0,0-7.71,0l-41.05,80.67c-14.07.29-27.83.5-41.84.14.65-27.16,2.33-53.84,3-80.59a11.06,11.06,0,0,0-6.92.12c-.51,28.53-1.3,57.12-3.22,85.91h53.45q9.81-20.3,19.54-40.4h34.46q7.42,20.16,14,40.33A15.75,15.75,0,0,0,789,804C784,789.55,778.65,775.33,773.55,761ZM737,757.92c.63-3.21,2.6-5.63,3.84-8.34s2.65-5.32,4-8,2.75-5.53,4.24-8.24,2.27-5.46,4.82-8.38l12,32.93Z"/><path class="cls-6" d="M445.13,760.4a4.78,4.78,0,0,1-2.35-1.48,15.52,15.52,0,0,1,1.27-.91c9.13-5.26,13.05-13.11,11.86-23.59a17.68,17.68,0,0,0-13-15.38,50.21,50.21,0,0,0-14.9-1.42c-7,.23-14.06.33-21.09,0a4.45,4.45,0,0,0-3.54.88c-.6,28.26-1.24,56.9-3.21,85.74,1.23.13,1.82.26,2.4.25,9.42,0,18.84,0,28.26-.07a36.23,36.23,0,0,0,6.73-.84c11-2.1,20.71-10.49,19.93-24.77C457.05,770.15,453.12,763.94,445.13,760.4Zm-34.87-36.83c.58-.26.79-.44,1-.44,8.91,0,17.81-.5,26.72.42a13.38,13.38,0,0,1,11.87,12.89c.19,10.59-5.81,19-17.8,20-7.31.63-14.73.14-22.1.14-.2,0-.4-.21-.73-.39C409.13,745.4,409.71,734.52,410.26,723.57Zm41.07,58.14c-1.17,10.87-8.13,16.12-17.89,17.07-8.17.8-16.42.28-24.64.35a8.75,8.75,0,0,1-1.46-.39c.64-12.07.38-24,1.49-35.74a1.68,1.68,0,0,1,1.64-.66c8.57.17,17.14-.38,25.7.49A16.72,16.72,0,0,1,451.33,781.71Z"/><path class="cls-6" d="M498.86,763a26.88,26.88,0,0,0,12.88-3.71c9.75-5.65,14.17-16,11.74-27.25-1.59-7.4-6.36-12.43-14.28-13.66a56.41,56.41,0,0,0-11.39-.8c-6.43.3-12.85.38-19.29,0-1.27-.06-2.63-.26-4.11,1-.56,28.3-1.53,56.91-3.12,85.53a17,17,0,0,0,7.22-.13c.55-27,1.07-53.92,2.56-81,5.83,0,11.19.06,16.54,0a68.22,68.22,0,0,1,9.26.69c4.81.59,8.33,3.19,10,7.63,3.18,8.6,0,18.57-7.89,23.07-5.65,3.23-11.85,4.08-18.29,3.4-2.07-.22-4.14-.85-6.79,0,10.84,15.84,22.1,31,32.3,46.61a34.46,34.46,0,0,0,7-.15c.25-1.82-.89-2.7-1.61-3.72q-12.12-17-24.29-34c-.66-.94-1.73-1.73-1.22-3.14A5,5,0,0,1,498.86,763Z"/><path class="cls-6" d="M272.27,718.15a3.14,3.14,0,0,0-.69,2.46c0,14.42-1.05,28.8-1.61,43.19a139.23,139.23,0,0,1-1.46,17.06c-1.35,8.27-5.75,14.3-13.79,17.19a44.28,44.28,0,0,1-28.09.63c-7.89-2.35-13-7.72-14.35-16.16a39.23,39.23,0,0,1-.4-6.4c0-12.4,1.28-24.73,1.73-37.11.2-5.7.74-11.39,1-17.09.07-1.26.43-2.63-.67-3.85a12.06,12.06,0,0,0-5.61,0,2.54,2.54,0,0,0-.68,1.88c-.46,11.55-1,23.08-1.35,34.63-.26,8.09-1.09,16.16-.77,24.28.39,9.87,4.19,17.67,13.26,22.43a37.72,37.72,0,0,0,13.9,4.23c9.74,1,19.28.36,28.25-4,6.91-3.39,11.46-8.68,13.19-16.31,1.58-7,1.9-14.13,2.14-21.27.27-7.73.7-15.46,1.09-23.18.33-6.42.71-12.84,1-19.27.05-1.14.37-2.4-.88-3.56A14.09,14.09,0,0,0,272.27,718.15Z"/><path class="cls-6" d="M583.71,717.61c-13.35.29-26.7.38-40,0-1.53,0-3.09-.2-4.65,1,.16,28.47-1.48,57-2.88,85.63h49.62a7.62,7.62,0,0,0,.11-5.45c-14.18.18-28.4.48-42.55,0-.54-5.75.57-33.24,1.49-35.9,6.42,0,13,.07,19.51,0s13.26.39,19.83-.18a8.23,8.23,0,0,0,.1-5.26c-13.11-.17-26.26.14-39.78-.18.37-11.51.73-22.53,1.12-34.35,14.79.13,29-.46,43.13.58a6.4,6.4,0,0,0,.4-5.37C587.29,717.2,585.46,717.58,583.71,717.61Z"/><path class="cls-6" d="M610.14,798.89c.47-27.08,2.06-53.77,3.12-80.47a12.65,12.65,0,0,0-6.82-.24c-.71,14.54-.93,28.82-1.43,43.09s-1.33,28.65-2,43.11h48a6,6,0,0,0,.3-5.49C637.61,798.89,624,799.35,610.14,798.89Z"/><path class="cls-6" d="M309.45,834.92c-.63-.85-2-.43-2.14-1.7,2.43-1.29,8.55-1.32,11,0,0,1.51-1.77.83-2.54,2.17v8.59c0,6.39,0,12.77,0,19.15,0,4.13,1.22,5.32,5.42,5.44,1.85.06,3.71,0,5.57,0,3.63-.06,4.92-1.17,5.64-4.78.18-.87-.05-1.85.61-2.62,1.74,1.26,2,3.52,1.19,9.93-6,.86-12.07.26-18.13.38s-12,0-18.43,0c.93-2.89-.11-5-1.08-7.22-1.13-2.54-2.17-5.12-3.08-7.75a3.22,3.22,0,0,0-3.65-2.44c-2.3.11-4.61,0-7.23,0-1.92,5.63-5.18,10.73-5.79,17-2.88.68-29.78.59-32.33-.22a1,1,0,0,1,.71-1.35c1.37-.5,1.54-1.6,1.54-2.81,0-9.75,0-19.49,0-29.24a3.68,3.68,0,0,0-2.54-3.76c.08-1.27.82-1.33,1.51-1.33q11,0,21.93,0a6.08,6.08,0,0,1,1.21.34,11.56,11.56,0,0,1-.06,5.87c-1.34.34-1.54-.45-1.75-1.28-.44-1.77-1.65-2.34-3.39-2.24-3.56.19-7.15-.26-10.94.3V850.3c4.68-.06,9.22.91,13.86-.83.75,1.39.39,2.84.31,4.53-4.72-1.45-9.35-.68-13.89-.79-1,4.62-.68,11.51.51,14.73,1.08.88,2.41.55,3.65.59,1.63.06,3.25,0,4.88,0,5.41,0,5.41,0,8.32-3.49,1.68.8.08,3,1.76,3.93,1.81-.44,2.07-2.23,2.63-3.63,3-7.41,5.88-14.87,8.81-22.31,1.24-3.13,2.48-6.25,3.76-9.36.3-.72.44-1.6,1.53-2,1.48.21,1.58,1.7,2,2.77,3.17,7.73,6.27,15.48,9.38,23.22,1.22,3,2.34,6.06,3.66,9,1.23,2.78,1.89,3,5.48,2.26Zm-22,7.22a52.84,52.84,0,0,0-3.57,9.13,14.07,14.07,0,0,0,7.09-.08C290.4,848.05,289.08,845.43,287.44,842.14Z"/><path class="cls-6" d="M724.43,832.89c2.9-.94,5.55-.62,8.51-.29,4,9.29,8.08,18.6,12.2,28.09,1.47-.66,1.72-1.83,2.16-2.83q4.76-11,9.51-22c1.56-3.64,1.54-3.66,5.66-3.52a16.16,16.16,0,0,1,2.38.31c.15,0,.26.34.55.75-3.57,1.47-2.75,4.5-2.39,7.26,1.11,8.49,2.34,17,3.55,25.46.25,1.72.7,3.37,2.62,4.46-3.29,1.26-6.32,1-10.22.58,2.28-2.28,1.87-4.35,1.52-6.53-.9-5.6-1.61-11.24-2.36-16.86a6.59,6.59,0,0,0-1-3.43c-1.12.41-1.25,1.54-1.62,2.39-3.2,7.33-6.33,14.69-9.54,22-.39.89-.46,2.11-2.25,2.59-1.84-2.58-2.74-5.81-4.12-8.76s-2.58-6-3.88-8.93-2.69-6.08-4-9.06c-1.41.23-1.36,1.13-1.47,1.89-.91,6.64-1.77,13.29-2.75,19.92a4.34,4.34,0,0,0,1.14,3.9,1.26,1.26,0,0,1-1.37,1.13q-15.13,0-30.27,0a5.38,5.38,0,0,1-1.27-.32c0-.33-.16-.71-.09-.76,2.14-1.27,2.47-3.18,2.44-5.52-.12-8.7,0-17.4-.05-26.1,0-2.18.36-4.6-2.62-4.94.07-1.18.63-1.39,1.21-1.39,7.75,0,15.51,0,23.36,0a9.57,9.57,0,0,1,0,6.38c-2.17-.47-1.38-2.7-2.78-3.47H704c-.3,4.94-.1,9.83-.11,15.15,5-.18,9.57.55,14.13-.72.67,1.38.33,2.71.23,4.29-4.75-1.45-9.32-.61-14.35-.89,0,4.62-.28,8.86.23,13.1.2,1.64,1.22,2.36,2.89,2.34,3.37,0,6.73,0,10.1,0,1.82,0,3.21-.42,3.48-2.52.09-.67.53-1,1.53-.83,1.06.89-.12,2.78,1.24,4.12,1.61-3.16,1.48-6.41,2-9.48,1-5.59,1.65-11.23,2.43-16.85.2-1.37.36-2.75.51-4.14.25-2.32-.32-4.14-2.93-4.73C725.09,834.07,724.94,833.62,724.43,832.89Z"/><path class="cls-6" d="M538.93,868.05c.39,1-.4,1.44-1.08,1.87-4.52,2.84-11.29,3-15.11-1.83a138.68,138.68,0,0,1-8.3-11.58c-2.25-3.51-2.33-3.54-7.08-2.48,0,4.53.07,9.15,0,13.75,0,1.61,2.11,1.43,2.05,2.89-2.32,1-16.87,1.19-21.43.32.82-2,.12-3.9-.71-5.8-1.57-3.59-3-7.24-4.48-10.87a53.76,53.76,0,0,0-9.47-.1c-3,4.62-6.24,13.9-5.74,16.86-2.12.65-4.19.39-7.19,0,5.22-3.76,5.8-9.14,7.76-13.79,3.28-7.8,6.27-15.72,9.4-23.58.29-.71.47-1.57,1.39-1.94,1.55,0,1.65,1.36,2.06,2.36q6.23,15.29,12.39,30.61c.22.53.43,1.07.67,1.6,1.6,3.65,3.07,4.21,7,2.54v-34c-.11-.82-2-.3-1.94-1.82.44-1,1.49-.73,2.35-.73,4.41,0,8.82,0,13.23,0H515c3.68.29,7,1.51,8.5,5.07a10.11,10.11,0,0,1-1.72,10.77,25.49,25.49,0,0,1-3,2.75,3.74,3.74,0,0,0,.9,3A97.6,97.6,0,0,0,528,865.52c2.5,2.92,5.4,3.83,9,2.38C537.68,867.64,538.33,867.31,538.93,868.05Zm-31.44-17.47c4.76.93,8.73-.15,10.2-3,1.72-3.26,1.19-6.52-.82-9.52s-4.79-3.67-9.38-2.55Zm-29.71-8.47a35.88,35.88,0,0,0-3.62,9.07,13.06,13.06,0,0,0,7.07.08C480.67,848.14,479.28,845.55,477.78,842.11Z"/><path class="cls-6" d="M404.23,870.66a23.25,23.25,0,0,1-10.75.22c3.24-1.86,2.48-4.75,2.49-7.39,0-3.46,0-6.92,0-10.63H377.2V868.6c.37.95,1.82.7,1.95,2-.32,1.22-6.88,1.42-10.66,0,2.7-1.47,2.45-3.85,2.44-6.23-.06-8.58,0-17.17,0-25.75v-3.54l-3.07-1.71c-1.23.9-.9,2.87-2.39,3.6-2.48-2.13-5.06-2.5-10.65-1.53-.71.78-.48,1.74-.48,2.65q0,13.56,0,27.14c0,2.08-.43,4.39,2.91,4.7-2.16,1.84-8.25,2-11.68.56,3.76-1.45,2.95-4.52,3-7.26q0-12,0-24c0-1.24.3-2.55-.56-3.92-2.63-.43-5.4-.15-8.15-.21-1.35,0-1.3,1.49-2.58,2-1.44-1.59-1.88-3.57-2.63-6.42,3.68,2.24,6.91,1.59,10.06,1.63,5.91.06,11.83,0,17.74,0,1.61,0,3.33.38,4.42-1.62a4.06,4.06,0,0,0,3.92,1.68c2.2-.07,4.4,0,6.61,0,.77,0,1.68-.18,2,.83-.1,1.39-1.87.84-2.3,2.27v13.83c2.47.88,12.84,1.12,18.35.46.95-1.08.49-2.42.53-3.64.07-2.2,0-4.41,0-6.61s.54-4.89-2.45-6.21c2.76-1.26,7.57-1.32,10.94-.14-3.13,1.73-2.36,4.56-2.37,7.16,0,8.47,0,16.94,0,25.4C402.06,867.62,402.06,869.41,404.23,870.66Z"/><path class="cls-6" d="M241.33,833.05c-2.22,1.28-2.38,3.1-2.37,5.11,0,9.16,0,18.33,0,27.49,0,2,0,3.93,2.63,5a28,28,0,0,1-10.64.62c-.48-1.31.24-1.58.87-1.86a1.9,1.9,0,0,0,1.13-2c0-4.74,0-9.48,0-14.13-2.73-.83-15-.93-18.88-.14,0,4.85.05,9.8,0,14.75,0,1.57,1.8,1.34,2.1,2.49-1.9,1.42-7.87,1.55-10.52.22,0-1.36,1.74-1,2.21-2.14V835.62c-.34-1.61-2.15-.94-2.33-2.27.24-1.33,7-1.59,10.64-.39.34,1.58-1.61,1.06-2,2.56V849.8h18.59V835.25c-.38-1.18-2.12-.7-2.23-2.53A26.34,26.34,0,0,1,241.33,833.05Z"/><path class="cls-6" d="M567.11,871c-5.2,1-24.43.67-27.12-.51,3.57-1.42,2.79-4.36,2.8-7,0-7.31.05-14.62,0-21.93,0-3,1-6.44-2.84-8.35,2.7-1,20.29-1.26,24.93-.43a10.76,10.76,0,0,1-.16,5.89c-2.08-.34-1.57-2.37-3.28-3.41-1.52-.38-3.73-.11-5.91-.12a28.09,28.09,0,0,0-6.22.2c-1,2.41-1.13,10.81-.25,15,4.46,0,9,.72,13.63-.71a4.84,4.84,0,0,1,0,4.22c-4.55-1.19-9-.48-14-.7-.12,4.59-.45,8.93.2,13.27a2.21,2.21,0,0,0,2.35,2.11h11.48a2.35,2.35,0,0,0,2.5-2c.17-.67.24-1.42,1.44-1.49C567.84,866.85,567.19,868.84,567.11,871Z"/><path class="cls-6" d="M461,864.74c-.11,3.24-1.64,5.19-4.21,5.84a47.09,47.09,0,0,1-16.2,1.32c-6.49-.63-12.09-2.92-15.68-8.86-6.48-10.73-1.09-25.63,10.81-29.86a25,25,0,0,1,18.31.41c2.63,1.06,3.24,2.31,2.86,5.68-1.4.32-2-.9-2.92-1.54a17.58,17.58,0,0,0-18.11-1.82,14.38,14.38,0,0,0-8.24,16.29c1.55,7.56,4.81,14,12.76,16.33,6.42,1.86,12.85,1.25,18.6-2.75.47-.32.91-.7,1.38-1C460.45,864.7,460.6,864.74,461,864.74Z"/><path class="cls-6" d="M583.41,871.32c-1.3-4.67-1-10.54.67-12.23,1,1.13.85,2.62,1.07,3.88a6.35,6.35,0,0,0,5.59,5.42,18.78,18.78,0,0,0,6.93,0,7.16,7.16,0,0,0,5.7-5.85c.36-2.57-.94-4.85-4-6.27s-6.06-2.32-9-3.68a10.61,10.61,0,0,1-5.51-14,11,11,0,0,1,9.71-6.83,15.62,15.62,0,0,1,5.51.53c3.36.87,4.5,2.51,4.26,6.58-1.63,0-2.25-1.49-3.31-2.29-3.71-2.81-8.56-2.79-11.44.13-3.3,3.34-2.71,7.68,1.53,9.71,2.71,1.29,5.6,2.2,8.43,3.23a12.47,12.47,0,0,1,4.07,2.6c3.56,3.19,4.06,7.23,2.84,11.46a9.76,9.76,0,0,1-8.69,7.44A83.29,83.29,0,0,1,583.41,871.32Z"/><path class="cls-6" d="M638.44,871.32c-1.25-4.61-.9-10.61.68-12.24,1,1.16,1,2.57,1.15,3.89a5.57,5.57,0,0,0,4.22,5,15.25,15.25,0,0,0,9.54-.07,6.45,6.45,0,0,0,4.42-5.72c.29-2.79-1.41-4.5-3.66-5.8-2.53-1.47-5.4-2.09-8.06-3.21s-4.94-2.57-6.31-5.18a11.06,11.06,0,0,1,8.81-16.27,19.55,19.55,0,0,1,7.22.77c2,.57,3.15,3.06,2.92,6.29-1.54.14-2.09-1.29-3-2-2.78-2.09-5.7-3-9.1-1.76a6.75,6.75,0,0,0-4.67,5.89c-.09,2.81,1.48,4.59,3.88,5.62,2.88,1.23,5.9,2.11,8.75,3.4a11.18,11.18,0,0,1,2.37,19.34,5.87,5.87,0,0,1-2.07,1.23C649.82,871.94,644.07,871.45,638.44,871.32Z"/><path class="cls-6" d="M770.81,871.32c-1.25-4.61-.9-10.61.68-12.24,1,1.16,1,2.57,1.15,3.89a5.57,5.57,0,0,0,4.22,5,15.25,15.25,0,0,0,9.54-.07,6.45,6.45,0,0,0,4.42-5.72c.29-2.79-1.42-4.5-3.66-5.8-2.53-1.47-5.4-2.09-8.06-3.21s-4.94-2.57-6.31-5.18a11.06,11.06,0,0,1,8.81-16.27,19.55,19.55,0,0,1,7.22.77c2,.57,3.15,3.06,2.92,6.29-1.54.14-2.09-1.29-3-2-2.78-2.09-5.7-3-9.1-1.76a6.75,6.75,0,0,0-4.67,5.89c-.09,2.81,1.48,4.59,3.88,5.62,2.87,1.23,5.9,2.11,8.75,3.4a11.18,11.18,0,0,1,2.37,19.34,6,6,0,0,1-2.07,1.23C782.19,871.94,776.44,871.45,770.81,871.32Z"/><path class="cls-6" d="M681.56,868.54c.61,1.12,2.28.69,2.28,2.13-2.46,1.05-8.05,1.11-10.94.13-.25-1.69,1.82-1.15,2.21-2.35v-33c-2.82-.79-5.59-.23-8.32-.41-1.47-.09-1.18,1.58-2.38,2-1.83-1.36-2.16-3.4-2.43-5.57,9.63,1.64,19.16.41,28.64.82,1.34.06,2.37-.67,3.54-1.46,1.17,2.76-.74,4.27-1.64,6.55-3.06-4-7-1.71-10.4-2.4C681.25,837.83,681,858.83,681.56,868.54Z"/><path class="cls-6" d="M628.12,870.55c-4,1.18-7.55.89-11.07.78-.29-2.18,1.72-1.63,2.43-3.25,0-4.82,0-10.25,0-15.68a6.47,6.47,0,0,0-1.32-3.17c-2.31-3.89-4.69-7.72-6.93-11.64a16.81,16.81,0,0,0-4.23-4.54c3.36-1,6.67-.7,10.38-.6-1.06,2.37-.18,4,.89,5.71,1.73,2.68,3.38,5.4,5.43,8.69,2.67-4.1,5-7.66,7.31-11.2.64-1-.6-2,.09-3,4-.66,4.46-.61,6.63.8-4.11,2.28-5.41,6.73-8.18,10a17.77,17.77,0,0,0-4.29,14.1,65.61,65.61,0,0,1,0,7.29C625.32,867.07,624.75,869.51,628.12,870.55Z"/></svg>