<?xml version="1.0" standalone="no"?>
<!DOCTYPE svg PUBLIC "-//W3C//DTD SVG 1.1//EN" "http://www.w3.org/Graphics/SVG/1.1/DTD/svg11.dtd" >
<svg xmlns="http://www.w3.org/2000/svg" xmlns:xlink="http://www.w3.org/1999/xlink" version="1.1">
<metadata>
Created by FontForge 20170731 at Wed Jul 14 01:23:24 2021
 By Aleksey,,,
(c) 1989, 1990, 1991, 1992, 1993, 1996, 1997, 1998, 2001 Adobe Systems Incorporated. All rights reserved.
</metadata>
<defs>
<font id="CourierStd-Bold" horiz-adv-x="1228" >
  <font-face 
    font-family="Courier Std"
    font-weight="700"
    font-stretch="normal"
    units-per-em="2048"
    panose-1="2 7 6 9 2 2 5 2 4 4"
    ascent="1284"
    descent="-764"
    x-height="889"
    cap-height="1171"
    bbox="-180 -512 1427 1749"
    underline-thickness="106"
    underline-position="-565"
    unicode-range="U+0020-FB02"
  />
<missing-glyph 
d="M102 0v1434h1024v-1434h-1024zM614 809l349 522h-697zM676 717l348 -522v1044zM266 102h697l-349 523zM205 1239v-1044l348 522z" />
    <glyph glyph-name=".notdef" 
d="M102 0v1434h1024v-1434h-1024zM614 809l349 522h-697zM676 717l348 -522v1044zM266 102h697l-349 523zM205 1239v-1044l348 522z" />
    <glyph glyph-name=".null" horiz-adv-x="0" 
 />
    <glyph glyph-name="nonmarkingreturn" 
 />
    <glyph glyph-name="space" unicode=" " 
 />
    <glyph glyph-name="exclam" unicode="!" 
d="M748 1171l-37 -798h-185l-34 798h256zM805 133q0 -69 -53 -113.5t-131 -44.5q-67 0 -128 40t-61 116q0 60 50 109t136 49q83 0 135 -46.5t52 -109.5z" />
    <glyph glyph-name="quotedbl" unicode="&#x22;" 
d="M946 1171l-28 -614h-222l-26 614h276zM584 1171l-31 -614h-223l-25 614h279z" />
    <glyph glyph-name="numbersign" unicode="#" 
d="M1085 313h-211l-26 -419h-178l26 419h-200l-27 -419h-170l25 419h-183v189h195l12 215h-207v188h217l27 424h172l-25 -424h201l25 424h178l-25 -424h174v-188h-186l-12 -215h198v-189zM721 717h-201l-12 -215h201z" />
    <glyph glyph-name="dollar" unicode="$" 
d="M1047 342q0 -51 -14.5 -95t-35 -73t-54 -54t-58.5 -38.5t-62 -25t-52.5 -15t-41.5 -8.5v-287h-190v289q-62 0 -129 24v-59h-189v360h189v-96q96 -41 206 -41q21 0 45.5 1.5t62 8.5t66 18.5t49.5 34t21 52.5q0 39 -24 63q-19 17 -49.5 31t-50 20t-63.5 17t-55 14
q-6 2 -17 5q-86 25 -126.5 38.5t-98 41t-82.5 56t-45 74.5t-20 107q0 65 20 118t51 86.5t73.5 58t82.5 36.5t83 18v201h190v-203q45 -8 98 -35v62h187v-359h-187v99q-102 47 -202 47q-28 0 -58.5 -5t-66.5 -16.5t-59 -38t-23 -63.5q0 -50 41 -80q16 -12 33.5 -21.5t39.5 -17
t36.5 -12t41 -11.5t37.5 -10h1l1 -1h1h1h1l1 -1h1h1l1 -1h1h1h1q173 -49 242 -86q139 -74 146 -212v-16z" />
    <glyph glyph-name="percent" unicode="%" 
d="M713 973q0 -124 -89.5 -207.5t-217.5 -83.5q-134 1 -219 86t-85 203t88.5 205.5t219.5 87.5q132 0 217.5 -87t85.5 -204zM565 973q0 59 -44 101t-115 42q-72 0 -114 -42t-42 -101q0 -60 42 -102t111 -42q66 0 114 37.5t48 106.5zM1110 223q0 -125 -89 -208t-216 -83
q-134 1 -219.5 86t-85.5 203t89 205.5t220 87.5q132 0 216.5 -87t84.5 -204zM963 223q0 59 -43.5 101.5t-114.5 42.5q-72 0 -115 -42.5t-43 -101.5t43 -101t113 -42q66 0 113 37t47 106zM1087 725l-864 -373l-61 127l866 377z" />
    <glyph glyph-name="ampersand" unicode="&#x26;" 
d="M1128 0h-340l-57 82q-3 -2 -21 -17t-26.5 -21t-28.5 -19t-37.5 -20t-41.5 -15t-52.5 -11.5t-60.5 -3.5q-84 0 -150.5 30.5t-104.5 79.5t-57.5 104t-19.5 110q0 105 60 192.5t155 133.5l-2 4q-2 4 -28.5 42.5t-44 81t-17.5 87.5q0 116 84.5 190t216.5 74q86 0 171.5 -35.5
t156.5 -95.5l-109 -139q-117 81 -225 81q-42 0 -74.5 -22.5t-32.5 -56.5q0 -43 103 -189l178 -246q21 36 45 106t33 111h289v-188h-162q-8 -18 -24.5 -62t-31.5 -76.5t-32 -58.5l32 -45h256v-188zM623 238l-179 245q-24 -15 -40.5 -28t-37.5 -35t-32.5 -50t-11.5 -61
q0 -55 35.5 -100t109.5 -45q95 0 156 74z" />
    <glyph glyph-name="quotesingle" unicode="'" 
d="M752 1171l-25 -614h-227l-25 614h277z" />
    <glyph glyph-name="parenleft" unicode="(" 
d="M991 -176h-190q-78 118 -133.5 237t-81.5 216t-36.5 165.5t-10.5 122.5q0 179 75 380t195 372h182q-22 -39 -133 -252q-47 -92 -82 -232.5t-35 -265.5q0 -104 22.5 -210t65.5 -208.5t77 -168.5t85 -156z" />
    <glyph glyph-name="parenright" unicode=")" 
d="M692 575q0 -179 -75 -379.5t-195 -371.5h-182q22 39 133 252q47 92 81.5 231.5t34.5 265.5q0 104 -22.5 210.5t-65 208.5t-76.5 169.5t-85 155.5h190q78 -118 133.5 -237.5t81.5 -216t36.5 -165.5t10.5 -123z" />
    <glyph glyph-name="asterisk" unicode="*" 
d="M1030 788l-256 -69l158 -215l-170 -125l-152 227l-153 -229l-170 125l159 217l-262 67l72 207l254 -100l-12 274h225l-12 -274l250 100z" />
    <glyph glyph-name="plus" unicode="+" 
d="M1059 356h-348v-350h-191v350h-348v191h348v350h191v-350h348v-191z" />
    <glyph glyph-name="comma" unicode="," 
d="M788 334l-249 -539h-226l179 539h296z" />
    <glyph glyph-name="hyphen" unicode="-" 
d="M942 389h-653v189h653v-189z" />
    <glyph glyph-name="period" unicode="." 
d="M809 143q0 -69 -54.5 -118.5t-133.5 -49.5q-52 0 -92.5 18t-62.5 45.5t-33 54t-11 48.5q0 68 54 120t140 52q89 0 141 -52t52 -118z" />
    <glyph glyph-name="slash" unicode="/" 
d="M1083 1350l-774 -1622l-159 75l772 1622z" />
    <glyph glyph-name="zero" unicode="0" 
d="M1028 612q0 -32 -1 -62t-5.5 -79t-12.5 -92t-23 -95t-35.5 -94t-52.5 -83.5t-71 -69.5t-93 -45t-118 -17q-79 0 -143.5 26.5t-106.5 67.5t-73.5 100.5t-48 115.5t-26.5 122t-12.5 111t-2.5 92q0 45 2 85t11 109t24.5 125t47 119t74 105.5t109.5 71t150 28.5
q77 0 139.5 -24.5t104 -64t72.5 -96t48 -112.5t27 -123t13 -117t3 -104zM842 606q0 34 -1 63.5t-6 79t-13.5 89t-25.5 83.5t-40 74t-59 50t-81 20q-43 0 -78 -18t-57.5 -43.5t-39.5 -67t-25.5 -75.5t-14.5 -81.5t-7.5 -73t-2.5 -61.5v-51q0 -46 3 -87.5t11 -93.5t24.5 -94
t40.5 -78t63 -56.5t88 -20.5q46 0 83 21t60 58t39.5 80t24.5 96t11 96.5t3 90.5z" />
    <glyph glyph-name="one" unicode="1" 
d="M1083 0h-890v190h354v844l-346 -69v186l536 109v-1070h346v-190z" />
    <glyph glyph-name="two" unicode="2" 
d="M987 0h-840v160l517 456q78 69 110.5 124.5t32.5 117.5q0 97 -67 152t-162 55q-9 0 -26 -1.5t-50 -10t-59.5 -22.5t-47 -42.5t-20.5 -66.5v-39h-189v180q157 192 398 192q136 0 231 -63t141 -156q31 -61 31 -164q0 -30 -4.5 -59t-9.5 -52t-19 -50t-21.5 -43.5t-30.5 -44
t-32 -39t-39 -41t-39.5 -38t-46 -42t-45.5 -41.5l-249 -229h356v135h180v-328z" />
    <glyph glyph-name="three" unicode="3" 
d="M987 354q0 -83 -28.5 -150t-72.5 -108.5t-101 -70t-109.5 -39.5t-102.5 -11q-66 0 -138 14.5t-108.5 26.5t-107.5 40.5t-78 31.5l70 160q113 -39 154 -52t90 -22.5t98 -9.5q105 0 176.5 53t71.5 145q0 47 -19 82.5t-45 54t-61.5 29.5t-61 14t-51.5 3h-108v188h28
q258 0 258 170q0 82 -58 121t-130 39q-61 0 -122.5 -22.5t-166.5 -82.5l-92 148q73 47 120.5 74t119 50t139.5 23q207 0 326 -151q53 -69 53 -187q0 -50 -11 -92t-32.5 -74t-37.5 -50t-42 -42q36 -25 55.5 -40.5t47.5 -44t42 -56t24.5 -70t10.5 -92.5z" />
    <glyph glyph-name="four" unicode="4" 
d="M1014 0h-570v190h207v172h-520v164l506 729h205v-702h164v-191h-164v-172h172v-190zM651 553v455l-303 -455h303z" />
    <glyph glyph-name="five" unicode="5" 
d="M1038 395q0 -83 -27.5 -157.5t-81 -133.5t-140.5 -94t-197 -35q-169 0 -430 105l67 164q208 -80 367 -80q119 0 187.5 63t68.5 162q0 106 -75.5 167.5t-184.5 61.5q-127 0 -248 -79l-98 53v639h743v-191h-555v-266q104 33 189 33q103 0 184.5 -35t130.5 -94t74.5 -131
t25.5 -152z" />
    <glyph glyph-name="six" unicode="6" 
d="M1024 1241l-14 -188l-164 10q-7 0 -21.5 1t-21.5 1q-177 0 -273 -90.5t-133 -265.5q50 28 73.5 39.5t62.5 20.5t88 9q90 0 165 -35.5t122 -94t72.5 -130.5t25.5 -149q0 -159 -107.5 -276.5t-265.5 -117.5q-71 0 -156 33q-76 30 -131 87t-84 129.5t-42 147t-13 156.5
q0 289 141 496q157 229 529 229q61 0 147 -12zM819 375q0 36 -10.5 71t-33 68t-65 53.5t-98.5 20.5q-46 0 -86.5 -16t-66 -38.5t-44 -45t-26.5 -38.5l-8 -16q12 -90 31 -133q28 -61 86 -100t123 -39q86 0 142 56.5t56 156.5z" />
    <glyph glyph-name="seven" unicode="7" 
d="M993 1092l-387 -1092h-205l394 1040h-457v-157h-188v348h843v-139z" />
    <glyph glyph-name="eight" unicode="8" 
d="M1034 342q0 -60 -24 -121.5t-72 -117.5t-131.5 -91t-190.5 -35q-75 0 -148 23t-134.5 66.5t-100 115.5t-38.5 160q0 89 45 166t122 125q-147 113 -147 272q0 66 27.5 128.5t77 112t125.5 79.5t167 30q171 0 284.5 -99t113.5 -247q0 -165 -142 -274q166 -110 166 -293z
M823 899q0 29 -10.5 56.5t-33.5 53t-66.5 41t-102.5 15.5q-91 0 -147.5 -49.5t-56.5 -122.5q0 -76 61 -123t149 -47q84 0 145.5 47t61.5 129zM848 356q0 73 -61.5 124.5t-176.5 51.5q-92 0 -158.5 -51.5t-66.5 -128.5q0 -74 67 -130t175 -56q83 0 152 53t69 137z" />
    <glyph glyph-name="nine" unicode="9" 
d="M1024 674q0 -161 -47 -295t-127.5 -222.5t-185.5 -137t-222 -48.5q-138 0 -231 13l12 186q20 -1 73.5 -4.5t84.5 -3.5q99 0 173 18t120 46t79 77t50 95.5t35 117.5q-39 -26 -105 -46.5t-123 -20.5q-106 0 -195 56.5t-139.5 150t-50.5 200.5q0 160 107.5 278.5
t271.5 118.5q139 0 256 -100q94 -82 129 -202.5t35 -276.5zM854 795q-14 110 -53 170q-29 44 -78 71t-109 27q-34 0 -67.5 -11.5t-63.5 -34.5t-48.5 -64t-18.5 -95q0 -102 56.5 -161.5t143.5 -59.5q44 0 85 15.5t67.5 37.5t47 46t29.5 39.5t9 19.5z" />
    <glyph glyph-name="colon" unicode=":" 
d="M809 655q0 -69 -54.5 -118.5t-133.5 -49.5q-52 0 -92.5 18t-62.5 45.5t-33 54t-11 48.5q0 68 54 120t140 52q89 0 141 -52t52 -118zM809 143q0 -69 -54.5 -118.5t-133.5 -49.5q-52 0 -92.5 18t-62.5 45.5t-33 54t-11 48.5q0 68 54 120t140 52q89 0 141 -52t52 -118z" />
    <glyph glyph-name="semicolon" unicode=";" 
d="M809 655q0 -69 -54.5 -118.5t-133.5 -49.5q-52 0 -92.5 18t-62.5 45.5t-33 54t-11 48.5q0 68 54 120t140 52q89 0 141 -52t52 -118zM788 334l-247 -539h-228l179 539h296z" />
    <glyph glyph-name="less" unicode="&#x3c;" 
d="M1032 -16l-882 354v223l882 352v-178l-700 -284l700 -289v-178z" />
    <glyph glyph-name="equal" unicode="=" 
d="M1055 504h-879v190h879v-190zM1055 172h-879v190h879v-190z" />
    <glyph glyph-name="greater" unicode="&#x3e;" 
d="M1104 338l-883 -354v178l699 289l-699 284v178l883 -352v-223z" />
    <glyph glyph-name="question" unicode="?" 
d="M1004 844q0 -264 -353 -352v-125h-188v260q55 9 87.5 15.5t80 19t75.5 27.5t56.5 36.5t41.5 51.5t13 67q0 80 -64.5 118.5t-168.5 38.5q-73 0 -168 -18v-135h-189v274q76 31 177.5 50.5t181.5 19.5q182 0 300 -92.5t118 -255.5zM743 129q0 -61 -44.5 -108.5t-139.5 -47.5
q-81 0 -134.5 43t-53.5 111q0 64 51 111t135 47q49 0 86 -15.5t55 -36t29 -45.5t13.5 -38.5t2.5 -20.5z" />
    <glyph glyph-name="at" unicode="@" 
d="M1188 664q0 -86 -22.5 -157t-58 -116.5t-80.5 -76.5t-88 -44.5t-83 -13.5q-36 0 -81 20.5t-75 65.5q-83 -86 -182 -86q-29 0 -57 11.5t-55.5 35.5t-44.5 71t-17 109q0 63 22.5 135t61.5 135t99.5 104.5t127.5 41.5q19 0 30 -1.5t31 -13t42 -34.5l12 37h141l-104 -389
q-4 -12 -4 -31q0 -33 21 -47t48 -14q63 0 107.5 80t44.5 200q0 162 -104 260t-285 98q-78 0 -142 -20t-107 -52t-76 -76t-51 -87.5t-29.5 -91.5t-15 -83t-3.5 -67q0 -59 10 -117t37 -121t68.5 -110t111.5 -77.5t160 -30.5q117 0 220.5 37t223.5 122l58 -139
q-1 -1 -31.5 -21.5t-41.5 -27t-46 -26.5t-57.5 -29t-62.5 -24t-75 -22t-81 -12.5t-93 -5.5q-97 0 -178.5 21.5t-139.5 57.5t-103.5 86t-73.5 103.5t-46 113.5t-25 112.5t-7 103.5q0 150 49 271t132 197t189.5 116.5t225.5 40.5q150 0 277.5 -58.5t203.5 -179.5
q72 -116 72 -284zM692 682q0 66 -53 66q-45 0 -99.5 -90.5t-54.5 -174.5q0 -77 43 -77t77 34.5t51.5 83.5t26.5 91t9 67z" />
    <glyph glyph-name="A" unicode="A" 
d="M1221 0h-478v190h170l-59 140h-475l-60 -140h177v-190h-488v190h121l334 791h-252v190h494l401 -981h115v-190zM778 520l-160 379l-159 -379h319z" />
    <glyph glyph-name="B" unicode="B" 
d="M1137 332q0 -141 -103.5 -236.5t-285.5 -95.5h-674v190h159v791h-159v190h596q87 0 157 -20t114 -52.5t73 -75.5t41 -85t12 -86q0 -146 -117 -238l66 -41q60 -37 90.5 -101.5t30.5 -139.5zM881 846q0 54 -46 94.5t-141 40.5h-272v-281h262q22 0 50 5t64 19t59.5 45.5
t23.5 76.5zM948 344q0 166 -297 166h-229v-320h336q20 0 42.5 4t49.5 14.5t48 27t35.5 44.5t14.5 64z" />
    <glyph glyph-name="C" unicode="C" 
d="M1161 158q-71 -65 -176 -109t-181 -59t-126 -15q-91 0 -169.5 22t-135.5 59t-103.5 87.5t-76.5 106.5t-50 117t-28.5 116.5t-8.5 108.5q0 172 72 309.5t200 215t288 77.5q77 0 147.5 -19t101 -35t52.5 -32v86h188v-477h-188v194q-155 97 -299 97q-46 0 -94.5 -13
t-98.5 -44.5t-89 -77.5t-64 -119.5t-25 -163.5q0 -84 22 -158t65.5 -135t117.5 -97t170 -36q180 0 375 133z" />
    <glyph glyph-name="D" unicode="D" 
d="M1153 608q0 -137 -31 -243t-83 -174t-126.5 -111.5t-156 -61.5t-176.5 -18h-527v190h162v791h-162v190h576q159 0 262 -53q136 -70 199 -208.5t63 -301.5zM965 600q0 81 -18.5 148t-56.5 120.5t-103 83t-152 29.5h-232v-791h168q78 0 133 9.5t103 38.5q83 53 120.5 149.5
t37.5 212.5z" />
    <glyph glyph-name="E" unicode="E" 
d="M1128 0h-1030v190h162v791h-158v190h1026v-434h-190v244h-489v-291h217v135h190v-458h-190v135h-217v-312h489v238h190v-428z" />
    <glyph glyph-name="F" unicode="F" 
d="M1143 739h-191v242h-481v-293h219v135h189v-458h-189v133h-219v-308h252v-190h-594v190h154v791h-152v190h1012v-432z" />
    <glyph glyph-name="G" unicode="G" 
d="M1198 381h-92v-301q-2 -1 -19.5 -8t-30.5 -12t-38.5 -14t-48 -16.5t-52 -16t-58.5 -15t-60.5 -12t-64 -8.5t-62.5 -3q-117 0 -222 39t-187 112t-130.5 187.5t-48.5 255.5q0 138 43.5 256t118.5 198.5t177 125.5t218 45q67 0 124 -14.5t89 -31t82 -48.5v94h190v-479h-190
v188q-50 30 -73 43t-62.5 31t-76.5 24.5t-81 6.5q-72 0 -137 -27.5t-117 -79.5t-82.5 -135.5t-30.5 -187.5q0 -188 95 -297q104 -117 299 -117q104 0 180 18l70 17v182h-291v190h569v-190z" />
    <glyph glyph-name="H" unicode="H" 
d="M1186 0h-504v190h160v318h-447v-318h162v-190h-506v190h156v791h-156v190h506v-190h-162v-283h447v283h-160v190h504v-190h-156v-791h156v-190z" />
    <glyph glyph-name="I" unicode="I" 
d="M1049 0h-865v190h338v791h-338v190h865v-190h-332v-791h332v-190z" />
    <glyph glyph-name="J" unicode="J" 
d="M1206 981h-248v-596q0 -158 -48 -241.5t-165 -141.5l-4 -2q-65 -25 -157 -25q-216 0 -471 138v471h190v-222q0 -87 38 -127t130 -61q53 -12 111 -12q53 0 89.5 14t56 33.5t30 56.5t12.5 66.5t2 79.5v569h-360v190h794v-190z" />
    <glyph glyph-name="K" unicode="K" 
d="M1178 0h-310q-78 169 -198 344q-79 113 -144 186l-114 -110v-230h159v-190h-510v190h162v791h-162v190h510v-190h-159v-317l329 317h-84v190h467v-190h-131l-340 -330q121 -146 160 -205q110 -164 158 -256h207v-190z" />
    <glyph glyph-name="L" unicode="L" 
d="M1143 0h-1039v190h195v791h-195v190h629v-190h-246v-791h465v361h191v-551z" />
    <glyph glyph-name="M" unicode="M" 
d="M1253 981h-159l28 -791h109v-190h-488v190h191l-31 648l-215 -578h-123l-207 584l-32 -654h194v-190h-497v190h112l33 791h-154v190h408l211 -583l221 583h399v-190z" />
    <glyph glyph-name="N" unicode="N" 
d="M1239 981h-158v-981h-180l-528 836v-646h198v-190h-542v190h155v791h-155v190h366l498 -813v623h-191v190h537v-190z" />
    <glyph glyph-name="O" unicode="O" 
d="M1159 584q0 -132 -37 -239.5t-94.5 -174.5t-131.5 -112.5t-143.5 -64t-134.5 -18.5q-80 0 -157 23t-147.5 72.5t-123.5 119t-84.5 170.5t-31.5 220t38 229.5t106 196t172 137t228 51.5q104 0 194 -35.5t152.5 -96t107 -139t66 -165t21.5 -174.5zM973 592q0 47 -11 99
t-37.5 108.5t-65.5 101.5t-101.5 74t-139.5 29q-84 0 -153 -38t-111 -99t-65 -134t-23 -147q0 -79 22.5 -153t64.5 -135.5t111 -98.5t154 -37q75 0 137 28.5t101.5 73.5t66.5 103t38.5 114.5t11.5 110.5z" />
    <glyph glyph-name="P" unicode="P" 
d="M1116 776q0 -161 -111.5 -269t-291.5 -108h-240v-209h250v-190h-600v190h162v791h-160v190h532q254 0 369 -131q90 -106 90 -264zM928 782q0 55 -28.5 101t-78.5 69q-62 29 -164 29h-184v-391h162q50 0 73.5 0.5t62.5 7.5t67 20q35 16 62.5 58t27.5 106z" />
    <glyph glyph-name="Q" unicode="Q" 
d="M1157 -133q-58 -58 -87.5 -83.5t-76 -46t-100.5 -20.5q-58 0 -156 41t-153 41q-51 0 -99 -19t-143 -73l-88 141l74 66l84 106l-50 21q-123 51 -205.5 192.5t-82.5 348.5q0 145 45.5 264t122 194t173 115.5t201.5 40.5q91 0 168.5 -25.5t131.5 -67.5t97.5 -98t69.5 -114
t43.5 -119t24 -109t6.5 -88q0 -131 -40 -248.5t-121.5 -205.5t-192.5 -117l-62 -16q59 -42 95 -61t69 -19q28 0 55 17.5t82 72.5zM969 580q0 128 -51 233q-43 88 -125 140.5t-177 52.5q-44 0 -89.5 -12.5t-93.5 -43.5t-85 -77t-60.5 -120t-23.5 -165q0 -90 21 -162
t55.5 -118t80.5 -76.5t94 -43t99 -12.5q46 0 91.5 11.5t94 40.5t85.5 73t60.5 116.5t23.5 162.5z" />
    <glyph glyph-name="R" unicode="R" 
d="M1184 0h-275q-49 106 -127 215l-180 250h-158v-275h152v-190h-502v190h162v791h-154v190h557q163 0 246 -47q79 -44 120.5 -123.5t41.5 -173.5q0 -107 -56 -191.5t-137 -109.5l-79 -24l235 -312h154v-190zM881 825q0 156 -183 156h-254v-326h185q35 0 61.5 2t65 11.5
t63.5 26.5t43.5 50.5t18.5 79.5z" />
    <glyph glyph-name="S" unicode="S" 
d="M1090 336q0 -109 -63.5 -193t-168.5 -127t-233 -43q-43 0 -82.5 5.5t-73.5 16t-53.5 18t-46.5 20.5t-29 14v-74h-188v428h188v-155q142 -84 285 -84q142 0 210 47t68 127q0 65 -42.5 96t-123.5 37q-16 1 -74 5t-80.5 6.5t-70.5 9.5t-76 16t-63.5 25t-63.5 38
q-61 47 -93 112t-32 138q0 51 18 103.5t55 101t88.5 86.5t125 61t158.5 23q128 0 231 -47v47h189v-440h-189v196q-115 56 -223 56q-119 0 -190.5 -57.5t-71.5 -129.5q0 -125 188 -153q33 -5 85 -9.5t90 -8t86 -13t84 -24t72.5 -42t61.5 -65.5q48 -73 48 -168z" />
    <glyph glyph-name="T" unicode="T" 
d="M1153 725h-190v256h-250v-791h248v-190h-685v190h246v791h-250v-256h-190v446h1071v-446z" />
    <glyph glyph-name="U" unicode="U" 
d="M1225 981h-156v-600q0 -114 -46.5 -211t-139.5 -139q-125 -56 -250 -56q-82 0 -146.5 14.5t-130.5 55.5q-41 26 -70 60.5t-45.5 69t-25.5 79.5t-11.5 82t-2.5 88v557h-160v190h537v-190h-189v-575q0 -27 1.5 -48t7 -47t15.5 -45.5t28 -39t43 -32t62 -20.5t83 -8
q76 0 126 17t77.5 54t38 84.5t10.5 118.5v541h-193v190h537v-190z" />
    <glyph glyph-name="V" unicode="V" 
d="M1231 981h-137l-371 -981h-191l-382 981h-152v190h504v-190h-158l287 -733l278 733h-184v190h506v-190z" />
    <glyph glyph-name="W" unicode="W" 
d="M1241 981h-96l-133 -981h-160l-236 616l-231 -616h-162l-131 981h-96v190h469v-190h-189l72 -586l205 559h135l207 -555l70 582h-191v190h467v-190z" />
    <glyph glyph-name="X" unicode="X" 
d="M1178 0h-476v190h123l-211 281l-215 -281h156v-190h-504v190h131l326 422l-285 369h-137v190h467v-190h-107l175 -225l170 225h-91v190h441v-190h-135l-281 -369l322 -422h131v-190z" />
    <glyph glyph-name="Y" unicode="Y" 
d="M1194 981h-158l-319 -528v-263h244v-190h-682v190h247v263l-319 528h-154v190h471v-190h-106l207 -346l209 346h-111v190h471v-190z" />
    <glyph glyph-name="Z" unicode="Z" 
d="M1079 0h-923v145l616 836h-420v-258h-188v448h870v-135l-624 -846h481v289h188v-479z" />
    <glyph glyph-name="bracketleft" unicode="[" 
d="M1022 -176h-430v1493h430v-191h-240v-1112h240v-190z" />
    <glyph glyph-name="backslash" unicode="\" 
d="M1083 -203l-163 -69l-760 1626l164 69z" />
    <glyph glyph-name="bracketright" unicode="]" 
d="M641 -176h-434v190h244v1112h-244v191h434v-1493z" />
    <glyph glyph-name="asciicircum" unicode="^" 
d="M1030 995q-221 76 -409 267q-190 -190 -412 -269v94q153 123 230 217.5t126 231.5h105q29 -75 60 -130t78 -108.5t92.5 -95t129.5 -112.5v-95z" />
    <glyph glyph-name="underscore" unicode="_" 
d="M1229 -510h-1229v104h1229v-104z" />
    <glyph glyph-name="grave" unicode="`" 
d="M981 1137l-45 -123l-623 157l82 218z" />
    <glyph glyph-name="a" unicode="a" 
d="M1155 0h-342v96l-92 -57q-44 -27 -114 -45.5t-136 -18.5q-82 0 -151 27t-111.5 70.5t-66 95t-23.5 102.5q0 13 2 30t12.5 50t28 62.5t53.5 63.5t84 58t124 40t169 16q90 0 221 -15v25q0 127 -201 127q-151 0 -352 -80l-74 164q255 107 435 107q24 0 45.5 -1t71 -10
t88 -24.5t79.5 -49t62 -79.5q14 -31 21 -74t8 -69.5t1 -80.5v-340h158v-190zM813 324v61q-16 1 -60.5 5.5t-91.5 7.5t-98 3q-58 0 -113 -11.5t-99 -43t-44 -78.5t48 -74.5t114 -27.5q175 0 344 158z" />
    <glyph glyph-name="b" unicode="b" 
d="M1133 449q0 -89 -33.5 -174t-93 -151.5t-149 -107.5t-193.5 -41q-98 0 -161 26t-134 77v-78h-349v190h160v891h-162v191h351v-459q117 105 288 105q135 0 246 -67.5t170.5 -174.5t59.5 -227zM942 451q0 41 -17 86.5t-50 89t-91 72t-131 28.5q-145 0 -218 -81.5
t-73 -203.5q0 -64 22 -115t54 -80.5t73 -49t75 -26.5t63 -7q124 0 208.5 84t84.5 203z" />
    <glyph glyph-name="c" unicode="c" 
d="M1112 166q-107 -88 -235 -139.5t-263 -51.5q-94 0 -182 32t-157.5 90t-111.5 149t-42 200q0 86 32 168t93.5 151t163.5 111t229 42q118 0 219 -39v39h186v-402h-186v162q-104 51 -219 51q-151 0 -240.5 -80.5t-89.5 -204.5q0 -90 47.5 -155t119 -95t155.5 -30
q107 0 190.5 37t184.5 110z" />
    <glyph glyph-name="d" unicode="d" 
d="M1208 0h-340v74q-120 -99 -290 -99q-207 0 -346.5 138.5t-139.5 330.5q0 124 59.5 232t170.5 175t247 67q182 0 295 -101v264h-243v191h432v-1082h155v-190zM864 442q0 76 -28 140q-26 62 -100.5 103.5t-153.5 41.5q-128 0 -213.5 -79t-85.5 -199q0 -119 85 -201t205 -82
q26 0 57 5t74.5 22.5t77 45.5t58 81t24.5 122z" />
    <glyph glyph-name="e" unicode="e" 
d="M1145 125q-253 -150 -504 -150q-122 0 -220.5 38.5t-160 103.5t-94.5 148t-33 175q0 91 30 170t79.5 134t115 94t136.5 58t143 19q129 0 236.5 -52t172 -148.5t64.5 -218.5q0 -76 -6 -136h-780q4 -31 20.5 -61t50 -62.5t97.5 -52.5t149 -20q186 0 418 117zM926 551l-8 31
q-67 143 -291 143q-96 0 -178 -45t-111 -129h588z" />
    <glyph glyph-name="f" unicode="f" 
d="M1104 1235l-74 -188q-193 36 -268 36q-53 0 -84.5 -7t-45 -25.5t-17 -36.5t-3.5 -53v-72h414v-189h-414v-510h414v-190h-797v190h195v510h-195v189h195v57q0 97 17.5 160.5t76.5 103.5q94 62 246 62q77 0 184 -15z" />
    <glyph glyph-name="g" unicode="g" 
d="M1184 700h-158v-655q0 -53 -3.5 -93.5t-14 -86.5t-29 -79.5t-50.5 -65.5t-75.5 -52.5t-107 -32.5t-142.5 -12q-71 0 -155.5 11.5t-143.5 23.5t-168 37l45 192q241 -71 416 -71q58 0 100 7t68 23t41.5 32.5t22.5 45.5t8.5 50.5t1.5 58.5v80q-115 -90 -285 -90
q-215 0 -352 126.5t-137 317.5q0 190 139 319t356 129q169 0 279 -88v64h344v-191zM840 465q0 119 -80 189.5t-207 70.5q-123 0 -209 -72t-86 -182q0 -111 89 -184.5t204 -73.5q131 0 210 68t79 184z" />
    <glyph glyph-name="h" unicode="h" 
d="M1204 0h-502v190h156v402q0 135 -131 135q-136 0 -301 -119v-418h154v-190h-500v190h158v891h-158v191h346v-453q83 47 153 71.5t150 24.5q58 0 107.5 -13.5t78.5 -31.5t52 -42t31 -37.5t14 -26.5q35 -74 35 -186v-388h157v-190z" />
    <glyph glyph-name="i" unicode="i" 
d="M717 1010h-217v305h217v-305zM1053 0h-869v190h342v508h-286v191h477v-699h336v-190z" />
    <glyph glyph-name="j" unicode="j" 
d="M829 1008h-215v305h215v-305zM862 29q0 -29 -0.5 -47t-4 -53.5t-10 -60t-19.5 -59t-31.5 -58.5t-47.5 -50t-66 -41.5t-88 -26t-112 -10.5q-102 0 -307 41l45 191q150 -41 262 -41q33 0 51 1.5t44.5 8.5t44.5 25t30 47q19 51 19 143v659h-498v191h688v-860z" />
    <glyph glyph-name="k" unicode="k" 
d="M1186 0h-492v190h54q-86 98 -236 222l-68 -47v-365h-342v190h154v891h-156v191h344v-697l181 125h-39v191h524v-191h-207l-254 -188q70 -56 170.5 -153t159.5 -169h207v-190z" />
    <glyph glyph-name="l" unicode="l" 
d="M1055 0h-869v190h338v891h-323v191h514v-1082h340v-190z" />
    <glyph glyph-name="m" unicode="m" 
d="M1260 0h-306v647q0 24 -21 51t-65 27q-77 0 -139 -84v-451h123v-190h-311v621q0 40 -20.5 72t-71.5 32q-62 0 -134 -68v-467h160v-190h-506v190h158v508h-158v191h346v-45q59 71 164 71q114 0 176 -98q40 46 99.5 72t122.5 26q121 0 193.5 -79t72.5 -197v-449h117v-190z
" />
    <glyph glyph-name="n" unicode="n" 
d="M1180 0h-498v190h156v394q0 35 -4.5 57t-19 43.5t-46 32t-80.5 10.5q-58 0 -141 -27t-150 -86v-424h160v-190h-506v190h158v508h-162v191h350v-66q141 92 310 92q184 0 268 -114q51 -84 51 -174v-437h154v-190z" />
    <glyph glyph-name="o" unicode="o" 
d="M1137 446q0 -96 -30.5 -176t-81 -133.5t-117 -91t-137.5 -54t-144 -16.5q-70 0 -141.5 15t-143.5 50.5t-127.5 87.5t-90 133t-34.5 181q0 113 44.5 205.5t119 150.5t168 89t194.5 31q127 0 229 -41t164.5 -109t95 -150.5t32.5 -171.5zM946 451q0 49 -19 95.5t-57 88
t-105.5 67t-154.5 25.5q-140 0 -233.5 -77.5t-93.5 -205.5q0 -64 24 -115t60.5 -80.5t84 -49t89.5 -26.5t82 -7q84 0 155 28.5t119.5 95t48.5 161.5z" />
    <glyph glyph-name="p" unicode="p" 
d="M1143 453q0 -200 -132.5 -339t-332.5 -139q-169 0 -305 103v-262h291v-191h-635v191h155v880h-159v191h348v-72q118 100 297 100q78 0 158.5 -28t152 -81.5t117 -145.5t45.5 -207zM954 449q0 128 -83 202t-203 74q-29 0 -63 -5.5t-78.5 -24t-79 -47t-58.5 -80.5t-24 -119
q0 -65 23 -117t57 -82.5t76.5 -50.5t78.5 -27.5t66 -7.5q116 0 202 80.5t86 204.5z" />
    <glyph glyph-name="q" unicode="q" 
d="M1217 -375h-629v191h284v260q-123 -99 -292 -99q-136 0 -247 65t-172 171.5t-61 230.5q0 91 35.5 176.5t97.5 150.5t153 104.5t196 39.5q180 0 290 -102v78h342v-191h-153v-884h156v-191zM874 451q0 47 -15 93t-46.5 88.5t-89 68.5t-133.5 26q-131 0 -214 -81t-83 -200
q0 -122 85 -201t204 -79q26 0 57 5t74.5 23.5t77.5 47.5t58.5 83.5t24.5 125.5z" />
    <glyph glyph-name="r" unicode="r" 
d="M1165 684l-180 -29q-5 41 -17 56.5t-48 15.5q-56 0 -136 -45q-92 -52 -231 -166v-326h373v-190h-783v190h219v508h-221v191h412v-144q99 80 186 126.5t181 46.5q95 0 149.5 -39t71.5 -88q24 -66 24 -107z" />
    <glyph glyph-name="s" unicode="s" 
d="M1073 270q0 -132 -117.5 -213.5t-291.5 -81.5q-146 0 -297 60v-60h-189v385h189v-143q144 -51 286 -51q91 0 164.5 27.5t73.5 76.5q0 41 -29 56q-28 16 -64.5 21.5t-91 6.5t-71.5 2q-36 3 -53 4.5t-58 7t-64.5 11.5t-61.5 17.5t-61.5 25t-51.5 35t-43 46.5t-26 59.5
t-11 74.5q0 73 34.5 129t91 88t122 48t135.5 16q136 0 258 -48v48h188v-357h-188v115q-105 51 -242 51q-24 0 -54.5 -3.5t-71 -12t-67 -29t-26.5 -49.5q0 -77 186 -92l256 -21q104 -8 175 -75t71 -175z" />
    <glyph glyph-name="t" unicode="t" 
d="M1120 98q-66 -28 -107 -44.5t-104 -37.5t-121.5 -31t-113.5 -10q-49 0 -92 6t-93 26.5t-85 54.5t-58.5 94t-23.5 141v401h-129v191h129v272h190v-272h487v-191h-487v-356q0 -32 2 -53t11.5 -47t26 -41.5t48 -26t76.5 -10.5q135 0 411 123z" />
    <glyph glyph-name="u" unicode="u" 
d="M1174 0h-347v63q-131 -88 -270 -88q-108 0 -203.5 48.5t-128.5 142.5q-20 58 -20 158v374h-160v191h346v-570q0 -19 1.5 -34.5t11 -40.5t26.5 -41t50.5 -28.5t80.5 -12.5q83 0 142 32.5t124 92.5v411h-155v191h344v-699h158v-190z" />
    <glyph glyph-name="v" unicode="v" 
d="M1204 698h-166l-340 -698h-155l-350 698h-168v191h505v-191h-131l226 -460l225 460h-119v191h473v-191z" />
    <glyph glyph-name="w" unicode="w" 
d="M1243 698h-96l-217 -698h-152l-168 408l-147 -408h-156l-223 698h-96v191h428v-191h-140l121 -374l156 424h129l168 -424l119 374h-142v191h416v-191z" />
    <glyph glyph-name="x" unicode="x" 
d="M1190 0h-475v190h55l-160 156l-157 -156h59v-190h-475v190h168l278 271l-250 237h-167v191h462v-191h-41l127 -114l119 114h-35v191h441v-191h-162l-242 -233l291 -275h164v-190z" />
    <glyph glyph-name="y" unicode="y" 
d="M1206 698h-149l-525 -882h134v-191h-570v191h226l170 280l-328 602h-150v191h455v-191h-96l225 -422l252 422h-90v191h446v-191z" />
    <glyph glyph-name="z" unicode="z" 
d="M1036 0h-848v145l551 555h-333v-151h-189v340h819v-137l-553 -562h365v170h188v-360z" />
    <glyph glyph-name="braceleft" unicode="{" 
d="M981 -467q-17 1 -77 2t-91 2.5t-78 10t-82 22.5q-79 32 -120 104.5t-41 151.5v240q0 76 -3.5 123.5t-17.5 98t-40 80.5t-71.5 53t-111.5 32v192q66 9 111.5 32t71.5 53t40 80.5t17.5 98t3.5 123.5v240q0 79 41 151.5t120 104.5q35 14 82 22.5t78 10t91 2.5t77 2v-191
q-20 -1 -74.5 -1t-91.5 -4t-72 -15q-61 -18 -61 -113v-303q0 -118 -54 -226.5t-149 -160.5q94 -52 148.5 -162.5t54.5 -228.5v-303q0 -95 61 -113q35 -11 72 -15t91.5 -4t74.5 -1v-191z" />
    <glyph glyph-name="bar" unicode="|" 
d="M668 -510h-105v2046h105v-2046z" />
    <glyph glyph-name="braceright" unicode="}" 
d="M981 453q-66 -9 -111.5 -32t-71.5 -53t-40 -80.5t-17.5 -98t-3.5 -123.5v-240q0 -79 -41.5 -151.5t-120.5 -104.5q-35 -14 -82 -22.5t-77.5 -10t-90.5 -2.5t-77 -2v191q20 1 74.5 1t91 4t71.5 15q32 10 47 42t15 71v303q0 118 54.5 228.5t148.5 162.5q-95 52 -149 160.5
t-54 226.5v303q0 39 -15 71t-47 42q-35 11 -71.5 15t-91 4t-74.5 1v191q17 -1 77 -2t90.5 -2.5t77.5 -10t82 -22.5q79 -32 120.5 -104.5t41.5 -151.5v-240q0 -76 3.5 -123.5t17.5 -98t40 -80.5t71.5 -53t111.5 -32v-192z" />
    <glyph glyph-name="asciitilde" unicode="~" 
d="M1071 528q-49 -111 -121 -168t-141 -57q-45 0 -190.5 55.5t-167.5 55.5q-23 0 -42.5 -9.5t-36 -29t-28 -36t-26.5 -43.5t-23 -38l-131 111q24 40 33.5 54.5t35 50.5t44 52.5t45.5 38t57 30.5t63 9q52 0 201 -56t166 -56q11 0 22.5 5.5t24 17t22 21t22.5 27.5t19 26.5
t18 27t13 20.5z" />
    <glyph glyph-name="uni00A0" unicode="&#xa0;" 
 />
    <glyph glyph-name="exclamdown" unicode="&#xa1;" 
d="M805 762q0 -60 -50.5 -109t-136.5 -49q-83 0 -134.5 46.5t-51.5 109.5q0 69 53 112t131 43q41 0 81.5 -13.5t74 -50.5t33.5 -89zM745 -279h-256l37 799h185z" />
    <glyph glyph-name="cent" unicode="&#xa2;" 
d="M1079 324q-169 -124 -350 -152v-278h-188v280q-29 8 -49 15t-58.5 23.5t-66.5 35t-61.5 50t-54.5 68t-35.5 89t-14.5 112.5q0 145 87 256t253 148v268h188v-270q49 -8 119 -29v64h184v-359h-184v113q-104 53 -201 53q-113 0 -185.5 -72.5t-72.5 -171.5q0 -18 4 -42
t20 -59.5t41 -64t73 -49t110 -20.5q61 0 121 19t101.5 41.5t131.5 76.5z" />
    <glyph glyph-name="sterling" unicode="&#xa3;" 
d="M1120 129q-130 -154 -276 -154q-44 0 -143.5 31t-137.5 31q-89 0 -233 -92l-101 131q164 147 164 358q0 56 -18 111h-209v190h153q-22 86 -22 150q0 69 27 134.5t76 117.5t126 84t170 32q70 0 131.5 -18.5t100.5 -42.5t72 -58t47 -54t26 -42l25 -45l-162 -75
q-2 3 -18.5 30t-28.5 39q-70 76 -189 76q-92 0 -153.5 -48.5t-61.5 -135.5q0 -66 29 -144h440v-190h-389q15 -75 15 -133q0 -107 -70 -219q54 26 96 26q26 0 117 -26.5t113 -26.5q10 0 20.5 1.5t19.5 3.5t19.5 7t17.5 8t18.5 11t16 11t16.5 12.5t15.5 12t16 13t14.5 12.5z
" />
    <glyph glyph-name="currency" unicode="&#xa4;" 
d="M1161 301l-131 -135l-137 133q-119 -90 -277 -90q-156 0 -276 88l-135 -131l-135 131l141 135q-82 125 -82 270q0 142 80 269l-139 133l133 135l135 -131q122 88 278 88q159 0 281 -92l137 135l127 -131l-139 -133q82 -125 82 -273q0 -146 -82 -268zM905 702
q0 120 -84.5 204.5t-204.5 84.5t-204 -84.5t-84 -204.5t84 -204t204 -84t204.5 84t84.5 204z" />
    <glyph glyph-name="yen" unicode="&#xa5;" 
d="M1184 1040h-150l-313 -399h272v-117h-282v-114h282v-117h-282v-103h221v-190h-625v190h221v103h-284v117h284v114h-284v117h280l-317 399h-158v191h469v-191h-88l191 -254l188 254h-86v191h461v-191z" />
    <glyph glyph-name="brokenbar" unicode="&#xa6;" 
d="M668 569h-105v914h105v-914zM668 -459h-105v914h105v-914z" />
    <glyph glyph-name="section" unicode="&#xa7;" 
d="M1040 426q0 -73 -38 -124t-84 -73q33 -35 49 -69t16 -88q0 -201 -295 -201h-440v350h188v-160h328q33 0 33 21q0 13 -7.5 22t-37.5 31l-375 279q-74 56 -107.5 103t-33.5 118q0 42 10.5 76.5t30.5 59.5t35 38.5t38 30.5q-78 74 -78 143q0 45 13 81t33.5 56.5t32.5 29.5
t24 15q61 31 174 31h450v-348h-188v158h-309q-41 0 -41 -25q0 -4 2 -8t4 -6l2 -2l467 -353q104 -80 104 -186zM858 426q0 26 -27 45l-333 248q-2 -1 -10 -5.5t-12 -6.5t-12 -7.5t-12 -9t-10 -9.5t-8.5 -11.5t-5 -13t-2.5 -15.5q0 -37 37 -63l299 -224q96 12 96 72z" />
    <glyph glyph-name="dieresis" unicode="&#xa8;" 
d="M905 1049h-219v262h219v-262zM547 1049h-219v262h219v-262z" />
    <glyph glyph-name="copyright" unicode="&#xa9;" 
d="M1092 1044q0 -130 -64 -240.5t-174 -174.5t-240 -64q-97 0 -185.5 38t-152.5 102t-101.5 153t-37.5 186q0 130 63.5 240.5t173.5 175t240 64.5t240 -64.5t174 -175t64 -240.5zM1020 1044q0 169 -118.5 288.5t-287.5 119.5q-168 0 -286.5 -119.5t-118.5 -288.5t118 -288
t287 -119t287.5 119t118.5 288zM838 868q-23 -30 -77.5 -57t-117.5 -27q-118 0 -193 83.5t-75 193.5q0 114 79 193t183 79q107 0 192 -78l-59 -61q-63 63 -135 63q-76 0 -131 -59t-55 -139q0 -81 53.5 -141t134.5 -60q76 0 139 70z" />
    <glyph glyph-name="ordfeminine" unicode="&#xaa;" 
d="M901 709h-207v59q-65 -72 -137 -72q-85 0 -141 59t-56 138q0 30 10 58.5t33 58t70 47.5t111 18q61 0 110 -14v12q0 64 -94 64q-50 0 -117 -23l-49 -18l-45 116q118 41 211 41q100 0 154 -41q27 -21 40.5 -54.5t16 -58.5t2.5 -65v-207h88v-118zM694 950q-53 8 -88 8
q-53 0 -89 -19t-36 -60q0 -24 19 -43t55 -19q44 0 83 42t56 91z" />
    <glyph glyph-name="guillemotleft" unicode="&#xab;" 
d="M1151 184l-107 -135l-501 412l495 405l109 -137l-342 -270zM692 184l-106 -135l-502 412l496 405l108 -137l-344 -270z" />
    <glyph glyph-name="logicalnot" unicode="&#xac;" 
d="M1055 193h-189v350h-690v190h879v-540z" />
    <glyph glyph-name="uni00AD" unicode="&#xad;" 
d="M942 389h-653v189h653v-189z" />
    <glyph glyph-name="registered" unicode="&#xae;" 
d="M1092 1044q0 -130 -64 -240.5t-174 -174.5t-240 -64q-97 0 -185.5 38t-152.5 102t-101.5 153t-37.5 186q0 130 63.5 240.5t173.5 175t240 64.5t240 -64.5t174 -175t64 -240.5zM1020 1044q0 169 -118.5 288.5t-287.5 119.5q-168 0 -286.5 -119.5t-118.5 -288.5t118 -288
t287 -119t287.5 119t118.5 288zM791 809h-93l-82 207h-86v-207h-75v502h116q110 0 150 -23q31 -18 47 -52.5t16 -70.5q0 -61 -25 -92t-57 -41zM711 1161q0 48 -26.5 62t-78.5 14h-76v-145h78q18 0 27 0.5t26 4t26 10t16.5 20.5t7.5 34z" />
    <glyph glyph-name="macron" unicode="&#xaf;" 
d="M1044 1024h-860v186h860v-186z" />
    <glyph glyph-name="degree" unicode="&#xb0;" 
d="M920 946q0 -128 -89.5 -217.5t-216.5 -89.5q-128 0 -217.5 89.5t-89.5 217.5t89.5 217.5t217.5 89.5q127 0 216.5 -89.5t89.5 -217.5zM772 946q0 66 -46 112t-112 46t-111.5 -46t-45.5 -112t45.5 -112t111.5 -46t112 46t46 112z" />
    <glyph glyph-name="plusminus" unicode="&#xb1;" 
d="M1059 358h-348v-348h-191v348h-348v191h348v348h191v-348h348v-191zM1059 -260h-887v190h887v-190z" />
    <glyph glyph-name="twosuperior" unicode="&#xb2;" 
d="M776 541h-489v116l307 269q45 42 45 90t-31 68t-71 20q-32 0 -52.5 -8.5t-28.5 -23.5t-10 -26.5t-2 -27.5v-21h-139v127q92 119 232 119q54 0 97.5 -17.5t68.5 -43.5t42 -58t23 -58t6 -48q0 -56 -25.5 -105.5t-64.5 -81.5l-182 -155h274v-135z" />
    <glyph glyph-name="threesuperior" unicode="&#xb3;" 
d="M782 756q0 -97 -72 -165.5t-190 -68.5q-94 0 -246 70l56 129q122 -60 200 -62h5q49 0 78.5 28t29.5 69q0 38 -25.5 63t-78.5 25h-95v135h68q1 0 3.5 -1t4.5 -1q39 0 64.5 17t25.5 53q0 33 -21 47t-48 14q-28 0 -64 -14t-53.5 -24t-58.5 -36l-74 117q130 92 237 92
q86 0 154 -53q66 -54 66 -141q0 -81 -48 -123q82 -67 82 -170z" />
    <glyph glyph-name="acute" unicode="&#xb4;" 
d="M1028 1171l-622 -157l-46 123l586 252z" />
    <glyph glyph-name="mu" unicode="&#xb5;" 
d="M1182 0h-353v90q-60 -57 -123 -86t-153 -29q-86 0 -154 64v-381h-192v1040h-160v191h352v-563q0 -76 43.5 -123t120.5 -47q85 0 145 26t121 84v432h-159v191h352v-699h160v-190z" />
    <glyph glyph-name="paragraph" unicode="&#xb6;" 
d="M1044 1440h-90v-1755h-77v1755h-142v-1755h-80v888q-102 16 -181.5 52.5t-129 82t-82 103t-45 112t-12.5 111.5q0 143 69 250q56 87 147 143t187.5 77.5t206.5 21.5h229v-86z" />
    <glyph glyph-name="periodcentered" unicode="&#xb7;" 
d="M809 621q0 -69 -54.5 -118.5t-133.5 -49.5q-52 0 -92.5 18t-62.5 45t-33 53.5t-11 48.5q0 68 54.5 120.5t139.5 52.5q89 0 141 -52t52 -118z" />
    <glyph glyph-name="cedilla" unicode="&#xb8;" 
d="M836 -219q0 -87 -52 -146t-139 -59q-84 0 -156 57l72 115q51 -31 78 -31q47 0 47 43t-51 43q-13 0 -26 -2.5t-31 -7t-25 -6.5l20 213h150v-53q16 -4 31.5 -12t36 -25.5t33 -51t12.5 -77.5z" />
    <glyph glyph-name="onesuperior" unicode="&#xb9;" 
d="M811 541h-494v139h185v395l-162 -31v140l299 59v-563h172v-139z" />
    <glyph glyph-name="ordmasculine" unicode="&#xba;" 
d="M887 975q0 -123 -79.5 -201t-189.5 -78q-120 0 -198 81t-78 198q0 49 18.5 98t52 89.5t86 65.5t115.5 25q83 0 147 -42t95 -104.5t31 -131.5zM768 975q0 57 -41 107.5t-111 50.5q-71 0 -112 -50t-41 -112q0 -63 41.5 -108.5t111.5 -45.5q66 0 109 43.5t43 114.5z" />
    <glyph glyph-name="guillemotright" unicode="&#xbb;" 
d="M1145 455l-496 -406l-108 137l344 271l-348 274l106 135zM686 455l-496 -406l-108 137l342 271l-346 274l106 135z" />
    <glyph glyph-name="onequarter" unicode="&#xbc;" 
d="M1239 -160h-338v117h117v90h-275v96l281 394h131v-361h84v-129h-84v-90h84v-117zM1018 176v162l-113 -162h113zM1321 1182l-1034 -1368l-142 104l1029 1362zM508 541h-492v139h185v395l-162 -31v140l297 59v-563h172v-139z" />
    <glyph glyph-name="onehalf" unicode="&#xbd;" 
d="M1296 -160h-489v117l307 268q45 42 45 90t-31 68t-71 20q-32 0 -52 -8.5t-28 -24t-10 -26.5t-2 -27v-20h-140v127q92 119 232 119q54 0 97.5 -17.5t68.5 -43.5t42 -58.5t23 -58.5t6 -48q0 -56 -25.5 -105t-64.5 -81l-182 -156h274v-135zM1247 1182l-1034 -1368l-141 104
l1028 1362zM440 541h-491v139h184v395l-162 -31v140l299 59v-563h170v-139z" />
    <glyph glyph-name="threequarters" unicode="&#xbe;" 
d="M1200 -158h-338v117h117v90h-274v96l280 398h131v-365h84v-129h-84v-90h84v-117zM979 178v162l-113 -162h113zM1278 1182l-1034 -1368l-144 108l1030 1360zM504 756q0 -98 -71 -166t-189 -68q-96 0 -248 70l57 129q122 -60 201 -62h4q49 0 78 28t29 69q0 38 -25 63
t-78 25h-94v135h68q1 0 3.5 -1t4.5 -1q39 0 63.5 17t24.5 53q0 33 -20.5 47t-47.5 14q-28 0 -64 -14t-53.5 -24t-58.5 -36l-76 117q130 92 240 92q83 0 151 -53q66 -54 66 -141q0 -82 -47 -123q82 -67 82 -170z" />
    <glyph glyph-name="questiondown" unicode="&#xbf;" 
d="M854 760q0 -64 -51 -111t-135 -47q-49 0 -86 15.5t-55.5 36t-29.5 45.5t-13.5 38.5t-2.5 20.5q0 61 45 108t140 47q81 0 134.5 -42.5t53.5 -110.5zM997 -236q-76 -30 -177 -49.5t-181 -19.5q-182 0 -300 92.5t-118 255.5q0 264 352 352v125h189v-260q-55 -9 -87.5 -15.5
t-80 -19t-75.5 -27.5t-56.5 -36.5t-41.5 -51.5t-13 -67q0 -80 64.5 -119t168.5 -39q67 0 168 19v135h188v-275z" />
    <glyph glyph-name="Agrave" unicode="&#xc0;" 
d="M1221 0h-478v190h170l-59 140h-475l-60 -140h177v-190h-488v190h121l334 791h-252v190h494l401 -981h115v-190zM778 520l-160 379l-159 -379h319zM956 1407l-51 -123l-616 158l84 219z" />
    <glyph glyph-name="Aacute" unicode="&#xc1;" 
d="M1221 0h-478v190h170l-59 140h-475l-60 -140h177v-190h-488v190h121l334 791h-252v190h494l401 -981h115v-190zM778 520l-160 379l-159 -379h319zM1001 1440l-624 -156l-41 125l584 252z" />
    <glyph glyph-name="Acircumflex" unicode="&#xc2;" 
d="M1221 0h-478v190h170l-59 140h-475l-60 -140h177v-190h-488v190h121l334 791h-252v190h494l401 -981h115v-190zM778 520l-160 379l-159 -379h319zM1012 1360l-117 -76l-297 217l-297 -217l-121 78l324 299h192z" />
    <glyph glyph-name="Atilde" unicode="&#xc3;" 
d="M1221 0h-478v190h170l-59 140h-475l-60 -140h177v-190h-488v190h121l334 791h-252v190h494l401 -981h115v-190zM778 520l-160 379l-159 -379h319zM1061 1538q-25 -107 -99 -180.5t-182 -73.5q-110 0 -219 84q-55 41 -92 41t-60 -31t-49 -98l-172 53q13 45 35 86.5
t55.5 79.5t83 61t107.5 23q82 0 149 -43q14 -8 41 -26.5t43 -28.5t37.5 -18.5t38.5 -8.5q74 0 115 133z" />
    <glyph glyph-name="Adieresis" unicode="&#xc4;" 
d="M1221 0h-478v190h170l-59 140h-475l-60 -140h177v-190h-488v190h121l334 791h-252v190h494l401 -981h115v-190zM778 520l-160 379l-159 -379h319zM885 1352h-219v264h219v-264zM526 1352h-219v264h219v-264z" />
    <glyph glyph-name="Aring" unicode="&#xc5;" 
d="M1221 0h-478v190h170l-59 140h-475l-60 -140h177v-190h-488v190h121l334 791h-252v190h494l401 -981h115v-190zM778 520l-160 379l-159 -379h319zM801 1434q0 -85 -60 -145t-145 -60t-145 60t-60 145t60 144.5t145 59.5t145 -59.5t60 -144.5zM674 1434q0 32 -23 54.5
t-55 22.5t-55 -22.5t-23 -54.5t23 -55t55 -23t55 23t23 55z" />
    <glyph glyph-name="AE" unicode="&#xc6;" 
d="M1221 0h-600v332h-218l-57 -144h148v-188h-461v188h123l325 795h-178v188h918v-360h-152v172h-264v-291h53v103h150v-394h-150v103h-53v-316h264v170h152v-358zM621 520v344l-140 -344h140z" />
    <glyph glyph-name="Ccedilla" unicode="&#xc7;" 
d="M1161 158q-106 -82 -291 -154q-75 -27 -145 -27h-10l-2 -26q116 -29 116 -172q0 -93 -56 -145t-142 -52q-39 0 -72 11t-78 47l70 116l35 -18q24 -14 51 -14q21 0 31 14t10 31q0 41 -53 41q-16 0 -44 -7t-36 -8l16 191q-8 2 -50.5 13.5t-64.5 20.5q-154 64 -247 220
t-93 342q0 120 32.5 222t87 172.5t127 120.5t152 73.5t161.5 23.5q176 0 290 -88v88h189v-477h-189v194q-145 95 -286 95q-48 0 -96.5 -13t-99 -44.5t-89.5 -78t-63.5 -120.5t-24.5 -164q0 -52 9 -104t35 -111t66 -103.5t108.5 -74t156.5 -29.5q59 0 114.5 12t108.5 37
t80.5 40t73.5 44z" />
    <glyph glyph-name="Egrave" unicode="&#xc8;" 
d="M1128 0h-1030v190h162v791h-158v190h1026v-434h-190v244h-489v-291h217v135h190v-458h-190v135h-217v-312h489v238h190v-428zM981 1407l-51 -123l-617 158l84 219z" />
    <glyph glyph-name="Eacute" unicode="&#xc9;" 
d="M1128 0h-1030v190h162v791h-158v190h1026v-434h-190v244h-489v-291h217v135h190v-458h-190v135h-217v-312h489v238h190v-428zM1026 1440l-625 -156l-41 125l584 252z" />
    <glyph glyph-name="Ecircumflex" unicode="&#xca;" 
d="M1128 0h-1030v190h162v791h-158v190h1026v-434h-190v244h-489v-291h217v135h190v-458h-190v135h-217v-312h489v238h190v-428zM1036 1360l-116 -76l-297 217l-297 -217l-121 78l323 299h193z" />
    <glyph glyph-name="Edieresis" unicode="&#xcb;" 
d="M1128 0h-1030v190h162v791h-158v190h1026v-434h-190v244h-489v-291h217v135h190v-458h-190v135h-217v-312h489v238h190v-428zM909 1352h-219v264h219v-264zM551 1352h-219v264h219v-264z" />
    <glyph glyph-name="Igrave" unicode="&#xcc;" 
d="M1049 0h-865v190h338v791h-338v190h865v-190h-332v-791h332v-190zM981 1407l-51 -123l-617 158l84 219z" />
    <glyph glyph-name="Iacute" unicode="&#xcd;" 
d="M1049 0h-865v190h338v791h-338v190h865v-190h-332v-791h332v-190zM1026 1440l-625 -156l-41 125l584 252z" />
    <glyph glyph-name="Icircumflex" unicode="&#xce;" 
d="M1049 0h-865v190h338v791h-338v190h865v-190h-332v-791h332v-190zM1036 1360l-116 -76l-297 217l-297 -217l-121 78l323 299h193z" />
    <glyph glyph-name="Idieresis" unicode="&#xcf;" 
d="M1049 0h-865v190h338v791h-338v190h865v-190h-332v-791h332v-190zM909 1352h-219v264h219v-264zM551 1352h-219v264h219v-264z" />
    <glyph glyph-name="Eth" unicode="&#xd0;" 
d="M1153 608q0 -137 -31 -243t-83 -174t-126.5 -111.5t-156 -61.5t-176.5 -18h-527v190h162v324h-121v141h121v326h-162v190h578q157 0 260 -53q136 -70 199 -208.5t63 -301.5zM965 600q0 81 -18.5 148t-56.5 120.5t-103 83t-152 29.5h-232v-326h226v-141h-226v-324h168
q78 0 133 9.5t103 38.5q83 53 120.5 149.5t37.5 212.5z" />
    <glyph glyph-name="Ntilde" unicode="&#xd1;" 
d="M1239 981h-158v-981h-180l-528 836v-646h198v-190h-542v190h155v791h-155v190h366l498 -813v623h-191v190h537v-190zM1085 1538q-25 -107 -99 -180.5t-181 -73.5q-110 0 -219 84q-55 41 -92 41t-60 -31t-49 -98l-172 53q13 45 35 86.5t55.5 79.5t83 61t107.5 23
q82 0 149 -43q14 -8 41 -26.5t43 -28.5t37.5 -18.5t38.5 -8.5q74 0 115 133z" />
    <glyph glyph-name="Ograve" unicode="&#xd2;" 
d="M1159 584q0 -132 -37 -239.5t-94.5 -174.5t-131.5 -112.5t-143.5 -64t-134.5 -18.5q-80 0 -157 23t-147.5 72.5t-123.5 119t-84.5 170.5t-31.5 220t38 229.5t106 196t172 137t228 51.5q104 0 194 -35.5t152.5 -96t107 -139t66 -165t21.5 -174.5zM973 592q0 47 -11 99
t-37.5 108.5t-65.5 101.5t-101.5 74t-139.5 29q-84 0 -153 -38t-111 -99t-65 -134t-23 -147q0 -79 22.5 -153t64.5 -135.5t111 -98.5t154 -37q75 0 137 28.5t101.5 73.5t66.5 103t38.5 114.5t11.5 110.5zM981 1407l-51 -123l-617 158l84 219z" />
    <glyph glyph-name="Oacute" unicode="&#xd3;" 
d="M1159 584q0 -132 -37 -239.5t-94.5 -174.5t-131.5 -112.5t-143.5 -64t-134.5 -18.5q-80 0 -157 23t-147.5 72.5t-123.5 119t-84.5 170.5t-31.5 220t38 229.5t106 196t172 137t228 51.5q104 0 194 -35.5t152.5 -96t107 -139t66 -165t21.5 -174.5zM973 592q0 47 -11 99
t-37.5 108.5t-65.5 101.5t-101.5 74t-139.5 29q-84 0 -153 -38t-111 -99t-65 -134t-23 -147q0 -79 22.5 -153t64.5 -135.5t111 -98.5t154 -37q75 0 137 28.5t101.5 73.5t66.5 103t38.5 114.5t11.5 110.5zM1026 1440l-625 -156l-41 125l584 252z" />
    <glyph glyph-name="Ocircumflex" unicode="&#xd4;" 
d="M1159 584q0 -132 -37 -239.5t-94.5 -174.5t-131.5 -112.5t-143.5 -64t-134.5 -18.5q-80 0 -157 23t-147.5 72.5t-123.5 119t-84.5 170.5t-31.5 220t38 229.5t106 196t172 137t228 51.5q104 0 194 -35.5t152.5 -96t107 -139t66 -165t21.5 -174.5zM973 592q0 47 -11 99
t-37.5 108.5t-65.5 101.5t-101.5 74t-139.5 29q-84 0 -153 -38t-111 -99t-65 -134t-23 -147q0 -79 22.5 -153t64.5 -135.5t111 -98.5t154 -37q75 0 137 28.5t101.5 73.5t66.5 103t38.5 114.5t11.5 110.5zM1036 1360l-116 -76l-297 217l-297 -217l-121 78l323 299h193z" />
    <glyph glyph-name="Otilde" unicode="&#xd5;" 
d="M1159 584q0 -132 -37 -239.5t-94.5 -174.5t-131.5 -112.5t-143.5 -64t-134.5 -18.5q-80 0 -157 23t-147.5 72.5t-123.5 119t-84.5 170.5t-31.5 220t38 229.5t106 196t172 137t228 51.5q104 0 194 -35.5t152.5 -96t107 -139t66 -165t21.5 -174.5zM973 592q0 47 -11 99
t-37.5 108.5t-65.5 101.5t-101.5 74t-139.5 29q-84 0 -153 -38t-111 -99t-65 -134t-23 -147q0 -79 22.5 -153t64.5 -135.5t111 -98.5t154 -37q75 0 137 28.5t101.5 73.5t66.5 103t38.5 114.5t11.5 110.5zM1085 1538q-25 -107 -99 -180.5t-181 -73.5q-110 0 -219 84
q-55 41 -92 41t-60 -31t-49 -98l-172 53q13 45 35 86.5t55.5 79.5t83 61t107.5 23q82 0 149 -43q14 -8 41 -26.5t43 -28.5t37.5 -18.5t38.5 -8.5q74 0 115 133z" />
    <glyph glyph-name="Odieresis" unicode="&#xd6;" 
d="M1159 584q0 -132 -37 -239.5t-94.5 -174.5t-131.5 -112.5t-143.5 -64t-134.5 -18.5q-80 0 -157 23t-147.5 72.5t-123.5 119t-84.5 170.5t-31.5 220t38 229.5t106 196t172 137t228 51.5q104 0 194 -35.5t152.5 -96t107 -139t66 -165t21.5 -174.5zM973 592q0 47 -11 99
t-37.5 108.5t-65.5 101.5t-101.5 74t-139.5 29q-84 0 -153 -38t-111 -99t-65 -134t-23 -147q0 -79 22.5 -153t64.5 -135.5t111 -98.5t154 -37q75 0 137 28.5t101.5 73.5t66.5 103t38.5 114.5t11.5 110.5zM909 1352h-219v264h219v-264zM551 1352h-219v264h219v-264z" />
    <glyph glyph-name="multiply" unicode="&#xd7;" 
d="M1075 125l-125 -125l-323 326l-324 -326l-125 125l324 326l-326 329l125 123l324 -330l325 324l123 -125l-319 -323z" />
    <glyph glyph-name="Oslash" unicode="&#xd8;" 
d="M1159 584q0 -132 -37 -239.5t-94.5 -174.5t-131.5 -112.5t-143.5 -64t-134.5 -18.5q-161 0 -301 93l-84 -107l-135 94l99 125q-123 159 -123 400q0 119 38 229.5t106 196t172 137t228 51.5q176 0 310 -100l82 104l123 -98l-95 -121q121 -170 121 -395zM809 946
q-81 58 -191 58q-84 0 -153 -38t-111 -99t-65 -134t-23 -147q0 -66 16 -134t44 -112zM973 592q0 54 -15 119t-45 112l-479 -606q77 -55 184 -55q75 0 137 28.5t101.5 73.5t66.5 103t38.5 114.5t11.5 110.5z" />
    <glyph glyph-name="Ugrave" unicode="&#xd9;" 
d="M1225 981h-156v-600q0 -114 -46.5 -211t-139.5 -139q-125 -56 -250 -56q-82 0 -146.5 14.5t-130.5 55.5q-41 26 -70 60.5t-45.5 69t-25.5 79.5t-11.5 82t-2.5 88v557h-160v190h537v-190h-189v-575q0 -27 1.5 -48t7 -47t15.5 -45.5t28 -39t43 -32t62 -20.5t83 -8
q76 0 126 17t77.5 54t38 84.5t10.5 118.5v541h-193v190h537v-190zM981 1407l-51 -123l-617 158l84 219z" />
    <glyph glyph-name="Uacute" unicode="&#xda;" 
d="M1225 981h-156v-600q0 -114 -46.5 -211t-139.5 -139q-125 -56 -250 -56q-82 0 -146.5 14.5t-130.5 55.5q-41 26 -70 60.5t-45.5 69t-25.5 79.5t-11.5 82t-2.5 88v557h-160v190h537v-190h-189v-575q0 -27 1.5 -48t7 -47t15.5 -45.5t28 -39t43 -32t62 -20.5t83 -8
q76 0 126 17t77.5 54t38 84.5t10.5 118.5v541h-193v190h537v-190zM1026 1440l-625 -156l-41 125l584 252z" />
    <glyph glyph-name="Ucircumflex" unicode="&#xdb;" 
d="M1225 981h-156v-600q0 -114 -46.5 -211t-139.5 -139q-125 -56 -250 -56q-82 0 -146.5 14.5t-130.5 55.5q-41 26 -70 60.5t-45.5 69t-25.5 79.5t-11.5 82t-2.5 88v557h-160v190h537v-190h-189v-575q0 -27 1.5 -48t7 -47t15.5 -45.5t28 -39t43 -32t62 -20.5t83 -8
q76 0 126 17t77.5 54t38 84.5t10.5 118.5v541h-193v190h537v-190zM1036 1360l-116 -76l-297 217l-297 -217l-121 78l323 299h193z" />
    <glyph glyph-name="Udieresis" unicode="&#xdc;" 
d="M1225 981h-156v-600q0 -114 -46.5 -211t-139.5 -139q-125 -56 -250 -56q-82 0 -146.5 14.5t-130.5 55.5q-41 26 -70 60.5t-45.5 69t-25.5 79.5t-11.5 82t-2.5 88v557h-160v190h537v-190h-189v-575q0 -27 1.5 -48t7 -47t15.5 -45.5t28 -39t43 -32t62 -20.5t83 -8
q76 0 126 17t77.5 54t38 84.5t10.5 118.5v541h-193v190h537v-190zM909 1352h-219v264h219v-264zM551 1352h-219v264h219v-264z" />
    <glyph glyph-name="Yacute" unicode="&#xdd;" 
d="M1194 981h-158l-319 -528v-263h244v-190h-682v190h247v263l-319 528h-154v190h471v-190h-106l207 -346l209 346h-111v190h471v-190zM1026 1440l-625 -156l-41 125l584 252z" />
    <glyph glyph-name="Thorn" unicode="&#xde;" 
d="M1171 596q0 -128 -59.5 -197.5t-179.5 -101.5q-97 -23 -209 -23h-258v-84h266v-190h-713v190h258v791h-253v190h712v-190h-270v-86h172q149 0 219 -6t123.5 -23t98.5 -49t69 -88t24 -133zM983 586q0 51 -30 75t-81 35q-49 11 -133 11h-274v-244h289q95 0 143 14
q86 29 86 109z" />
    <glyph glyph-name="germandbls" unicode="&#xdf;" 
d="M1176 283q0 -132 -115.5 -220t-304.5 -88q-82 0 -148.5 19.5t-154.5 73.5l108 137q89 -39 211 -39q91 0 153 32.5t62 84.5q0 46 -43 67q-33 17 -162 62q-43 16 -65.5 25t-59.5 25.5t-56.5 30t-45 35t-38 43.5t-21.5 52t-9 65q0 102 76 162q42 33 123.5 67.5t116.5 57.5
q20 13 20 45q0 37 -52 49t-173 12q-108 0 -158 -28q-21 -12 -30 -45t-9 -99v-909h-346v190h160v508h-160v191h160v45q0 90 16 149.5t57 104t114.5 64.5t185.5 20q122 0 206.5 -17.5t130.5 -52t65.5 -77.5t19.5 -101q0 -73 -45 -137q-25 -33 -61.5 -57t-69 -35.5t-73 -29.5
t-67.5 -40q-18 -14 -18 -39q0 -22 20 -40.5t45 -27.5q41 -18 147.5 -55t160.5 -65q58 -31 92.5 -89t34.5 -126z" />
    <glyph glyph-name="agrave" unicode="&#xe0;" 
d="M971 1137l-45 -123l-623 157l82 218zM1155 0h-342v96l-92 -57q-44 -27 -114 -45.5t-136 -18.5q-82 0 -151 27t-111.5 70.5t-66 95t-23.5 102.5q0 13 2 30t12.5 50t28 62.5t53.5 63.5t84 58t124 40t169 16q90 0 221 -15v25q0 127 -201 127q-151 0 -352 -80l-74 164
q255 107 435 107q24 0 45.5 -1t71 -10t88 -24.5t79.5 -49t62 -79.5q14 -31 21 -74t8 -69.5t1 -80.5v-340h158v-190zM813 324v61q-16 1 -60.5 5.5t-91.5 7.5t-98 3q-58 0 -113 -11.5t-99 -43t-44 -78.5t48 -74.5t114 -27.5q175 0 344 158z" />
    <glyph glyph-name="aacute" unicode="&#xe1;" 
d="M1018 1171l-623 -157l-45 123l586 252zM1155 0h-342v96l-92 -57q-44 -27 -114 -45.5t-136 -18.5q-82 0 -151 27t-111.5 70.5t-66 95t-23.5 102.5q0 13 2 30t12.5 50t28 62.5t53.5 63.5t84 58t124 40t169 16q90 0 221 -15v25q0 127 -201 127q-151 0 -352 -80l-74 164
q255 107 435 107q24 0 45.5 -1t71 -10t88 -24.5t79.5 -49t62 -79.5q14 -31 21 -74t8 -69.5t1 -80.5v-340h158v-190zM813 324v61q-16 1 -60.5 5.5t-91.5 7.5t-98 3q-58 0 -113 -11.5t-99 -43t-44 -78.5t48 -74.5t114 -27.5q175 0 344 158z" />
    <glyph glyph-name="acircumflex" unicode="&#xe2;" 
d="M1026 1087l-117 -73l-297 219l-297 -219l-120 76l321 301h195zM1155 0h-342v96l-92 -57q-44 -27 -114 -45.5t-136 -18.5q-82 0 -151 27t-111.5 70.5t-66 95t-23.5 102.5q0 13 2 30t12.5 50t28 62.5t53.5 63.5t84 58t124 40t169 16q90 0 221 -15v25q0 127 -201 127
q-151 0 -352 -80l-74 164q255 107 435 107q24 0 45.5 -1t71 -10t88 -24.5t79.5 -49t62 -79.5q14 -31 21 -74t8 -69.5t1 -80.5v-340h158v-190zM813 324v61q-16 1 -60.5 5.5t-91.5 7.5t-98 3q-58 0 -113 -11.5t-99 -43t-44 -78.5t48 -74.5t114 -27.5q175 0 344 158z" />
    <glyph glyph-name="atilde" unicode="&#xe3;" 
d="M1069 1270q-8 -29 -18 -55t-33.5 -65t-52 -66.5t-76.5 -47.5t-105 -20q-83 0 -153 43q-20 12 -45.5 30t-38.5 27t-31.5 16t-36.5 7q-24 0 -43 -13q-19 -12 -30.5 -29t-24.5 -49t-16 -38l-170 53q12 31 17 43t21 45t29 50t36.5 42.5t48 38.5t59.5 23t75 10q51 0 113 -27
q18 -9 60 -35t77.5 -44.5t56.5 -18.5q39 0 60 27t53 102zM1155 0h-342v96l-92 -57q-44 -27 -114 -45.5t-136 -18.5q-82 0 -151 27t-111.5 70.5t-66 95t-23.5 102.5q0 13 2 30t12.5 50t28 62.5t53.5 63.5t84 58t124 40t169 16q90 0 221 -15v25q0 127 -201 127
q-151 0 -352 -80l-74 164q255 107 435 107q24 0 45.5 -1t71 -10t88 -24.5t79.5 -49t62 -79.5q14 -31 21 -74t8 -69.5t1 -80.5v-340h158v-190zM813 324v61q-16 1 -60.5 5.5t-91.5 7.5t-98 3q-58 0 -113 -11.5t-99 -43t-44 -78.5t48 -74.5t114 -27.5q175 0 344 158z" />
    <glyph glyph-name="adieresis" unicode="&#xe4;" 
d="M1155 0h-342v96l-92 -57q-44 -27 -114 -45.5t-136 -18.5q-82 0 -151 27t-111.5 70.5t-66 95t-23.5 102.5q0 13 2 30t12.5 50t28 62.5t53.5 63.5t84 58t124 40t169 16q90 0 221 -15v25q0 127 -201 127q-151 0 -352 -80l-74 164q255 107 435 107q24 0 45.5 -1t71 -10
t88 -24.5t79.5 -49t62 -79.5q14 -31 21 -74t8 -69.5t1 -80.5v-340h158v-190zM813 324v61q-16 1 -60.5 5.5t-91.5 7.5t-98 3q-58 0 -113 -11.5t-99 -43t-44 -78.5t48 -74.5t114 -27.5q175 0 344 158zM895 1049h-219v262h219v-262zM537 1049h-220v262h220v-262z" />
    <glyph glyph-name="aring" unicode="&#xe5;" 
d="M827 1255q0 -88 -62.5 -150.5t-150.5 -62.5t-150.5 62.5t-62.5 150.5t62.5 150.5t150.5 62.5t150.5 -62.5t62.5 -150.5zM700 1255q0 35 -25.5 60.5t-60.5 25.5t-60.5 -25.5t-25.5 -60.5t25.5 -60.5t60.5 -25.5t60.5 25.5t25.5 60.5zM1155 0h-342v96l-92 -57
q-44 -27 -114 -45.5t-136 -18.5q-82 0 -151 27t-111.5 70.5t-66 95t-23.5 102.5q0 13 2 30t12.5 50t28 62.5t53.5 63.5t84 58t124 40t169 16q90 0 221 -15v25q0 127 -201 127q-151 0 -352 -80l-74 164q255 107 435 107q24 0 45.5 -1t71 -10t88 -24.5t79.5 -49t62 -79.5
q14 -31 21 -74t8 -69.5t1 -80.5v-340h158v-190zM813 324v61q-16 1 -60.5 5.5t-91.5 7.5t-98 3q-58 0 -113 -11.5t-99 -43t-44 -78.5t48 -74.5t114 -27.5q175 0 344 158z" />
    <glyph glyph-name="ae" unicode="&#xe6;" 
d="M1212 45q-94 -36 -164 -53t-147 -17q-199 0 -297 148q-1 -1 -28 -24t-35.5 -29t-35.5 -26.5t-44.5 -28t-45 -19.5t-55 -16.5t-57.5 -4.5q-124 0 -202 80t-78 197q0 57 18.5 112t55.5 104t103 79.5t150 30.5q32 0 58.5 -1.5t56.5 -5t43 -4.5v21q0 84 -24 110.5t-91 26.5
q-40 0 -94 -14.5t-81.5 -25.5t-92.5 -38l-55 189q13 7 55 22.5t123 35t145 19.5q95 0 148 -24.5t96 -83.5q42 51 106.5 79.5t130.5 28.5q67 0 122.5 -27t92 -71.5t61 -102t35.5 -117t11 -118.5t-6 -121h-481v-4q0 -15 4 -35t17 -48t33 -50.5t56.5 -38.5t83.5 -16
q70 0 162 33l84 32zM1008 547q-2 18 -5 35.5t-12.5 45t-23.5 47.5t-39 35t-58 15q-66 0 -115 -46.5t-55 -131.5h308zM508 272v103q-36 10 -117 10q-49 0 -85 -12t-52.5 -27.5t-26 -37t-11 -32t-1.5 -20.5q0 -45 28 -68.5t60 -23.5q104 0 205 108z" />
    <glyph glyph-name="ccedilla" unicode="&#xe7;" 
d="M1112 166q-182 -147 -389 -182v-35q65 -17 90 -65t25 -103q0 -82 -50.5 -142.5t-140.5 -60.5q-84 0 -155 57l69 117q55 -31 82 -31q25 0 35 12.5t10 28.5q0 43 -49 43q-16 0 -44 -6.5t-40 -7.5l12 186q-87 8 -166.5 42.5t-142 92.5t-100 144.5t-37.5 189.5q0 86 32 168
t93.5 151t163.5 111t229 42q118 0 219 -39v39h186v-402h-186v162q-104 51 -219 51q-151 0 -240.5 -80.5t-89.5 -204.5q0 -90 47.5 -155t119 -95t155.5 -30q107 0 190.5 37t184.5 110z" />
    <glyph glyph-name="egrave" unicode="&#xe8;" 
d="M995 1137l-45 -123l-622 157l82 218zM1145 125q-253 -150 -504 -150q-122 0 -220.5 38.5t-160 103.5t-94.5 148t-33 175q0 91 30 170t79.5 134t115 94t136.5 58t143 19q129 0 236.5 -52t172 -148.5t64.5 -218.5q0 -76 -6 -136h-780q4 -31 20.5 -61t50 -62.5t97.5 -52.5
t149 -20q186 0 418 117zM926 551l-8 31q-67 143 -291 143q-96 0 -178 -45t-111 -129h588z" />
    <glyph glyph-name="eacute" unicode="&#xe9;" 
d="M1042 1171l-622 -157l-45 123l586 252zM1145 125q-253 -150 -504 -150q-122 0 -220.5 38.5t-160 103.5t-94.5 148t-33 175q0 91 30 170t79.5 134t115 94t136.5 58t143 19q129 0 236.5 -52t172 -148.5t64.5 -218.5q0 -76 -6 -136h-780q4 -31 20.5 -61t50 -62.5t97.5 -52.5
t149 -20q186 0 418 117zM926 551l-8 31q-67 143 -291 143q-96 0 -178 -45t-111 -129h588z" />
    <glyph glyph-name="ecircumflex" unicode="&#xea;" 
d="M1051 1087l-117 -73l-297 219l-297 -219l-121 76l322 301h194zM1145 125q-253 -150 -504 -150q-122 0 -220.5 38.5t-160 103.5t-94.5 148t-33 175q0 91 30 170t79.5 134t115 94t136.5 58t143 19q129 0 236.5 -52t172 -148.5t64.5 -218.5q0 -76 -6 -136h-780
q4 -31 20.5 -61t50 -62.5t97.5 -52.5t149 -20q186 0 418 117zM926 551l-8 31q-67 143 -291 143q-96 0 -178 -45t-111 -129h588z" />
    <glyph glyph-name="edieresis" unicode="&#xeb;" 
d="M1145 125q-253 -150 -504 -150q-122 0 -220.5 38.5t-160 103.5t-94.5 148t-33 175q0 91 30 170t79.5 134t115 94t136.5 58t143 19q129 0 236.5 -52t172 -148.5t64.5 -218.5q0 -76 -6 -136h-780q4 -31 20.5 -61t50 -62.5t97.5 -52.5t149 -20q186 0 418 117zM926 551l-8 31
q-67 143 -291 143q-96 0 -178 -45t-111 -129h588zM920 1049h-220v262h220v-262zM561 1049h-219v262h219v-262z" />
    <glyph glyph-name="igrave" unicode="&#xec;" 
d="M954 1137l-45 -123l-622 157l82 218zM1049 0h-869v190h338v508h-287v191h478v-699h340v-190z" />
    <glyph glyph-name="iacute" unicode="&#xed;" 
d="M1001 1171l-622 -157l-45 123l586 252zM1049 0h-869v190h338v508h-287v191h478v-699h340v-190z" />
    <glyph glyph-name="icircumflex" unicode="&#xee;" 
d="M1010 1087l-117 -73l-297 219l-297 -219l-121 76l322 301h194zM1049 0h-869v190h338v508h-287v191h478v-699h340v-190z" />
    <glyph glyph-name="idieresis" unicode="&#xef;" 
d="M879 1049h-220v262h220v-262zM520 1049h-219v262h219v-262zM1049 0h-869v190h338v508h-287v191h478v-699h340v-190z" />
    <glyph glyph-name="eth" unicode="&#xf0;" 
d="M1114 496q0 -86 -18 -163t-57 -143t-96 -113.5t-139.5 -74.5t-182.5 -27q-124 0 -223.5 39.5t-160.5 106t-93.5 148.5t-32.5 171q0 93 32.5 176.5t94.5 150.5t162 106.5t225 39.5q88 0 132.5 -14t98.5 -49q-1 4 -11 21.5t-31.5 47.5t-48 62.5t-65.5 68t-79 60.5
l-238 -133l-70 115l164 94q-104 49 -207 69l88 111q65 -13 143.5 -40.5t123.5 -55.5l268 149l65 -116l-196 -113q36 -24 76.5 -61.5t91 -102.5t90.5 -139.5t67 -178t27 -212.5zM926 444q0 52 -18.5 100.5t-54.5 89.5t-97.5 66t-139.5 25q-58 0 -112.5 -17t-100 -50.5
t-73 -90.5t-27.5 -129q0 -70 27 -123.5t73 -85t102 -47.5t118 -16q56 0 108 16.5t96.5 48.5t71.5 87t27 126z" />
    <glyph glyph-name="ntilde" unicode="&#xf1;" 
d="M1079 1270q-8 -29 -18 -55t-33 -65t-52 -66t-76.5 -47.5t-104.5 -20.5q-84 0 -154 43q-20 12 -45.5 30t-38.5 27t-31.5 16t-36.5 7q-23 0 -43 -13q-19 -12 -30.5 -29t-24.5 -49t-16 -38l-170 53q9 24 12.5 33t15 34.5t19.5 38t23.5 36t29 35.5t34.5 29t43 25.5t50.5 14.5
t59.5 6q50 0 112 -27q18 -8 60.5 -34.5t78 -45t56.5 -18.5t35.5 6.5t28.5 27t22 37.5t26 58zM1180 0h-498v190h156v394q0 35 -4.5 57t-19 43.5t-46 32t-80.5 10.5q-58 0 -141 -27t-150 -86v-424h160v-190h-506v190h158v508h-162v191h350v-66q141 92 310 92q184 0 268 -114
q51 -84 51 -174v-437h154v-190z" />
    <glyph glyph-name="ograve" unicode="&#xf2;" 
d="M981 1137l-45 -123l-623 157l82 218zM1137 446q0 -96 -30.5 -176t-81 -133.5t-117 -91t-137.5 -54t-144 -16.5q-70 0 -141.5 15t-143.5 50.5t-127.5 87.5t-90 133t-34.5 181q0 113 44.5 205.5t119 150.5t168 89t194.5 31q127 0 229 -41t164.5 -109t95 -150.5t32.5 -171.5
zM946 451q0 49 -19 95.5t-57 88t-105.5 67t-154.5 25.5q-140 0 -233.5 -77.5t-93.5 -205.5q0 -64 24 -115t60.5 -80.5t84 -49t89.5 -26.5t82 -7q84 0 155 28.5t119.5 95t48.5 161.5z" />
    <glyph glyph-name="oacute" unicode="&#xf3;" 
d="M1028 1171l-622 -157l-46 123l586 252zM1137 446q0 -96 -30.5 -176t-81 -133.5t-117 -91t-137.5 -54t-144 -16.5q-70 0 -141.5 15t-143.5 50.5t-127.5 87.5t-90 133t-34.5 181q0 113 44.5 205.5t119 150.5t168 89t194.5 31q127 0 229 -41t164.5 -109t95 -150.5
t32.5 -171.5zM946 451q0 49 -19 95.5t-57 88t-105.5 67t-154.5 25.5q-140 0 -233.5 -77.5t-93.5 -205.5q0 -64 24 -115t60.5 -80.5t84 -49t89.5 -26.5t82 -7q84 0 155 28.5t119.5 95t48.5 161.5z" />
    <glyph glyph-name="ocircumflex" unicode="&#xf4;" 
d="M1036 1087l-116 -73l-297 219l-297 -219l-121 76l321 301h195zM1137 446q0 -96 -30.5 -176t-81 -133.5t-117 -91t-137.5 -54t-144 -16.5q-70 0 -141.5 15t-143.5 50.5t-127.5 87.5t-90 133t-34.5 181q0 113 44.5 205.5t119 150.5t168 89t194.5 31q127 0 229 -41
t164.5 -109t95 -150.5t32.5 -171.5zM946 451q0 49 -19 95.5t-57 88t-105.5 67t-154.5 25.5q-140 0 -233.5 -77.5t-93.5 -205.5q0 -64 24 -115t60.5 -80.5t84 -49t89.5 -26.5t82 -7q84 0 155 28.5t119.5 95t48.5 161.5z" />
    <glyph glyph-name="otilde" unicode="&#xf5;" 
d="M1079 1270q-8 -29 -18 -55t-33 -65t-52 -66t-76.5 -47.5t-104.5 -20.5q-84 0 -154 43q-20 12 -45.5 30t-38.5 27t-31.5 16t-36.5 7q-23 0 -43 -13q-19 -12 -30.5 -29t-24.5 -49t-16 -38l-170 53q9 24 12.5 33t15 34.5t19.5 38t23.5 36t29 35.5t34.5 29t43 25.5t50.5 14.5
t59.5 6q50 0 112 -27q18 -8 60.5 -34.5t78 -45t56.5 -18.5t35.5 6.5t28.5 27t22 37.5t26 58zM1137 446q0 -96 -30.5 -176t-81 -133.5t-117 -91t-137.5 -54t-144 -16.5q-70 0 -141.5 15t-143.5 50.5t-127.5 87.5t-90 133t-34.5 181q0 113 44.5 205.5t119 150.5t168 89
t194.5 31q127 0 229 -41t164.5 -109t95 -150.5t32.5 -171.5zM946 451q0 49 -19 95.5t-57 88t-105.5 67t-154.5 25.5q-140 0 -233.5 -77.5t-93.5 -205.5q0 -64 24 -115t60.5 -80.5t84 -49t89.5 -26.5t82 -7q84 0 155 28.5t119.5 95t48.5 161.5z" />
    <glyph glyph-name="odieresis" unicode="&#xf6;" 
d="M1137 446q0 -96 -30.5 -176t-81 -133.5t-117 -91t-137.5 -54t-144 -16.5q-70 0 -141.5 15t-143.5 50.5t-127.5 87.5t-90 133t-34.5 181q0 113 44.5 205.5t119 150.5t168 89t194.5 31q127 0 229 -41t164.5 -109t95 -150.5t32.5 -171.5zM946 451q0 49 -19 95.5t-57 88
t-105.5 67t-154.5 25.5q-140 0 -233.5 -77.5t-93.5 -205.5q0 -64 24 -115t60.5 -80.5t84 -49t89.5 -26.5t82 -7q84 0 155 28.5t119.5 95t48.5 161.5zM905 1049h-219v262h219v-262zM547 1049h-219v262h219v-262z" />
    <glyph glyph-name="divide" unicode="&#xf7;" 
d="M727 764q0 -44 -31 -75.5t-75 -31.5t-75.5 31.5t-31.5 75.5t31.5 75t75.5 31t75 -31t31 -75zM1051 356h-863v191h863v-191zM727 139q0 -44 -31 -75t-75 -31t-75.5 31t-31.5 75t31.5 75.5t75.5 31.5t75 -31.5t31 -75.5z" />
    <glyph glyph-name="oslash" unicode="&#xf8;" 
d="M1137 446q0 -96 -30.5 -176t-81 -133.5t-117 -91t-137.5 -54t-144 -16.5q-167 0 -308 76l-98 -96l-115 104l91 88q-107 117 -107 295q0 113 44.5 205.5t119 150.5t168 89t194.5 31q175 0 304 -78l88 86l112 -107l-84 -82q101 -125 101 -291zM946 451q0 87 -49 153
l-430 -411q74 -27 156 -27q84 0 155 28.5t119.5 95t48.5 161.5zM772 698q-73 29 -162 29q-140 0 -233.5 -77.5t-93.5 -205.5q0 -97 53 -163z" />
    <glyph glyph-name="ugrave" unicode="&#xf9;" 
d="M940 1137l-45 -123l-623 157l82 218zM1174 0h-347v63q-131 -88 -270 -88q-108 0 -203.5 48.5t-128.5 142.5q-20 58 -20 158v374h-160v191h346v-570q0 -19 1.5 -34.5t11 -40.5t26.5 -41t50.5 -28.5t80.5 -12.5q83 0 142 32.5t124 92.5v411h-155v191h344v-699h158v-190z
" />
    <glyph glyph-name="uacute" unicode="&#xfa;" 
d="M987 1171l-622 -157l-46 123l586 252zM1174 0h-347v63q-131 -88 -270 -88q-108 0 -203.5 48.5t-128.5 142.5q-20 58 -20 158v374h-160v191h346v-570q0 -19 1.5 -34.5t11 -40.5t26.5 -41t50.5 -28.5t80.5 -12.5q83 0 142 32.5t124 92.5v411h-155v191h344v-699h158v-190z
" />
    <glyph glyph-name="ucircumflex" unicode="&#xfb;" 
d="M995 1087l-116 -73l-297 219l-297 -219l-121 76l321 301h195zM1174 0h-347v63q-131 -88 -270 -88q-108 0 -203.5 48.5t-128.5 142.5q-20 58 -20 158v374h-160v191h346v-570q0 -19 1.5 -34.5t11 -40.5t26.5 -41t50.5 -28.5t80.5 -12.5q83 0 142 32.5t124 92.5v411h-155
v191h344v-699h158v-190z" />
    <glyph glyph-name="udieresis" unicode="&#xfc;" 
d="M864 1049h-219v262h219v-262zM506 1049h-219v262h219v-262zM1174 0h-347v63q-131 -88 -270 -88q-108 0 -203.5 48.5t-128.5 142.5q-20 58 -20 158v374h-160v191h346v-570q0 -19 1.5 -34.5t11 -40.5t26.5 -41t50.5 -28.5t80.5 -12.5q83 0 142 32.5t124 92.5v411h-155v191
h344v-699h158v-190z" />
    <glyph glyph-name="yacute" unicode="&#xfd;" 
d="M1028 1171l-622 -157l-46 123l586 252zM1206 698h-149l-525 -882h134v-191h-570v191h226l170 280l-328 602h-150v191h455v-191h-96l225 -422l252 422h-90v191h446v-191z" />
    <glyph glyph-name="thorn" unicode="&#xfe;" 
d="M1143 453q0 -200 -132.5 -339t-332.5 -139q-169 0 -305 103v-262h291v-191h-635v191h155v1259h-159v191h348v-451q118 100 297 100q78 0 158.5 -28t152 -81.5t117 -145.5t45.5 -207zM954 449q0 128 -83 202t-203 74q-29 0 -63 -5.5t-78.5 -24t-79 -47t-58.5 -80.5
t-24 -119q0 -65 23 -117t57 -82.5t76.5 -50.5t78.5 -27.5t66 -7.5q116 0 202 80.5t86 204.5z" />
    <glyph glyph-name="ydieresis" unicode="&#xff;" 
d="M905 1049h-219v262h219v-262zM547 1049h-219v262h219v-262zM1206 698h-149l-525 -882h134v-191h-570v191h226l170 280l-328 602h-150v191h455v-191h-96l225 -422l252 422h-90v191h446v-191z" />
    <glyph glyph-name="dcroat" unicode="&#x111;" 
d="M1208 0h-340v74q-120 -99 -290 -99q-227 0 -356.5 118t-129.5 310q0 187 134 310t343 123q182 0 295 -101v160h-444v117h444v69h-243v191h432v-260h155v-117h-155v-705h155v-190zM864 401q0 108 -80.5 176t-201.5 68q-134 0 -216.5 -68.5t-82.5 -166.5q0 -109 77 -176.5
t213 -67.5q49 0 99 14.5t93.5 42.5t71 74.5t27.5 103.5z" />
    <glyph glyph-name="Hbar" unicode="&#x126;" 
d="M395 735v-100h447v100h-447zM1186 0h-504v190h160v254h-447v-254h162v-190h-506v190h156v545h-180v129h180v117h-156v190h506v-190h-162v-117h447v117h-160v190h504v-190h-156v-117h180v-129h-180v-545h156v-190z" />
    <glyph glyph-name="hbar" unicode="&#x127;" 
d="M1204 0h-502v190h156v322q0 135 -131 135q-136 0 -301 -119v-338h154v-190h-500v190h158v699h-226v117h226v75h-158v191h346v-266h330v-117h-330v-150q84 47 153.5 72t149.5 25q58 0 107.5 -13.5t78.5 -31.5t52 -42.5t31 -38t14 -26.5q35 -74 35 -186v-308h157v-190z" />
    <glyph glyph-name="dotlessi" unicode="&#x131;" 
d="M1049 0h-869v190h338v508h-287v191h478v-699h340v-190z" />
    <glyph glyph-name="IJ" unicode="&#x132;" 
d="M1151 981h-88v-868q0 -186 -101 -297t-319 -111q-130 0 -309 35l43 188q183 -34 262 -34q74 0 123.5 18.5t72.5 52t31 67.5t8 79v870h-186v190h463v-190zM524 0h-467v190h142v791h-142v190h467v-190h-137v-791h137v-190z" />
    <glyph glyph-name="ij" unicode="&#x133;" 
d="M532 1008h-215v307h215v-307zM829 0h-780v190h293v508h-240v191h430v-699h297v-190zM1063 1008h-213v307h213v-307zM1102 -49q0 -38 -9.5 -78t-37 -85.5t-69 -80.5t-112.5 -58.5t-161 -23.5q-99 0 -238 33l39 188q94 -32 182 -32q111 0 172 45q29 22 37 57t8 86v696h-290
v191h479v-938z" />
    <glyph glyph-name="kgreenlandic" unicode="&#x138;" 
d="M1186 0h-492v190h54q-86 98 -236 222l-68 -47v-365h-342v190h154v510h-156v191h344v-316l181 125h-39v191h524v-191h-207l-254 -188q70 -56 170.5 -153t159.5 -169h207v-190z" />
    <glyph glyph-name="Ldot" unicode="&#x13f;" 
d="M879 539h-217v262h217v-262zM1143 0h-1039v190h195v791h-195v190h629v-190h-246v-791h465v361h191v-551z" />
    <glyph glyph-name="ldot" unicode="&#x140;" 
d="M1335 551h-219v262h219v-262zM1053 0h-867v190h338v891h-323v191h514v-1082h338v-190z" />
    <glyph glyph-name="Lslash" unicode="&#x141;" 
d="M1143 0h-1039v190h195v265l-164 -47v133l164 47v393h-195v190h629v-190h-246v-340l293 82v-129l-293 -84v-320h465v361h191v-551z" />
    <glyph glyph-name="lslash" unicode="&#x142;" 
d="M1047 0h-865v190h338v377l-227 -65v131l227 67v381h-323v191h514v-516l223 65v-135l-223 -63v-433h336v-190z" />
    <glyph glyph-name="napostrophe" unicode="&#x149;" 
d="M1202 0h-379v190h97v375q0 33 -1 51.5t-6 42t-14.5 35.5t-27.5 20.5t-44 8.5q-94 0 -200 -111v-422h98v-190h-385v190h96v508h-96v191h287v-58l37 27q75 55 172 55q118 0 198 -88q43 -49 57.5 -114t14.5 -154v-367h96v-190zM328 1171l-242 -540h-168l178 540h232z" />
    <glyph glyph-name="Eng" unicode="&#x14a;" 
d="M1239 981h-158v-954q0 -152 -46.5 -247.5t-147.5 -144.5q-71 -36 -189 -36q-69 0 -151 24l26 144q59 -21 109 -21t86.5 13t59 35t36.5 56.5t19.5 70.5t7.5 85l-518 830v-646h198v-190h-542v190h155v791h-155v190h366l498 -837v647h-191v190h537v-190z" />
    <glyph glyph-name="eng" unicode="&#x14b;" 
d="M1026 63q0 -53 -2.5 -95.5t-10.5 -92.5t-21.5 -88t-37.5 -74.5t-56.5 -60.5t-80 -38.5t-106.5 -14.5q-60 0 -117 14l27 143q41 -10 69 -10q30 0 53.5 12.5t38.5 31.5t26 49t16.5 56.5t9 62.5t4 58.5t0.5 53.5v514q0 35 -4.5 57t-19 43.5t-46 32t-80.5 10.5
q-58 0 -141 -27t-150 -86v-424h160v-190h-506v190h158v508h-162v191h350v-66q141 92 310 92q184 0 268 -114q51 -84 51 -174v-564z" />
    <glyph glyph-name="OE" unicode="&#x152;" 
d="M1245 0h-786q-79 0 -159 38t-147 107.5t-109 180t-42 241.5q0 132 42.5 247.5t112 192t157.5 120.5t180 44h751v-364h-151v174h-252v-289h53v96h149v-391h-149v107h-53v-314h252v164h151v-354zM651 291v612q0 78 -108 78q-145 0 -249 -114t-104 -300q0 -172 89.5 -274.5
t244.5 -102.5q127 0 127 101z" />
    <glyph glyph-name="oe" unicode="&#x153;" 
d="M1241 45q-96 -36 -163.5 -53t-143.5 -17q-52 0 -95 9t-68.5 18.5t-55.5 33.5t-40 35t-38 42q-24 -31 -54.5 -58t-89 -53.5t-122.5 -26.5q-68 0 -123.5 18.5t-92.5 48t-64.5 71t-42.5 82t-24 87.5t-11.5 80.5t-2.5 67.5q0 104 23 190.5t69 152.5t120.5 103t170.5 37
q172 0 269 -108q97 108 241 108q67 0 122.5 -27t92 -71.5t61 -102t35.5 -117t11 -118.5t-6 -121h-482v-4q0 -15 4 -35.5t16.5 -48.5t32.5 -50t56.5 -38t83.5 -16q72 0 164 33l84 32zM1034 547q-1 17 -1.5 24t-3.5 29.5t-8 34.5t-15 31.5t-24 30t-36 18.5t-49 8
q-72 0 -117.5 -54t-52.5 -122h307zM535 487v21q0 29 -1.5 51.5t-10 55.5t-23.5 54.5t-44 37.5t-69 16q-184 0 -184 -281q0 -136 35.5 -207t128.5 -71q39 0 68 11.5t47 36t29 51t16 68t6.5 74t1.5 82.5z" />
    <glyph glyph-name="Scaron" unicode="&#x160;" 
d="M1090 336q0 -109 -63.5 -193t-168.5 -127t-233 -43q-43 0 -82.5 5.5t-73.5 16t-53.5 18t-46.5 20.5t-29 14v-74h-188v428h188v-155q142 -84 285 -84q142 0 210 47t68 127q0 65 -42.5 96t-123.5 37q-16 1 -74 5t-80.5 6.5t-70.5 9.5t-76 16t-63.5 25t-63.5 38
q-61 47 -93 112t-32 138q0 51 18 103.5t55 101t88.5 86.5t125 61t158.5 23q128 0 231 -47v47h189v-440h-189v196q-115 56 -223 56q-119 0 -190.5 -57.5t-71.5 -129.5q0 -125 188 -153q33 -5 85 -9.5t90 -8t86 -13t84 -24t72.5 -42t61.5 -65.5q48 -73 48 -168zM1047 1583
l-316 -299h-194l-320 305l123 72l293 -217l299 215z" />
    <glyph glyph-name="scaron" unicode="&#x161;" 
d="M1059 1313l-314 -299h-194l-322 301l121 76l297 -217l295 217zM1073 270q0 -132 -117.5 -213.5t-291.5 -81.5q-146 0 -297 60v-60h-189v385h189v-143q144 -51 286 -51q91 0 164.5 27.5t73.5 76.5q0 41 -29 56q-28 16 -64.5 21.5t-91 6.5t-71.5 2q-36 3 -53 4.5t-58 7
t-64.5 11.5t-61.5 17.5t-61.5 25t-51.5 35t-43 46.5t-26 59.5t-11 74.5q0 73 34.5 129t91 88t122 48t135.5 16q136 0 258 -48v48h188v-357h-188v115q-105 51 -242 51q-24 0 -54.5 -3.5t-71 -12t-67 -29t-26.5 -49.5q0 -77 186 -92l256 -21q104 -8 175 -75t71 -175z" />
    <glyph glyph-name="Tbar" unicode="&#x166;" 
d="M1153 725h-190v256h-250v-367h223v-129h-223v-295h248v-190h-685v190h246v295h-223v129h223v367h-250v-256h-190v446h1071v-446z" />
    <glyph glyph-name="tbar" unicode="&#x167;" 
d="M1120 98q-66 -28 -107 -44.5t-104 -37.5t-121.5 -31t-113.5 -10q-49 0 -92 6t-93 26.5t-85 54.5t-58.5 94t-23.5 141v152h-129v129h129v120h-129v191h129v272h190v-272h487v-191h-487v-120h340v-129h-340v-107q0 -32 2 -53t11.5 -47t26 -41.5t48 -26t76.5 -10.5
q135 0 411 123z" />
    <glyph glyph-name="Ydieresis" unicode="&#x178;" 
d="M1194 981h-158l-319 -528v-263h244v-190h-682v190h247v263l-319 528h-154v190h471v-190h-106l207 -346l209 346h-111v190h471v-190zM909 1352h-219v264h219v-264zM551 1352h-219v264h219v-264z" />
    <glyph glyph-name="Zcaron" unicode="&#x17d;" 
d="M1079 0h-923v145l616 836h-420v-258h-188v448h870v-135l-624 -846h481v289h188v-479zM1026 1583l-315 -299h-195l-319 305l122 72l293 -217l299 215z" />
    <glyph glyph-name="zcaron" unicode="&#x17e;" 
d="M1036 1313l-313 -299h-195l-321 301l121 76l297 -217l295 217zM1036 0h-848v145l551 555h-333v-151h-189v340h819v-137l-553 -562h365v170h188v-360z" />
    <glyph glyph-name="florin" unicode="&#x192;" 
d="M1141 1251l-111 -188q-91 14 -145 14q-55 0 -99 -20q-9 -4 -16.5 -10t-13.5 -15t-9.5 -15.5t-7.5 -19.5t-5.5 -19t-4.5 -21t-4 -19l-10 -49h213l-37 -191h-209l-121 -673q-19 -104 -78 -165t-133 -81q-88 -23 -139 -23q-103 0 -248 17l113 186q135 -12 145 -12
q87 0 120 33t54 149l101 569h-203l37 191h200l15 72q9 44 15 67.5t18.5 59t32 61.5t46.5 47q90 70 281 70q74 0 203 -15z" />
    <glyph glyph-name="circumflex" unicode="&#x2c6;" 
d="M1036 1087l-116 -73l-297 219l-297 -219l-121 76l321 301h195z" />
    <glyph glyph-name="caron" unicode="&#x2c7;" 
d="M1036 1313l-313 -299h-195l-321 301l121 76l297 -217l295 217z" />
    <glyph glyph-name="uni02C9" unicode="&#x2c9;" 
d="M1044 1024h-860v186h860v-186z" />
    <glyph glyph-name="breve" unicode="&#x2d8;" 
d="M1073 1346q-5 -36 -20.5 -75t-49 -86.5t-80.5 -84t-122.5 -61.5t-167.5 -25q-83 0 -154 21t-120 54t-85.5 77.5t-56.5 89t-29 90.5h195q14 -67 77 -119.5t173 -52.5q30 0 58.5 5t69.5 20.5t74.5 53t49.5 93.5h188z" />
    <glyph glyph-name="dotaccent" unicode="&#x2d9;" 
d="M731 1049h-219v264h219v-264z" />
    <glyph glyph-name="ring" unicode="&#x2da;" 
d="M838 1255q0 -88 -62.5 -150.5t-150.5 -62.5t-150.5 62.5t-62.5 150.5t62.5 150.5t150.5 62.5t150.5 -62.5t62.5 -150.5zM711 1255q0 35 -25.5 60.5t-60.5 25.5t-60.5 -25.5t-25.5 -60.5t25.5 -60.5t60.5 -25.5t60.5 25.5t25.5 60.5z" />
    <glyph glyph-name="ogonek" unicode="&#x2db;" 
d="M1079 45l-44 -22t-62 -33.5t-57 -37.5t-48.5 -46.5t-17.5 -48.5q0 -29 20.5 -44.5t40.5 -15.5q44 0 150 78l-31 -166q-81 -71 -182 -71q-82 0 -135.5 53.5t-53.5 126.5q0 42 18.5 80t45 63t57.5 44.5t52.5 28.5t33.5 11h213z" />
    <glyph glyph-name="tilde" unicode="&#x2dc;" 
d="M1079 1270q-8 -29 -18 -55t-33 -65t-52 -66t-76.5 -47.5t-104.5 -20.5q-84 0 -154 43q-20 12 -45.5 30t-38.5 27t-31.5 16t-36.5 7q-23 0 -43 -13q-19 -12 -30.5 -29t-24.5 -49t-16 -38l-170 53q9 24 12.5 33t15 34.5t19.5 38t23.5 36t29 35.5t34.5 29t43 25.5t50.5 14.5
t59.5 6q50 0 112 -27q18 -8 60.5 -34.5t78 -45t56.5 -18.5t35.5 6.5t28.5 27t22 37.5t26 58z" />
    <glyph glyph-name="hungarumlaut" unicode="&#x2dd;" 
d="M1217 1378l-414 -364l-105 49l351 391zM856 1378l-416 -364l-104 49l352 391z" />
    <glyph glyph-name="Gamma" unicode="&#x393;" 
d="M1110 739h-190v242h-433v-791h252v-190h-596v190h154v791h-152v190h965v-432z" />
    <glyph glyph-name="Theta" unicode="&#x398;" 
d="M1161 584q0 -132 -37.5 -239.5t-95 -174.5t-132 -112.5t-144 -64t-134.5 -18.5q-80 0 -157.5 23t-148 72.5t-124 119t-85 170.5t-31.5 220q0 120 38 230t106 195.5t173 137t229 51.5q105 0 195 -35.5t153 -96t107.5 -139t66 -165t21.5 -174.5zM975 592q0 51 -10.5 104.5
t-36.5 109.5t-65.5 99t-102.5 71t-142 28q-86 0 -155.5 -35t-113.5 -93.5t-67.5 -133t-23.5 -156.5q0 -84 21.5 -158.5t63.5 -134.5t113 -95.5t162 -35.5q79 0 142.5 28t102.5 72t65 102.5t36.5 114.5t10.5 113zM844 401h-148v103h-159v-103h-148v371h148v-104h159v104h148
v-371z" />
    <glyph glyph-name="Phi" unicode="&#x3a6;" 
d="M1143 584q0 -87 -33 -152t-93 -104t-134.5 -59t-167.5 -25v-62h159v-182h-509v182h159v62q-93 5 -167.5 25t-134.5 59t-93 104t-33 152q0 151 108 241.5t320 102.5v61h-159v182h509v-182h-159v-61q212 -12 320 -102.5t108 -241.5zM963 588q0 70 -63.5 112.5t-188.5 49.5
v-330q252 17 252 168zM528 420v330q-125 -7 -188.5 -49.5t-63.5 -112.5q0 -151 252 -168z" />
    <glyph glyph-name="uni03A9" unicode="&#x3a9;" 
d="M1184 659q0 -172 -89.5 -296.5t-267.5 -184.5h213v62h138v-240h-521v293q170 41 248 131.5t78 241.5q0 137 -103 237.5t-262 100.5q-160 0 -264 -98.5t-104 -239.5q0 -161 85 -247.5t240 -125.5v-293h-520v240h138v-62h213q-160 48 -258.5 172t-98.5 309q0 105 41 202
t113.5 171t180 118t232.5 44t232.5 -43t180.5 -116t114 -170.5t41 -205.5z" />
    <glyph glyph-name="alpha" unicode="&#x3b1;" 
d="M1126 0h-221l-74 203q-71 -118 -156 -173t-198 -55q-44 0 -89.5 10.5t-100 42t-96 81.5t-69.5 137t-28 200q0 119 47.5 226.5t137 176.5t198.5 69q140 0 228.5 -70t148.5 -238q19 41 45.5 129t34.5 150h184q-9 -80 -57 -228.5t-111 -259.5l80 -211h96v-190zM758 412
l-35 94q-26 72 -57 120.5t-63 72t-59.5 32t-58.5 8.5q-68 0 -118.5 -46t-72.5 -109.5t-22 -130.5q0 -146 60.5 -223.5t152.5 -77.5q157 0 273 260z" />
    <glyph glyph-name="delta" unicode="&#x3b4;" 
d="M1090 438q0 -201 -129.5 -332t-339.5 -131q-213 0 -345.5 130t-132.5 333q0 103 41.5 194.5t130.5 160.5t211 88l-297 223v192h723v-190h-415l317 -242q75 -57 123.5 -111.5t80.5 -135.5t32 -179zM897 436q0 30 -7 63t-26.5 72.5t-49 70t-80.5 51t-116 20.5
q-129 0 -205.5 -81t-76.5 -196q0 -49 18 -96t51.5 -86.5t90 -63.5t125.5 -24q121 0 198.5 75.5t77.5 194.5z" />
    <glyph glyph-name="epsilon" unicode="&#x3b5;" 
d="M1030 109q-83 -67 -180 -100.5t-236 -33.5q-77 0 -144.5 13t-129.5 43t-98.5 87t-36.5 136q0 185 180 225q-158 48 -158 172q0 59 22 106t58 76.5t84.5 49t98.5 27.5t104 8q128 0 215 -46v46h188v-343h-188v103q-34 20 -101 34.5t-110 14.5q-102 0 -135 -23.5t-33 -64.5
q0 -80 178 -80h154v-190h-141q-47 0 -81.5 -3.5t-66.5 -13t-48.5 -29t-16.5 -49.5q0 -53 51 -81.5t172 -28.5q174 0 297 94z" />
    <glyph glyph-name="uni03BC" unicode="&#x3bc;" 
d="M1182 0h-353v90q-60 -57 -123 -86t-153 -29q-86 0 -154 64v-381h-192v1040h-160v191h352v-563q0 -76 43.5 -123t120.5 -47q85 0 145 26t121 84v432h-159v191h352v-699h160v-190z" />
    <glyph glyph-name="pi" unicode="&#x3c0;" 
d="M1139 0h-482v190h138v508h-361v-508h137v-190h-483v190h156v508h-156v191h1051v-191h-154v-508h154v-190z" />
    <glyph glyph-name="sigma" unicode="&#x3c3;" 
d="M1202 725h-194q116 -86 116 -281q0 -204 -139.5 -336.5t-366.5 -132.5q-232 0 -375 132.5t-143 338.5q0 143 71 252t187 164.5t258 55.5h586v-193zM932 442q0 31 -7 64.5t-28.5 74t-55 71.5t-92.5 52t-135 21q-149 0 -235 -82.5t-86 -200.5q0 -50 19.5 -98t57 -89
t101.5 -66t145 -25q141 0 228.5 78.5t87.5 199.5z" />
    <glyph glyph-name="tau" unicode="&#x3c4;" 
d="M915 698h-258v-440q0 -111 93 -111q54 0 112 41l43 -145q-85 -68 -200 -68q-57 0 -99.5 14.5t-68.5 38.5t-42 59.5t-22 72.5t-6 82v456h-80q-94 0 -192 -41v191q61 41 192 41h528v-191z" />
    <glyph glyph-name="uni03D5" unicode="&#x3d5;" 
d="M1143 442q0 -212 -116 -336t-322 -141v-307h-191v309q-207 36 -300 158.5t-93 337.5q0 135 53 258.5t154 196.5l121 -130q-67 -56 -103.5 -140.5t-36.5 -176.5q0 -262 205 -313v514q0 110 67 178t181 68q74 0 137.5 -27.5t107.5 -74.5t75.5 -108.5t46 -129t14.5 -136.5z
M950 442q0 113 -46 195.5t-111 87.5h-5q-32 0 -57.5 -32t-25.5 -99v-438q118 14 181.5 86t63.5 200z" />
    <glyph glyph-name="uni2010" unicode="&#x2010;" 
d="M942 389h-653v189h653v-189z" />
    <glyph glyph-name="endash" unicode="&#x2013;" 
d="M1069 387h-911v191h911v-191z" />
    <glyph glyph-name="emdash" unicode="&#x2014;" 
d="M1229 387h-1229v191h1229v-191z" />
    <glyph glyph-name="underscoredbl" unicode="&#x2017;" 
d="M1229 -301h-1229v104h1229v-104zM1229 -512h-1229v104h1229v-104z" />
    <glyph glyph-name="quoteleft" unicode="&#x2018;" 
d="M905 629h-223l-252 542h299z" />
    <glyph glyph-name="quoteright" unicode="&#x2019;" 
d="M788 1171l-251 -542h-224l174 542h301z" />
    <glyph glyph-name="quotesinglbase" unicode="&#x201a;" 
d="M788 334l-247 -539h-228l176 539h299z" />
    <glyph glyph-name="quotereversed" unicode="&#x201b;" 
d="M905 629h-223l-252 542h299z" />
    <glyph glyph-name="quotedblleft" unicode="&#x201c;" 
d="M1114 629h-223l-256 542h299zM700 629h-225l-254 542h299z" />
    <glyph glyph-name="quotedblright" unicode="&#x201d;" 
d="M993 1171l-254 -542h-225l180 542h299zM586 1171l-256 -542h-224l181 542h299z" />
    <glyph glyph-name="quotedblbase" unicode="&#x201e;" 
d="M993 334l-254 -541h-225l180 541h299zM586 334l-256 -541h-224l181 541h299z" />
    <glyph glyph-name="dagger" unicode="&#x2020;" 
d="M989 678h-280v-768h-191v768h-278v190h278v303h191v-303h280v-190z" />
    <glyph glyph-name="daggerdbl" unicode="&#x2021;" 
d="M989 305h-278v-391h-191v391h-280v191h280v186h-280v190h280v299h191v-299h278v-190h-278v-186h278v-191z" />
    <glyph glyph-name="bullet" unicode="&#x2022;" 
d="M983 616q0 -154 -107.5 -262t-261.5 -108t-261 108t-107 262t107.5 262.5t260.5 108.5q154 0 261.5 -108.5t107.5 -262.5z" />
    <glyph glyph-name="ellipsis" unicode="&#x2026;" 
d="M1200 102q0 -50 -40.5 -88.5t-104.5 -38.5q-67 0 -108.5 38t-41.5 87q0 48 39 87.5t109 39.5q67 0 107 -37.5t40 -87.5zM772 102q0 -50 -40.5 -88.5t-104.5 -38.5q-67 0 -109.5 38t-42.5 87q0 48 40 87.5t110 39.5q67 0 107 -37.5t40 -87.5zM342 102q0 -50 -39.5 -88.5
t-103.5 -38.5q-67 0 -109.5 38t-42.5 87q0 48 40 87.5t110 39.5q67 0 106 -37t39 -88z" />
    <glyph glyph-name="perthousand" unicode="&#x2030;" 
d="M1427 223q0 -124 -89.5 -207.5t-217.5 -83.5q-134 1 -218.5 86t-84.5 203t88 205.5t219 87.5q132 0 217.5 -87t85.5 -204zM1280 223q0 59 -44.5 101.5t-115.5 42.5q-72 0 -114.5 -42.5t-42.5 -101.5t42.5 -101t112.5 -42q66 0 114 37t48 106zM430 973q0 -125 -89 -208
t-216 -83q-134 1 -219.5 86t-85.5 203t89 205.5t220 87.5q132 0 216.5 -87t84.5 -204zM285 973q0 59 -44.5 101t-115.5 42q-72 0 -115 -42t-43 -101t43 -101.5t113 -42.5q66 0 114 37.5t48 106.5zM780 223q0 -124 -89.5 -207.5t-217.5 -83.5q-134 1 -218.5 86t-84.5 203
t88 205.5t219 87.5q132 0 217.5 -87t85.5 -204zM633 223q0 59 -44.5 101.5t-115.5 42.5q-72 0 -115 -42.5t-43 -101.5t43 -101t113 -42q66 0 114 37t48 106zM807 725l-866 -373l-62 127l869 377z" />
    <glyph glyph-name="guilsinglleft" unicode="&#x2039;" 
d="M932 184l-105 -135l-563 412l557 405l107 -137l-404 -270z" />
    <glyph glyph-name="guilsinglright" unicode="&#x203a;" 
d="M965 461l-564 -412l-104 135l408 275l-404 270l107 137z" />
    <glyph glyph-name="exclamdbl" unicode="&#x203c;" 
d="M983 1171l-37 -798h-186l-37 798h260zM487 1171l-36 -798h-187l-37 798h260zM1042 133q0 -70 -53.5 -114t-132.5 -44q-41 0 -83 14.5t-75.5 51.5t-33.5 90q0 60 50.5 109t139.5 49q84 0 136 -46.5t52 -109.5zM547 133q0 -69 -54.5 -113.5t-134.5 -44.5q-41 0 -82.5 14.5
t-74.5 51.5t-33 90q0 61 49.5 109.5t138.5 48.5q85 0 138 -46.5t53 -109.5z" />
    <glyph glyph-name="uni203E" unicode="&#x203e;" 
d="M1229 1440h-1229v104h1229v-104z" />
    <glyph glyph-name="fraction" unicode="&#x2044;" 
d="M1227 1198l-1028 -1372l-146 106l1026 1366z" />
    <glyph glyph-name="n.superior" unicode="&#x207f;" 
d="M999 541h-383v137h127v326q0 20 -2.5 33t-11.5 32.5t-33.5 30t-62.5 10.5q-117 0 -236 -94v-338h127v-137h-387v137h125v414h-127v137h262v-53q41 31 111 51q59 20 121 20q154 0 215 -96q35 -54 35 -176v-297h120v-137z" />
    <glyph glyph-name="franc" unicode="&#x20a3;" 
d="M952 926h-190v55h-420v-293h88v135h188v-458h-188v133h-88v-308h139v-190h-481v190h154v791h-152v190h950v-245zM897 848v-119q48 85 120.5 137t135.5 52q102 0 163.5 -64t61.5 -170l-180 -29q-5 39 -22.5 55.5t-55.5 16.5q-60 0 -122 -44t-101 -136v-357h178v-190h-506
v190h138v658h190z" />
    <glyph glyph-name="peseta" unicode="&#x20a7;" 
d="M1229 23q-51 -48 -152 -48q-55 0 -99 13t-73 32.5t-50 51t-32 60.5t-17 69t-7.5 68.5t-1.5 66.5v362h-56v191h56v266h188v-266h113v-191h-113v-381q0 -83 32 -119t103 -36q35 0 82 14zM690 774q0 -111 -56 -202.5t-138 -127.5q-98 -44 -238 -47v-207h53v-190h-301v190h58
v791h-58v190h215q142 0 244 -40t161.5 -130.5t59.5 -226.5zM502 776q0 201 -244 201v-391q89 0 135 20q40 18 74.5 61.5t34.5 108.5z" />
    <glyph glyph-name="Euro" unicode="&#x20ac;" 
d="M788 561l-51 -166h-331q44 -109 129 -170t194 -61q58 0 112 12.5t105 38.5t74 40.5t63 41.5l115 -139q-103 -93 -240.5 -138t-222.5 -45q-216 0 -349.5 114.5t-182.5 305.5h-191l51 166h115q-2 20 -2 62v39h-164l51 165h138q50 195 186 310.5t328 115.5q73 0 149.5 -27
t132.5 -79v106h189v-456h-189v133q-32 56 -109.5 95.5t-156.5 39.5q-127 0 -210.5 -62t-117.5 -176h463l-51 -165h-446q-2 -14 -2 -41q0 -42 2 -60h419z" />
    <glyph glyph-name="uni2113" unicode="&#x2113;" 
d="M989 1208q0 -124 -72 -269t-169 -263l-228 -279q0 -123 6 -243q2 -30 16 -51t40 -21q37 0 79 42.5t103 125.5l92 -78q-29 -42 -50.5 -69.5t-62 -70.5t-85.5 -66t-91 -23q-25 0 -46 6.5t-37 15t-30 26.5t-23 30.5t-17.5 38t-13 38.5t-9 42t-6 39t-5 39t-3.5 32l-94 -96
l-86 96l180 180v176q6 167 47 339t102 259q135 195 308 195q83 0 129 -68q26 -40 26 -123zM850 1194q0 28 -10 45q-14 21 -49 21q-53 0 -110 -69t-96 -171.5t-48 -200.5q-15 -108 -21 -227l195 258q47 62 93 157t46 187z" />
    <glyph glyph-name="trademark" unicode="&#x2122;" 
d="M1118 780h-88v547l-123 -547h-112l-129 549v-549h-88v609h161l109 -474l106 474h164v-609zM508 1298h-152v-518h-90v518h-151v91h393v-91z" />
    <glyph glyph-name="Omega" unicode="&#x2126;" 
d="M1184 659q0 -172 -89.5 -296.5t-267.5 -184.5h213v62h138v-240h-521v293q170 41 248 131.5t78 241.5q0 137 -103 237.5t-262 100.5q-160 0 -264 -98.5t-104 -239.5q0 -161 85 -247.5t240 -125.5v-293h-520v240h138v-62h213q-160 48 -258.5 172t-98.5 309q0 105 41 202
t113.5 171t180 118t232.5 44t232.5 -43t180.5 -116t114 -170.5t41 -205.5z" />
    <glyph glyph-name="estimated" unicode="&#x212e;" 
d="M1247 524h-1024q-8 0 -8 -8v-309q0 -24 14 -35q76 -79 175 -124.5t210 -45.5q122 0 227.5 50.5t182.5 140.5h92q-88 -103 -220.5 -162.5t-283.5 -59.5q-171 0 -316 75.5t-229.5 206.5t-84.5 286t84.5 286.5t229.5 208t316 76.5q130 0 247.5 -45.5t202.5 -122t135 -182
t50 -221.5v-15zM1016 563v314q0 19 -17 36q-169 162 -385 162q-109 0 -208 -45t-175 -123q-16 -13 -16 -39v-305q0 -10 8 -10h787q6 0 6 10z" />
    <glyph glyph-name="oneeighth" unicode="&#x215b;" 
d="M1268 47q0 -96 -68.5 -159.5t-175.5 -63.5t-173.5 63.5t-66.5 151.5q0 119 101 197l-27 18q-65 46 -65 121q0 63 62 116.5t173 53.5q53 0 103.5 -17t87 -57t36.5 -94q0 -29 -7 -51.5t-24 -40t-28 -26t-35 -23.5q107 -65 107 -189zM1116 352q0 27 -29.5 41.5t-64.5 14.5
q-36 0 -64 -17t-28 -43q0 -22 26.5 -39.5t69.5 -17.5q37 0 63.5 17.5t26.5 43.5zM1128 61q0 12 -2.5 24t-11 30t-31 29.5t-55.5 11.5q-36 0 -59.5 -11t-33 -29.5t-12.5 -31t-3 -25.5q0 -47 31.5 -72.5t74.5 -25.5q41 0 71.5 27.5t30.5 72.5zM1251 1182l-1034 -1368l-141 104
l1028 1362zM444 541h-491v139h184v395l-162 -31v140l299 59v-563h170v-139z" />
    <glyph glyph-name="threeeighths" unicode="&#x215c;" 
d="M1249 47q0 -96 -68.5 -159.5t-174.5 -63.5q-107 0 -173.5 63.5t-66.5 151.5q0 119 100 197l-26 18q-66 47 -66 121q0 63 62.5 116.5t173.5 53.5q53 0 103.5 -17t87 -57t36.5 -94q0 -29 -7 -51.5t-24 -40t-28 -26t-35 -23.5q106 -64 106 -189zM1098 352q0 27 -29.5 41.5
t-64.5 14.5q-37 0 -65 -17.5t-28 -42.5q0 -22 27 -39.5t70 -17.5q37 0 63.5 17.5t26.5 43.5zM1110 61q0 12 -2.5 24t-11 30t-31 29.5t-55.5 11.5q-29 0 -50.5 -8t-32 -19t-17 -26t-8 -24.5t-1.5 -19.5q0 -47 32 -72.5t75 -25.5q41 0 71.5 27.5t30.5 72.5zM1233 1182
l-1034 -1368l-142 104l1028 1362zM176 844v135h68q1 0 3.5 -1t4.5 -1q39 0 64.5 17t25.5 53q0 33 -21.5 47t-48.5 14q-28 0 -64 -14t-53.5 -24t-58.5 -36l-73 117q130 92 237 92q86 0 154 -53q65 -53 65 -141q0 -82 -47 -123q82 -67 82 -170q0 -97 -72 -165.5t-190 -68.5
q-94 0 -246 70l55 129q41 -20 65.5 -31t62.5 -21t73 -10h4q50 0 79.5 28t29.5 69q0 37 -26 62.5t-79 25.5h-94z" />
    <glyph glyph-name="fiveeighths" unicode="&#x215d;" 
d="M1237 47q0 -96 -68.5 -159.5t-175.5 -63.5t-173 63.5t-66 151.5q0 119 100 197l-27 18q-65 46 -65 121q0 63 62 116.5t173 53.5q53 0 103.5 -17t87.5 -57t37 -94q0 -38 -16.5 -67.5t-31.5 -41t-47 -32.5q107 -65 107 -189zM1085 352q0 27 -29.5 41.5t-64.5 14.5
q-36 0 -64 -17t-28 -43q0 -22 26.5 -39.5t69.5 -17.5q37 0 63.5 17.5t26.5 43.5zM1098 61q0 12 -2.5 24t-11.5 30t-31.5 29.5t-55.5 11.5q-36 0 -59.5 -11t-33 -29.5t-12.5 -31t-3 -25.5q0 -47 31.5 -72.5t74.5 -25.5q41 0 72 27.5t31 72.5zM1221 1182l-1035 -1368l-141 104
l1028 1362zM471 1092h-281v-103q54 12 91 12q89 0 156 -60.5t67 -162.5q0 -105 -67 -179.5t-193 -74.5q-65 0 -116.5 15.5t-113.5 44.5l47 114q98 -36 168 -36q18 0 35 2.5t43.5 11t43 31.5t16.5 57q0 30 -13 51.5t-34.5 32t-42.5 14.5t-44 4q-42 0 -116 -18l-58 39v342h412
v-137z" />
    <glyph glyph-name="seveneighths" unicode="&#x215e;" 
d="M1200 47q0 -96 -68.5 -159.5t-175.5 -63.5t-173 63.5t-66 151.5q0 119 100 197l-26 18q-66 47 -66 121q0 63 62.5 116.5t173.5 53.5q53 0 103.5 -17t87 -57t36.5 -94q0 -29 -7 -51.5t-24 -40t-28 -26t-35 -23.5q106 -64 106 -189zM1049 352q0 27 -29.5 41.5t-65.5 14.5
t-64 -17t-28 -43q0 -22 26.5 -39.5t69.5 -17.5q37 0 64 17.5t27 43.5zM1061 61q0 12 -2.5 24t-11 30t-31 29.5t-55.5 11.5q-29 0 -50.5 -8t-32 -19t-17 -26t-8 -24.5t-1.5 -19.5q0 -47 31.5 -72.5t74.5 -25.5q41 0 72 27.5t31 72.5zM1184 1182l-1034 -1368l-142 104
l1028 1362zM522 1145l-219 -604h-133l205 551h-191v-76h-137v213h475v-84z" />
    <glyph glyph-name="uni2190" unicode="&#x2190;" 
d="M1229 340h-905l323 -137l-49 -142l-598 258v230l600 262l47 -143l-323 -138h905v-190z" />
    <glyph glyph-name="arrowup" unicode="&#x2191;" 
d="M993 539l-141 -47l-137 323v-815h-191v815l-135 -323l-143 47l260 608h227z" />
    <glyph glyph-name="uni2192" unicode="&#x2192;" 
d="M1229 319l-598 -258l-49 142l323 137h-905v190h905l-323 138l47 143l600 -262v-230z" />
    <glyph glyph-name="arrowdown" unicode="&#x2193;" 
d="M993 606l-260 -606h-227l-260 606l143 47l135 -323v817h191v-817l137 323z" />
    <glyph glyph-name="arrowboth" unicode="&#x2194;" 
d="M1229 311l-473 -209l-51 136l215 96h-605l220 -98l-56 -134l-479 211v230l481 217l54 -135l-218 -101h598l-213 101l52 135l475 -217v-232z" />
    <glyph glyph-name="arrowupdn" unicode="&#x2195;" 
d="M942 451l-203 -451h-229l-209 451l141 53l86 -193v512l-88 -184l-139 53l209 455h233l199 -455l-133 -53l-92 190v-518l90 193z" />
    <glyph glyph-name="arrowupdnbse" unicode="&#x21a8;" 
d="M920 449l-199 -449h-238l-200 451l135 55l88 -195v516l-88 -190l-139 55l210 455h230l201 -455l-134 -55l-90 190v-518l88 195zM920 -336h-641v129h641v-129z" />
    <glyph glyph-name="partialdiff" unicode="&#x2202;" 
d="M850 854v16q0 128 -47 194t-137 66q-76 0 -109 -51q-4 -6 -17 -28t-18.5 -28t-20 -14t-34.5 -8q-36 0 -61 20t-25 44q0 52 36 111t102 102t140 43q175 0 276 -156t101 -440q0 -137 -35.5 -275.5t-93.5 -238.5q-134 -236 -377 -236q-152 0 -246 106t-94 284
q0 111 42 217.5t118 187.5q129 141 303 141q111 0 197 -57zM829 553q0 81 -45 125.5t-122 44.5q-115 0 -199 -105t-84 -262q0 -91 42.5 -142.5t115.5 -51.5q76 0 144 57t108 147.5t40 186.5z" />
    <glyph glyph-name="Delta" unicode="&#x2206;" 
d="M1204 2h-1179l499 1169h197zM934 190l-322 758l-319 -758h641z" />
    <glyph glyph-name="product" unicode="&#x220f;" 
d="M1194 0h-537v147h68q52 0 69 13t17 55v623q0 35 -2.5 58.5t-11.5 39.5t-17.5 24.5t-30 13t-39 5t-53.5 0.5h-104q-91 0 -115 -22t-24 -101v-635q0 -74 47 -74h110v-147h-542v147q23 -2 61 -2q83 0 109 25.5t26 103.5v687q0 61 -90 61h-106v147h1165v-147h-76
q-67 0 -93 -11t-26 -44v-666q0 -89 16.5 -121.5t80.5 -32.5h98v-147z" />
    <glyph glyph-name="summation" unicode="&#x2211;" 
d="M1223 -393h-1194v211l602 698l-590 664v221h1178v-191h-975l610 -694l-618 -719h987v-190z" />
    <glyph glyph-name="minus" unicode="&#x2212;" 
d="M1055 356h-879v189h879v-189z" />
    <glyph glyph-name="uni2215" unicode="&#x2215;" 
d="M1227 1198l-1028 -1372l-146 106l1026 1366z" />
    <glyph glyph-name="uni2219" unicode="&#x2219;" 
d="M809 655q0 -69 -54.5 -118.5t-133.5 -49.5q-52 0 -92.5 18t-62.5 45.5t-33 54t-11 48.5q0 68 54 120t140 52q89 0 141 -52t52 -118z" />
    <glyph glyph-name="radical" unicode="&#x221a;" 
d="M1425 1559h-182l-592 -1643h-174l-160 672h-118v190h280l109 -432l502 1403h335v-190z" />
    <glyph glyph-name="infinity" unicode="&#x221e;" 
d="M621 555q64 132 135 193t166 61q121 0 210 -107.5t89 -265.5q0 -157 -87.5 -261.5t-213.5 -104.5q-89 0 -157.5 55t-131.5 172l-13 22q-114 -249 -301 -249q-130 0 -219.5 104.5t-89.5 261.5q0 160 92 266.5t219 106.5q172 0 283 -217zM715 436q45 -92 89 -135t97 -43
q59 0 96 48.5t37 129.5q0 78 -40 130t-99 52q-49 0 -89.5 -43t-90.5 -139zM524 436l-26 51q-45 70 -78.5 100.5t-75.5 30.5q-60 0 -100.5 -52t-40.5 -134q0 -77 36.5 -125.5t92.5 -48.5q107 0 192 178z" />
    <glyph glyph-name="intersection" unicode="&#x2229;" 
d="M1112 0h-190v496q0 172 -76.5 256t-233.5 84q-340 0 -340 -394v-442h-190v483q0 244 145 393.5t379 149.5q238 0 372 -143.5t134 -399.5v-483z" />
    <glyph glyph-name="integral" unicode="&#x222b;" 
d="M1198 1536q-64 12 -117 12q-86 0 -144.5 -21t-96 -60t-57.5 -109t-27.5 -153t-7.5 -208v-641q0 -263 -126.5 -402.5t-365.5 -139.5q-76 0 -152 8v188q52 -8 121 -8q100 0 160.5 18t101 67t55.5 130t15 213v641q0 341 120.5 501.5t381.5 160.5q65 0 139 -9v-188z" />
    <glyph glyph-name="approxequal" unicode="&#x2248;" 
d="M1206 659q-150 -190 -360 -190q-10 0 -21.5 1t-20.5 2t-22 4t-20 4.5t-22.5 6t-20.5 6t-22.5 8t-21 7.5t-23 8t-21.5 8q-147 56 -230 56q-74 0 -132 -34.5t-113 -109.5l-131 82q68 126 157 187t209 61q105 0 258 -53q5 -2 32 -11.5t34 -11.5t29 -9t32 -9.5t26.5 -6.5
t29.5 -5t26 -1q121 0 221 97zM1206 342q-150 -190 -360 -190q-12 0 -26 1.5t-25 3t-27.5 6t-25 6.5t-28.5 9t-26.5 9t-29 10t-27.5 10q-140 55 -230 55q-73 0 -132 -34.5t-113 -108.5l-131 82q68 126 157 187t209 61q106 0 258 -54q131 -45 179 -51q16 -2 30 -2
q122 0 221 96z" />
    <glyph glyph-name="notequal" unicode="&#x2260;" 
d="M1055 170h-545l-131 -156h-203l123 156h-123v190h279l112 140h-391v190h545l127 156h207l-127 -156h127v-190h-279l-114 -140h393v-190z" />
    <glyph glyph-name="equivalence" unicode="&#x2261;" 
d="M1200 680h-1169v190h1169v-190zM1200 377h-1169v188h1169v-188zM1200 72h-1169v190h1169v-190z" />
    <glyph glyph-name="lessequal" unicode="&#x2264;" 
d="M1116 264l-883 211v221l883 211v-178l-702 -143l702 -144v-178zM1116 0h-883v190h883v-190z" />
    <glyph glyph-name="greaterequal" unicode="&#x2265;" 
d="M1116 475l-883 -211v178l701 144l-701 143v178l883 -211v-221zM1116 0h-883v190h883v-190z" />
    <glyph glyph-name="dotmath" unicode="&#x22c5;" 
d="M512 737q0 31 21.5 52.5t52.5 21.5t52 -21.5t21 -52.5t-21 -52t-52 -21t-52.5 21t-21.5 52z" />
    <glyph glyph-name="house" unicode="&#x2302;" 
d="M1163 0h-1097v645l548 643l549 -645v-643zM1032 131v467l-416 492l-419 -492v-467h835z" />
    <glyph glyph-name="uni2304" unicode="&#x2304;" 
d="M137 1171h215l262 -497l263 497h215l-373 -698h-209z" />
    <glyph glyph-name="revlogicalnot" unicode="&#x2310;" 
d="M1057 543h-688v-350h-189v540h877v-190z" />
    <glyph glyph-name="uni2319" unicode="&#x2319;" 
d="M61 565h91v-475h1015v-90h-1106v565z" />
    <glyph glyph-name="integraltp" unicode="&#x2320;" 
d="M1219 1331q-111 15 -166 15q-175 0 -256.5 -125t-81.5 -385v-1348h-191v1382q0 327 144 496.5t415 169.5q67 0 136 -14v-191z" />
    <glyph glyph-name="integralbt" unicode="&#x2321;" 
d="M715 348q0 -327 -144 -497t-415 -170q-61 0 -136 16v190q83 -14 156 -14q184 0 266 122.5t82 387.5v1348h191v-1383z" />
    <glyph glyph-name="uni2500" unicode="&#x2500;" 
d="M1229 449h-1229v126h1229v-126z" />
    <glyph glyph-name="uni2502" unicode="&#x2502;" 
d="M678 -512h-127v2048h127v-2048z" />
    <glyph glyph-name="uni250C" unicode="&#x250c;" 
d="M1229 449h-551v-961h-127v1087h678v-126z" />
    <glyph glyph-name="uni2510" unicode="&#x2510;" 
d="M678 -512h-127v961h-551v126h678v-1087z" />
    <glyph glyph-name="uni2514" unicode="&#x2514;" 
d="M1229 449h-678v1087h127v-961h551v-126z" />
    <glyph glyph-name="uni2518" unicode="&#x2518;" 
d="M678 449h-678v126h551v961h127v-1087z" />
    <glyph glyph-name="uni251C" unicode="&#x251c;" 
d="M1229 449h-551v-961h-127v2048h127v-961h551v-126z" />
    <glyph glyph-name="uni2524" unicode="&#x2524;" 
d="M678 -512h-127v961h-551v126h551v961h127v-2048z" />
    <glyph glyph-name="uni252C" unicode="&#x252c;" 
d="M1229 449h-551v-961h-127v961h-551v126h1229v-126z" />
    <glyph glyph-name="uni2534" unicode="&#x2534;" 
d="M1229 449h-1229v126h551v961h127v-961h551v-126z" />
    <glyph glyph-name="uni253C" unicode="&#x253c;" 
d="M1229 449h-551v-961h-127v961h-551v126h551v961h127v-961h551v-126z" />
    <glyph glyph-name="uni2550" unicode="&#x2550;" 
d="M1229 641h-1229v127h1229v-127zM1229 256h-1229v127h1229v-127z" />
    <glyph glyph-name="uni2551" unicode="&#x2551;" 
d="M870 -512h-127v2048h127v-2048zM485 -512h-127v2048h127v-2048z" />
    <glyph glyph-name="uni2552" unicode="&#x2552;" 
d="M1229 256h-551v-768h-127v1280h678v-127h-551v-258h551v-127z" />
    <glyph glyph-name="uni2553" unicode="&#x2553;" 
d="M1229 449h-359v-961h-127v961h-258v-961h-127v1087h871v-126z" />
    <glyph glyph-name="uni2554" unicode="&#x2554;" 
d="M1229 641h-744v-1153h-127v1280h871v-127zM1229 256h-359v-768h-127v895h486v-127z" />
    <glyph glyph-name="uni2555" unicode="&#x2555;" 
d="M678 -512h-127v768h-551v127h551v258h-551v127h678v-1280z" />
    <glyph glyph-name="uni2556" unicode="&#x2556;" 
d="M870 -512h-127v961h-258v-961h-127v961h-358v126h870v-1087z" />
    <glyph glyph-name="uni2557" unicode="&#x2557;" 
d="M870 -512h-127v1153h-743v127h870v-1280zM485 -512h-127v768h-358v127h485v-895z" />
    <glyph glyph-name="uni2558" unicode="&#x2558;" 
d="M1229 256h-678v1280h127v-768h551v-127h-551v-258h551v-127z" />
    <glyph glyph-name="uni2559" unicode="&#x2559;" 
d="M1229 449h-871v1087h127v-961h258v961h127v-961h359v-126z" />
    <glyph glyph-name="uni255A" unicode="&#x255a;" 
d="M1229 641h-486v895h127v-768h359v-127zM1229 256h-871v1280h127v-1153h744v-127z" />
    <glyph glyph-name="uni255B" unicode="&#x255b;" 
d="M678 256h-678v127h551v258h-551v127h551v768h127v-1280z" />
    <glyph glyph-name="uni255C" unicode="&#x255c;" 
d="M870 449h-870v126h358v961h127v-961h258v961h127v-1087z" />
    <glyph glyph-name="uni255D" unicode="&#x255d;" 
d="M485 641h-485v127h358v768h127v-895zM870 256h-870v127h743v1153h127v-1280z" />
    <glyph glyph-name="uni255E" unicode="&#x255e;" 
d="M1229 256h-551v-768h-127v2048h127v-768h551v-127h-551v-258h551v-127z" />
    <glyph glyph-name="uni255F" unicode="&#x255f;" 
d="M1229 449h-359v-961h-127v2048h127v-961h359v-126zM485 -512h-127v2048h127v-2048z" />
    <glyph glyph-name="uni2560" unicode="&#x2560;" 
d="M1229 641h-486v895h127v-768h359v-127zM485 -512h-127v2048h127v-2048zM1229 256h-359v-768h-127v895h486v-127z" />
    <glyph glyph-name="uni2561" unicode="&#x2561;" 
d="M678 -512h-127v768h-551v127h551v258h-551v127h551v768h127v-2048z" />
    <glyph glyph-name="uni2562" unicode="&#x2562;" 
d="M870 -512h-127v2048h127v-2048zM485 -512h-127v961h-358v126h358v961h127v-2048z" />
    <glyph glyph-name="uni2563" unicode="&#x2563;" 
d="M485 641h-485v127h358v768h127v-895zM870 -512h-127v2048h127v-2048zM485 -512h-127v768h-358v127h485v-895z" />
    <glyph glyph-name="uni2564" unicode="&#x2564;" 
d="M1229 641h-1229v127h1229v-127zM1229 256h-551v-768h-127v768h-551v127h1229v-127z" />
    <glyph glyph-name="uni2565" unicode="&#x2565;" 
d="M1229 449h-359v-961h-127v961h-258v-961h-127v961h-358v126h1229v-126z" />
    <glyph glyph-name="uni2566" unicode="&#x2566;" 
d="M1229 641h-1229v127h1229v-127zM1229 256h-359v-768h-127v895h486v-127zM485 -512h-127v768h-358v127h485v-895z" />
    <glyph glyph-name="uni2567" unicode="&#x2567;" 
d="M1229 641h-1229v127h551v768h127v-768h551v-127zM1229 256h-1229v127h1229v-127z" />
    <glyph glyph-name="uni2568" unicode="&#x2568;" 
d="M1229 449h-1229v126h358v961h127v-961h258v961h127v-961h359v-126z" />
    <glyph glyph-name="uni2569" unicode="&#x2569;" 
d="M1229 641h-486v895h127v-768h359v-127zM485 641h-485v127h358v768h127v-895zM1229 256h-1229v127h1229v-127z" />
    <glyph glyph-name="uni256A" unicode="&#x256a;" 
d="M1229 256h-551v-768h-127v768h-551v127h551v258h-551v127h551v768h127v-768h551v-127h-551v-258h551v-127z" />
    <glyph glyph-name="uni256B" unicode="&#x256b;" 
d="M1229 449h-359v-961h-127v961h-258v-961h-127v961h-358v126h358v961h127v-961h258v961h127v-961h359v-126z" />
    <glyph glyph-name="uni256C" unicode="&#x256c;" 
d="M1229 641h-486v895h127v-768h359v-127zM485 641h-485v127h358v768h127v-895zM1229 256h-359v-768h-127v895h486v-127zM485 -512h-127v768h-358v127h485v-895z" />
    <glyph glyph-name="upblock" unicode="&#x2580;" 
d="M1229 512h-1229v1024h1229v-1024z" />
    <glyph glyph-name="dnblock" unicode="&#x2584;" 
d="M1229 -512h-1229v1024h1229v-1024z" />
    <glyph glyph-name="block" unicode="&#x2588;" 
d="M1229 -512h-1229v2048h1229v-2048z" />
    <glyph glyph-name="lfblock" unicode="&#x258c;" 
d="M614 -512h-614v2048h614v-2048z" />
    <glyph glyph-name="rtblock" unicode="&#x2590;" 
d="M1229 -512h-615v2048h615v-2048z" />
    <glyph glyph-name="ltshade" unicode="&#x2591;" 
d="M922 1196h-306v340h306v-340zM307 1196h-307v340h307v-340zM922 514h-306v340h306v-340zM307 514h-307v340h307v-340zM922 -168h-306v340h306v-340zM307 -168h-307v340h307v-340z" />
    <glyph glyph-name="shade" unicode="&#x2592;" 
d="M922 1198h-306v338h306v-338zM1229 856h-305v340h305v-340zM307 1198h-307v338h307v-338zM614 856h-307v340h307v-340zM922 514h-306v340h306v-340zM1229 172h-305v340h305v-340zM307 514h-307v340h307v-340zM614 172h-307v340h307v-340zM922 -168h-306v338h306v-338z
M1229 -512h-305v340h305v-340zM307 -168h-307v338h307v-338zM614 -512h-307v340h307v-340z" />
    <glyph glyph-name="dkshade" unicode="&#x2593;" 
d="M1229 -170h-307v-342h-310v342h-305v-342h-307v2048h1229v-342h-307v-340h307v-342h-307v-340h307v-342zM612 854v340h-305v-340h305zM612 172v340h-305v-340h305z" />
    <glyph glyph-name="uni25A0" unicode="&#x25a0;" 
d="M1092 137h-955v959h955v-959z" />
    <glyph glyph-name="filledrect" unicode="&#x25ac;" 
d="M1124 0h-1018v406h1018v-406z" />
    <glyph glyph-name="triagup" unicode="&#x25b2;" 
d="M1067 117h-905l452 870z" />
    <glyph glyph-name="uni25B6" unicode="&#x25b6;" 
d="M1038 510l-833 -455v910z" />
    <glyph glyph-name="triagdn" unicode="&#x25bc;" 
d="M1067 987l-453 -870l-452 870h905z" />
    <glyph glyph-name="uni25C0" unicode="&#x25c0;" 
d="M1024 55l-836 455l836 455v-910z" />
    <glyph glyph-name="lozenge" unicode="&#x25ca;" 
d="M1247 684l-624 -704l-637 702l632 704zM1157 684l-539 592l-542 -594l547 -592z" />
    <glyph glyph-name="circle" unicode="&#x25cb;" 
d="M1122 616q0 -213 -147 -360q-150 -150 -361 -150q-210 0 -360 150q-148 148 -148 360q0 213 148 361q149 149 360 149q215 0 361 -149q147 -147 147 -361zM1044 616q0 182 -124 306q-127 127 -306 127q-178 0 -305 -127q-125 -125 -125 -306q0 -180 125 -305
q127 -127 305 -127q179 0 306 127q124 124 124 305z" />
    <glyph glyph-name="invbullet" unicode="&#x25d8;" 
d="M1229 0h-1229v1233h1229v-1233zM1004 616q0 162 -115 277q-112 115 -275 115q-159 0 -274 -115t-115 -277q0 -161 115 -276t274 -115q163 0 275 115q115 115 115 276z" />
    <glyph glyph-name="invcircle" unicode="&#x25d9;" 
d="M1229 0h-1229v1233h1229v-1233zM1059 616q0 185 -131 316t-314 131q-185 0 -313 -131q-131 -131 -131 -316q0 -184 131 -315q128 -131 313 -131q186 0 314 131q131 131 131 315zM932 614q0 -133 -92 -225t-226 -92t-225.5 91t-91.5 226q0 137 91.5 229.5t225.5 92.5
t226 -92.5t92 -229.5z" />
    <glyph glyph-name="smileface" unicode="&#x263a;" 
d="M1221 606q0 -195 -109 -352q-85 -121 -213.5 -187.5t-277.5 -66.5q-152 0 -284 69t-218 193q-107 153 -107 340q0 252 183 432q177 174 428 174q246 0 421 -178q86 -86 131.5 -195.5t45.5 -228.5zM1153 606q0 106 -41.5 205t-116.5 174q-153 156 -372 156
q-138 0 -256 -62.5t-195 -175.5q-92 -136 -92 -297q0 -139 65 -258t181 -192q139 -88 297 -88q131 0 246 59t188 164q96 137 96 315zM776 879q0 -70 -49 -70q-43 0 -43 65q0 34 10.5 50t34.5 16q47 0 47 -61zM557 879q0 -70 -49 -70q-43 0 -43 65q0 34 10.5 50t34.5 16
q47 0 47 -61zM1069 596q-11 -14 -29 -14q-5 0 -43 10q-63 -152 -154 -223.5t-222 -71.5q-266 0 -365 227q-25 59 -33 65q-4 3 -8 3q-3 0 -16.5 -5t-22.5 -5q-15 0 -20.5 5.5t-5.5 20.5q0 31 51.5 86.5t87.5 55.5q18 0 18 -19q0 -171 78.5 -260.5t224.5 -89.5q128 0 213 82
q43 42 70 104.5t27 106.5q0 10 -4.5 29t-4.5 28q0 23 23 23q27 0 74 -48.5t61 -109.5z" />
    <glyph glyph-name="invsmileface" unicode="&#x263b;" 
d="M1217 606q0 -199 -109 -352q-85 -121 -213.5 -187.5t-278.5 -66.5q-152 0 -283.5 68.5t-217.5 193.5q-107 153 -107 340q0 253 182 432q177 174 428 174q247 0 422 -178q86 -86 131.5 -195.5t45.5 -228.5zM825 901q0 47 -21.5 75t-55.5 28t-54 -24.5t-20 -66.5
q0 -106 82 -106q69 0 69 94zM549 913q0 42 -20 66.5t-54 24.5q-36 0 -57 -27t-21 -76q0 -94 70 -94q82 0 82 106zM1128 606q0 57 -66 134t-104 77q-24 0 -34.5 -10.5t-10.5 -34.5v-88q0 -141 -83.5 -238.5t-213.5 -97.5q-137 0 -224 98t-87 250v72q0 49 -37 49
q-43 0 -108.5 -77t-65.5 -134q0 -23 8.5 -33t30.5 -10q15 0 30 18.5t23 18.5q11 0 18 -10.5t15 -41t12 -40.5q47 -132 148 -205.5t237 -73.5q252 0 367 254q11 23 19 55.5t14.5 47t19.5 14.5q8 0 23.5 -18.5t30.5 -18.5q38 0 38 43z" />
    <glyph glyph-name="sun" unicode="&#x263c;" 
d="M1335 694h-225q-21 -162 -121 -282l166 -170l-57 -54l-164 168q-131 -108 -283 -123v-225h-78v225q-160 16 -282 127l-172 -167l-56 55l170 168q-109 115 -118 278h-230v78h230q15 165 121 283l-168 166l49 53l170 -166q122 104 286 125v227h78v-227q161 -15 289 -123
l164 166l51 -53l-166 -166q106 -127 121 -285h225v-78zM1032 733q0 176 -123 299t-297 123t-297 -123q-122 -122 -122 -299t122 -299q123 -123 297 -123t297 123t123 299z" />
    <glyph glyph-name="female" unicode="&#x2640;" 
d="M567 643q-192 40 -296.5 157t-104.5 290q0 110 51.5 208.5t142.5 159.5q119 78 261 78q183 0 312.5 -128.5t129.5 -315.5q0 -180 -109 -302.5t-292 -144.5v-299h290v-94h-290v-252h-95v252h-291v94h291v297zM979 1094q0 153 -107 260q-106 106 -258 106t-258 -106
t-106 -260t106 -260q107 -107 258 -107t258 107t107 260z" />
    <glyph glyph-name="male" unicode="&#x2642;" 
d="M1161 1096l-31 -27q-108 89 -200 268l-199 -493q109 -69 170.5 -170t61.5 -228q0 -129 -70 -239q-61 -97 -160.5 -152t-212.5 -55q-190 0 -318 128t-128 318q0 110 49.5 208t138.5 161q110 78 246 78q61 0 133 -16l203 489q-208 -47 -314 -47h-12l-8 37q230 63 422 180
l41 -14q28 -177 188 -426zM881 446q0 149 -107 256t-256 107t-256 -107q-104 -104 -104 -256t104 -256q106 -106 256 -106t256 106q107 107 107 256z" />
    <glyph glyph-name="spade" unicode="&#x2660;" 
d="M621 1169q55 -87 123 -177t148.5 -190t121.5 -155q73 -96 108 -168.5t35 -142.5q0 -96 -57.5 -158.5t-141.5 -62.5q-45 0 -77.5 11.5t-57 37.5t-41 54.5t-37.5 76.5q-24 55 -55 55q-39 0 -39 -106q0 -117 74 -244h-209q74 127 74 252q0 44 -11.5 71t-27.5 27
q-18 0 -30 -13t-25 -42q-21 -48 -37.5 -76.5t-41 -54.5t-57 -37.5t-77.5 -11.5q-90 0 -149.5 62t-59.5 161q0 70 32.5 137.5t98.5 153.5q5 7 72.5 88.5t157.5 198t186 253.5z" />
    <glyph glyph-name="uni2662" unicode="&#x2662;" 
d="M1247 684l-624 -704l-637 702l632 704zM1157 684l-539 592l-542 -594l547 -592z" />
    <glyph glyph-name="club" unicode="&#x2663;" 
d="M496 0q73 103 73 227q0 127 -39 127q-9 0 -20 -7.5t-17.5 -14.5t-23.5 -27q-44 -54 -74.5 -82.5t-72.5 -48.5t-91 -20q-105 0 -167 73t-62 197q0 116 62 186t165 70q46 0 87.5 -16t65.5 -35t50.5 -35t46.5 -16q14 0 24.5 8t10.5 20q0 18 -72 84q-54 50 -79 91t-25 100
q0 105 73 171t195 66q136 0 213.5 -64t77.5 -173q0 -90 -74 -164q-15 -15 -37.5 -35.5t-33 -30.5t-19 -23t-8.5 -24q0 -9 9.5 -17.5t21.5 -8.5q17 0 55.5 26t91 52t103.5 26q95 0 159 -74.5t64 -191.5q0 -118 -61 -190t-160 -72q-100 0 -179 82q-19 21 -39.5 46.5t-31 39
t-23 23t-24.5 9.5q-18 0 -29.5 -32t-11.5 -89q0 -131 75 -233h-249z" />
    <glyph glyph-name="heart" unicode="&#x2665;" 
d="M618 0q-141 197 -292.5 391.5t-157.5 202.5q-48 68 -71 125.5t-23 136.5q0 129 71 208t181 79q141 0 223 -162q8 -16 17.5 -39t14.5 -35t13.5 -21t19.5 -9q19 0 29.5 15t26.5 52q44 103 98.5 151t136.5 48q106 0 178 -80.5t72 -206.5q0 -138 -104 -281q-1 -1 -157.5 -201
t-275.5 -374z" />
    <glyph glyph-name="diamond" unicode="&#x2666;" 
d="M1079 551l-463 -598l-462 588l462 598z" />
    <glyph glyph-name="musicalnote" unicode="&#x266a;" 
d="M666 1513q3 -168 20 -217q12 -34 42 -72.5t83 -98t88 -103.5q75 -98 111.5 -188.5t36.5 -196.5q0 -119 -43 -281l-76 25q43 166 43 254q0 266 -305 448v-759q0 -128 -96 -211.5t-230 -83.5q-84 0 -133 43t-49 114q0 99 98 187q104 94 238 94q39 0 94 -10v1056h78z" />
    <glyph glyph-name="uni266C" unicode="&#x266c;" 
d="M1057 -86q0 -132 -94 -215.5t-234 -83.5q-83 0 -129.5 40.5t-46.5 111.5q0 111 99.5 196.5t232.5 85.5q23 0 33 -2l61 -6v520q-104 183 -299 256v-485q0 -129 -99 -217t-235 -88q-78 0 -127 43.5t-49 113.5q0 106 94 194.5t230 88.5q4 0 13.5 -1t14.5 -1l80 -6v1054h78
v-22q0 -106 31 -172q19 -43 51 -80.5t94 -95t84 -80.5q75 -77 96 -137t21 -160v-852zM979 715v88q0 104 -72.5 182t-226.5 145v-30q0 -87 20 -123q10 -16 45.5 -47.5t103 -91.5t130.5 -123z" />
    <glyph glyph-name="uni0044_uni004D" unicode="&#xe001;" 
d="M1303 0h-359v190h70v566l-74 -197h-78l-74 197v-566h70v-190h-358v190h98v791h-98v190h291l110 -315l111 315h291v-190h-99v-791h99v-190zM-94 981v190h280q66 0 119 -20t88.5 -51.5t61 -80t39.5 -94.5t22 -107t10 -106t2 -102q0 -51 -1.5 -91t-6 -98t-15 -103t-27 -96
t-43 -88.5t-61.5 -69t-85 -48t-111 -16.5h-272v190h119v791h-119zM215 979v-784q20 7 36.5 20.5t28.5 28t21 40t15 44t10 52t6 52.5t3 57t1 53.5v53.5q0 163 -8 217q-21 146 -113 166z" />
    <glyph glyph-name="zero.slash" unicode="&#xf638;" 
d="M621 1253q77 0 139.5 -24.5t104 -64t72.5 -96t48 -112.5t27 -123t13 -117t3 -104q0 -32 -1 -62t-5.5 -79t-12.5 -92t-23 -95t-35.5 -94t-52.5 -83.5t-71 -69.5t-93 -45t-118 -17q-79 0 -143.5 26.5t-106.5 67.5t-73.5 100.5t-48 115.5t-26.5 122t-12.5 111t-2.5 92
q0 45 2 85t11 109t24.5 125t47 119t74 105.5t109.5 71t150 28.5zM399 442l379 519q-60 104 -162 104q-225 0 -225 -459q0 -93 8 -164zM834 760l-371 -510q56 -86 158 -86q46 0 83 21t60 58t39.5 80t24.5 96t11 96.5t3 90.5q0 93 -8 154z" />
    <glyph glyph-name="fi" unicode="&#xfb01;" 
d="M1022 1008h-211v307h211v-307zM1217 0h-574v188h193v512h-172v189h358v-701h195v-188zM680 1264l-27 -189q-87 6 -131 6q-121 0 -121 -84v-108h197v-189h-197v-512h197v-188h-580v188h197v512h-197v189h197v90q0 149 76 213q93 78 239 78q86 0 150 -6z" />
    <glyph glyph-name="fl" unicode="&#xfb02;" 
d="M1212 0h-577v188h194v895h-84v189h271v-1084h196v-188zM684 1264l-27 -189q-87 6 -141 6q-121 0 -121 -84v-108h197v-189h-197v-512h197v-188h-580v188h197v512h-197v189h197v90q0 149 76 213q93 78 239 78q96 0 160 -6z" />
    <glyph glyph-name="f_i" 
d="M1022 1008h-211v307h211v-307zM1217 0h-574v188h193v512h-172v189h358v-701h195v-188zM680 1264l-27 -189q-87 6 -131 6q-121 0 -121 -84v-108h197v-189h-197v-512h197v-188h-580v188h197v512h-197v189h197v90q0 149 76 213q93 78 239 78q86 0 150 -6z" />
    <glyph glyph-name="f_l" 
d="M1212 0h-577v188h194v895h-84v189h271v-1084h196v-188zM684 1264l-27 -189q-87 6 -141 6q-121 0 -121 -84v-108h197v-189h-197v-512h197v-188h-580v188h197v512h-197v189h197v90q0 149 76 213q93 78 239 78q96 0 160 -6z" />
    <glyph glyph-name="a.superior" 
d="M901 709h-207v59q-65 -72 -137 -72q-85 0 -141 59t-56 138q0 30 10 58.5t33 58t70 47.5t111 18q61 0 110 -14v12q0 64 -94 64q-50 0 -117 -23l-49 -18l-45 116q118 41 211 41q100 0 154 -41q27 -21 40.5 -54.5t16 -58.5t2.5 -65v-207h88v-118zM694 950q-53 8 -88 8
q-53 0 -89 -19t-36 -60q0 -24 19 -43t55 -19q44 0 83 42t56 91z" />
    <glyph glyph-name="o.superior" 
d="M887 975q0 -123 -79.5 -201t-189.5 -78q-120 0 -198 81t-78 198q0 49 18.5 98t52 89.5t86 65.5t115.5 25q83 0 147 -42t95 -104.5t31 -131.5zM768 975q0 57 -41 107.5t-111 50.5q-71 0 -112 -50t-41 -112q0 -63 41.5 -108.5t111.5 -45.5q66 0 109 43.5t43 114.5z" />
    <glyph glyph-name="one.superior" 
d="M811 541h-494v139h185v395l-162 -31v140l299 59v-563h172v-139z" />
    <glyph glyph-name="two.superior" 
d="M776 541h-489v116l307 269q45 42 45 90t-31 68t-71 20q-32 0 -52.5 -8.5t-28.5 -23.5t-10 -26.5t-2 -27.5v-21h-139v127q92 119 232 119q54 0 97.5 -17.5t68.5 -43.5t42 -58t23 -58t6 -48q0 -56 -25.5 -105.5t-64.5 -81.5l-182 -155h274v-135z" />
    <glyph glyph-name="three.superior" 
d="M782 756q0 -97 -72 -165.5t-190 -68.5q-94 0 -246 70l56 129q122 -60 200 -62h5q49 0 78.5 28t29.5 69q0 38 -25.5 63t-78.5 25h-95v135h68q1 0 3.5 -1t4.5 -1q39 0 64.5 17t25.5 53q0 33 -21 47t-48 14q-28 0 -64 -14t-53.5 -24t-58.5 -36l-74 117q130 92 237 92
q86 0 154 -53q66 -54 66 -141q0 -81 -48 -123q82 -67 82 -170z" />
  </font>
</defs>
</svg>
